M48
; DRILL file {KiCad (5.1.7)-1} date 10/18/20 12:33:44
; FORMAT={-:-/ absolute / inch / decimal}
; #@! TF.CreationDate,2020-10-18T12:33:44-05:00
; #@! TF.GenerationSoftware,Kicad,Pcbnew,(5.1.7)-1
FMAT,2
INCH
T1C0.0157
T2C0.0236
T3C0.0394
T4C0.0472
T5C0.0520
%
G90
G05
T1
X4.7441Y-4.7539
X4.7441Y-4.7933
X4.802Y-4.4969
X4.9409Y-4.7539
X4.9409Y-4.7933
X5.0866Y-4.8917
X5.1476Y-5.6594
X5.2657Y-5.1575
X5.2717Y-5.2533
X5.3346Y-4.6831
X5.3543Y-5.6496
X5.3661Y-3.872
X5.3864Y-4.9508
X5.4419Y-4.9547
X5.4764Y-4.4902
X5.4882Y-5.4075
X5.5315Y-4.8917
X5.561Y-4.9213
X5.57Y-5.405
X5.6004Y-4.9241
X5.635Y-5.675
X5.6535Y-3.4547
X5.6654Y-5.3287
X5.7262Y-5.1061
X5.7561Y-3.5372
X5.7758Y-3.4978
X5.7955Y-3.5372
X5.805Y-5.63
X5.8858Y-5.3209
X5.9646Y-3.8799
X5.9646Y-5.3209
X6.0531Y-5.3386
X6.2362Y-3.372
X6.2913Y-4.9508
X6.5846Y-5.2323
T3
X4.75Y-6.378
X4.75Y-6.478
X4.85Y-6.378
X4.85Y-6.478
X4.95Y-6.378
X4.95Y-6.478
X5.05Y-6.378
X5.05Y-6.478
X5.15Y-6.378
X5.15Y-6.478
X5.25Y-6.378
X5.25Y-6.478
X5.35Y-6.378
X5.35Y-6.478
X5.45Y-6.378
X5.45Y-6.478
X5.55Y-6.378
X5.55Y-6.478
X5.65Y-6.378
X5.65Y-6.478
X5.75Y-6.378
X5.75Y-6.478
X5.85Y-6.378
X5.85Y-6.478
X5.95Y-6.378
X5.95Y-6.478
X6.05Y-6.378
X6.05Y-6.478
X6.15Y-6.378
X6.15Y-6.478
X6.25Y-6.378
X6.25Y-6.478
X6.35Y-6.378
X6.35Y-6.478
X6.45Y-6.378
X6.45Y-6.478
X6.3484Y-3.9567
X6.3484Y-4.0567
X6.3484Y-4.1567
X6.3484Y-4.3567
X6.3484Y-4.4567
X6.3484Y-4.5567
X6.3484Y-4.6567
X4.45Y-5.95
X4.45Y-6.05
X4.55Y-5.95
X4.55Y-6.05
X4.65Y-5.95
X4.65Y-6.05
X4.75Y-5.95
X4.75Y-6.05
X4.85Y-5.95
X4.85Y-6.05
X4.95Y-5.95
X4.95Y-6.05
X5.05Y-5.95
X5.05Y-6.05
X5.15Y-5.95
X5.15Y-6.05
X5.25Y-5.95
X5.25Y-6.05
X5.35Y-5.95
X5.35Y-6.05
X5.45Y-5.95
X5.45Y-6.05
X5.55Y-5.95
X5.55Y-6.05
X5.65Y-5.95
X5.65Y-6.05
X5.75Y-5.95
X5.75Y-6.05
X5.85Y-5.95
X5.85Y-6.05
X5.95Y-5.95
X5.95Y-6.05
X6.05Y-5.95
X6.05Y-6.05
X6.15Y-5.95
X6.15Y-6.05
X6.25Y-5.95
X6.25Y-6.05
X6.35Y-5.95
X6.35Y-6.05
X6.3961Y-5.0394
X6.4961Y-5.0394
X6.5961Y-5.0394
X6.3386Y-5.5299
X6.3386Y-5.6299
X6.5748Y-5.5303
X6.5748Y-5.6303
X6.5748Y-5.7303
X5.315Y-3.435
X5.315Y-3.535
X5.315Y-3.635
T4
X4.526Y-5.1004
X4.526Y-5.2004
X4.526Y-5.3004
X4.526Y-5.4004
X4.526Y-5.5004
X4.626Y-5.1004
X4.626Y-5.2004
X4.626Y-5.3004
X4.626Y-5.4004
X4.626Y-5.5004
T5
X6.5906Y-2.9118
X6.5906Y-3.1118
X4.3406Y-2.9118
X4.3406Y-3.1118
X5.0906Y-2.9118
X5.0906Y-3.1118
X5.8406Y-2.9118
X5.8406Y-3.1118
T2
G00X4.3754Y-4.2913
M15
G01X4.4187Y-4.2913
M16
G05
G00X4.3754Y-4.5748
M15
G01X4.4187Y-4.5748
M16
G05
G00X4.5152Y-4.2913
M15
G01X4.5585Y-4.2913
M16
G05
G00X4.5152Y-4.5748
M15
G01X4.5585Y-4.5748
M16
G05
T0
M30
