%TF.GenerationSoftware,KiCad,Pcbnew,(5.1.7)-1*%
%TF.CreationDate,2020-10-18T12:33:11-05:00*%
%TF.ProjectId,Programmer Board,50726f67-7261-46d6-9d65-7220426f6172,A*%
%TF.SameCoordinates,Original*%
%TF.FileFunction,Soldermask,Top*%
%TF.FilePolarity,Negative*%
%FSLAX46Y46*%
G04 Gerber Fmt 4.6, Leading zero omitted, Abs format (unit mm)*
G04 Created by KiCad (PCBNEW (5.1.7)-1) date 2020-10-18 12:33:11*
%MOMM*%
%LPD*%
G01*
G04 APERTURE LIST*
%ADD10R,1.750000X4.500000*%
%ADD11C,2.200000*%
%ADD12R,1.200000X0.300000*%
%ADD13R,0.300000X1.200000*%
%ADD14R,0.400000X2.750000*%
%ADD15O,1.700000X1.700000*%
%ADD16R,1.700000X1.700000*%
%ADD17O,3.000000X1.500000*%
%ADD18R,3.000000X1.500000*%
%ADD19C,2.082800*%
%ADD20R,1.700000X0.250000*%
%ADD21O,2.300000X1.200000*%
%ADD22R,3.900000X1.800000*%
%ADD23R,1.200000X1.200000*%
G04 APERTURE END LIST*
D10*
%TO.C,L1*%
X145875000Y-103050000D03*
X142625000Y-103050000D03*
%TD*%
D11*
%TO.C,J7*%
X114960000Y-139710000D03*
X117500000Y-139710000D03*
X114960000Y-137170000D03*
X117500000Y-137170000D03*
X114960000Y-134630000D03*
X117500000Y-134630000D03*
X114960000Y-132090000D03*
X117500000Y-132090000D03*
X114960000Y-129550000D03*
X117500000Y-129550000D03*
%TD*%
D12*
%TO.C,U1*%
X135500000Y-131695000D03*
X135500000Y-131195000D03*
D13*
X139950000Y-127245000D03*
X139450000Y-127245000D03*
D12*
X135500000Y-130695000D03*
X135500000Y-130195000D03*
X135500000Y-129695000D03*
X135500000Y-129195000D03*
X135500000Y-128695000D03*
D13*
X138950000Y-127245000D03*
X138450000Y-127245000D03*
X137950000Y-127245000D03*
X137450000Y-127245000D03*
X136950000Y-127245000D03*
D12*
X135500000Y-132195000D03*
X135500000Y-132695000D03*
X135500000Y-133195000D03*
X135500000Y-133695000D03*
X135500000Y-134195000D03*
D13*
X140450000Y-127245000D03*
X140950000Y-127245000D03*
X141450000Y-127245000D03*
X141950000Y-127245000D03*
X142450000Y-127245000D03*
X136950000Y-135645000D03*
X137450000Y-135645000D03*
X137950000Y-135645000D03*
X138450000Y-135645000D03*
X138950000Y-135645000D03*
X139450000Y-135645000D03*
X139950000Y-135645000D03*
X140450000Y-135645000D03*
X140950000Y-135645000D03*
X141450000Y-135645000D03*
X141950000Y-135645000D03*
X142450000Y-135645000D03*
D12*
X143900000Y-134195000D03*
X143900000Y-133695000D03*
X143900000Y-133195000D03*
X143900000Y-132695000D03*
X143900000Y-132195000D03*
X143900000Y-131695000D03*
X143900000Y-131195000D03*
X143900000Y-130695000D03*
X143900000Y-130195000D03*
X143900000Y-129695000D03*
X143900000Y-129195000D03*
X143900000Y-128695000D03*
%TD*%
D14*
%TO.C,Y1*%
X137565000Y-116205000D03*
X139065000Y-116205000D03*
X140565000Y-116205000D03*
%TD*%
%TO.C,R13*%
G36*
G01*
X139735000Y-121735001D02*
X139735000Y-120834999D01*
G75*
G02*
X139984999Y-120585000I249999J0D01*
G01*
X140685001Y-120585000D01*
G75*
G02*
X140935000Y-120834999I0J-249999D01*
G01*
X140935000Y-121735001D01*
G75*
G02*
X140685001Y-121985000I-249999J0D01*
G01*
X139984999Y-121985000D01*
G75*
G02*
X139735000Y-121735001I0J249999D01*
G01*
G37*
G36*
G01*
X137735000Y-121735001D02*
X137735000Y-120834999D01*
G75*
G02*
X137984999Y-120585000I249999J0D01*
G01*
X138685001Y-120585000D01*
G75*
G02*
X138935000Y-120834999I0J-249999D01*
G01*
X138935000Y-121735001D01*
G75*
G02*
X138685001Y-121985000I-249999J0D01*
G01*
X137984999Y-121985000D01*
G75*
G02*
X137735000Y-121735001I0J249999D01*
G01*
G37*
%TD*%
D15*
%TO.C,J5*%
X161290000Y-153670000D03*
X161290000Y-151130000D03*
X158750000Y-153670000D03*
X158750000Y-151130000D03*
X156210000Y-153670000D03*
X156210000Y-151130000D03*
X153670000Y-153670000D03*
X153670000Y-151130000D03*
X151130000Y-153670000D03*
X151130000Y-151130000D03*
X148590000Y-153670000D03*
X148590000Y-151130000D03*
X146050000Y-153670000D03*
X146050000Y-151130000D03*
X143510000Y-153670000D03*
X143510000Y-151130000D03*
X140970000Y-153670000D03*
X140970000Y-151130000D03*
X138430000Y-153670000D03*
X138430000Y-151130000D03*
X135890000Y-153670000D03*
X135890000Y-151130000D03*
X133350000Y-153670000D03*
X133350000Y-151130000D03*
X130810000Y-153670000D03*
X130810000Y-151130000D03*
X128270000Y-153670000D03*
X128270000Y-151130000D03*
X125730000Y-153670000D03*
X125730000Y-151130000D03*
X123190000Y-153670000D03*
X123190000Y-151130000D03*
X120650000Y-153670000D03*
X120650000Y-151130000D03*
X118110000Y-153670000D03*
X118110000Y-151130000D03*
X115570000Y-153670000D03*
X115570000Y-151130000D03*
X113030000Y-153670000D03*
D16*
X113030000Y-151130000D03*
%TD*%
%TO.C,JP5*%
G36*
G01*
X132753100Y-142875000D02*
X132753100Y-144145000D01*
G75*
G02*
X132651500Y-144246600I-101600J0D01*
G01*
X132016500Y-144246600D01*
G75*
G02*
X131914900Y-144145000I0J101600D01*
G01*
X131914900Y-142875000D01*
G75*
G02*
X132016500Y-142773400I101600J0D01*
G01*
X132651500Y-142773400D01*
G75*
G02*
X132753100Y-142875000I0J-101600D01*
G01*
G37*
G36*
G01*
X133769100Y-142875000D02*
X133769100Y-144145000D01*
G75*
G02*
X133667500Y-144246600I-101600J0D01*
G01*
X133032500Y-144246600D01*
G75*
G02*
X132930900Y-144145000I0J101600D01*
G01*
X132930900Y-142875000D01*
G75*
G02*
X133032500Y-142773400I101600J0D01*
G01*
X133667500Y-142773400D01*
G75*
G02*
X133769100Y-142875000I0J-101600D01*
G01*
G37*
G36*
G01*
X134785100Y-142875000D02*
X134785100Y-144145000D01*
G75*
G02*
X134683500Y-144246600I-101600J0D01*
G01*
X134048500Y-144246600D01*
G75*
G02*
X133946900Y-144145000I0J101600D01*
G01*
X133946900Y-142875000D01*
G75*
G02*
X134048500Y-142773400I101600J0D01*
G01*
X134683500Y-142773400D01*
G75*
G02*
X134785100Y-142875000I0J-101600D01*
G01*
G37*
%TD*%
%TO.C,JP4*%
G36*
G01*
X133946900Y-146685000D02*
X133946900Y-145415000D01*
G75*
G02*
X134048500Y-145313400I101600J0D01*
G01*
X134683500Y-145313400D01*
G75*
G02*
X134785100Y-145415000I0J-101600D01*
G01*
X134785100Y-146685000D01*
G75*
G02*
X134683500Y-146786600I-101600J0D01*
G01*
X134048500Y-146786600D01*
G75*
G02*
X133946900Y-146685000I0J101600D01*
G01*
G37*
G36*
G01*
X132930900Y-146685000D02*
X132930900Y-145415000D01*
G75*
G02*
X133032500Y-145313400I101600J0D01*
G01*
X133667500Y-145313400D01*
G75*
G02*
X133769100Y-145415000I0J-101600D01*
G01*
X133769100Y-146685000D01*
G75*
G02*
X133667500Y-146786600I-101600J0D01*
G01*
X133032500Y-146786600D01*
G75*
G02*
X132930900Y-146685000I0J101600D01*
G01*
G37*
G36*
G01*
X131914900Y-146685000D02*
X131914900Y-145415000D01*
G75*
G02*
X132016500Y-145313400I101600J0D01*
G01*
X132651500Y-145313400D01*
G75*
G02*
X132753100Y-145415000I0J-101600D01*
G01*
X132753100Y-146685000D01*
G75*
G02*
X132651500Y-146786600I-101600J0D01*
G01*
X132016500Y-146786600D01*
G75*
G02*
X131914900Y-146685000I0J101600D01*
G01*
G37*
%TD*%
%TO.C,JP2*%
G36*
G01*
X140970000Y-143167100D02*
X139700000Y-143167100D01*
G75*
G02*
X139598400Y-143065500I0J101600D01*
G01*
X139598400Y-142430500D01*
G75*
G02*
X139700000Y-142328900I101600J0D01*
G01*
X140970000Y-142328900D01*
G75*
G02*
X141071600Y-142430500I0J-101600D01*
G01*
X141071600Y-143065500D01*
G75*
G02*
X140970000Y-143167100I-101600J0D01*
G01*
G37*
G36*
G01*
X140970000Y-144183100D02*
X139700000Y-144183100D01*
G75*
G02*
X139598400Y-144081500I0J101600D01*
G01*
X139598400Y-143446500D01*
G75*
G02*
X139700000Y-143344900I101600J0D01*
G01*
X140970000Y-143344900D01*
G75*
G02*
X141071600Y-143446500I0J-101600D01*
G01*
X141071600Y-144081500D01*
G75*
G02*
X140970000Y-144183100I-101600J0D01*
G01*
G37*
G36*
G01*
X140970000Y-145199100D02*
X139700000Y-145199100D01*
G75*
G02*
X139598400Y-145097500I0J101600D01*
G01*
X139598400Y-144462500D01*
G75*
G02*
X139700000Y-144360900I101600J0D01*
G01*
X140970000Y-144360900D01*
G75*
G02*
X141071600Y-144462500I0J-101600D01*
G01*
X141071600Y-145097500D01*
G75*
G02*
X140970000Y-145199100I-101600J0D01*
G01*
G37*
%TD*%
%TO.C,JP1*%
G36*
G01*
X144780000Y-144360900D02*
X146050000Y-144360900D01*
G75*
G02*
X146151600Y-144462500I0J-101600D01*
G01*
X146151600Y-145097500D01*
G75*
G02*
X146050000Y-145199100I-101600J0D01*
G01*
X144780000Y-145199100D01*
G75*
G02*
X144678400Y-145097500I0J101600D01*
G01*
X144678400Y-144462500D01*
G75*
G02*
X144780000Y-144360900I101600J0D01*
G01*
G37*
G36*
G01*
X144780000Y-143344900D02*
X146050000Y-143344900D01*
G75*
G02*
X146151600Y-143446500I0J-101600D01*
G01*
X146151600Y-144081500D01*
G75*
G02*
X146050000Y-144183100I-101600J0D01*
G01*
X144780000Y-144183100D01*
G75*
G02*
X144678400Y-144081500I0J101600D01*
G01*
X144678400Y-143446500D01*
G75*
G02*
X144780000Y-143344900I101600J0D01*
G01*
G37*
G36*
G01*
X144780000Y-142328900D02*
X146050000Y-142328900D01*
G75*
G02*
X146151600Y-142430500I0J-101600D01*
G01*
X146151600Y-143065500D01*
G75*
G02*
X146050000Y-143167100I-101600J0D01*
G01*
X144780000Y-143167100D01*
G75*
G02*
X144678400Y-143065500I0J101600D01*
G01*
X144678400Y-142430500D01*
G75*
G02*
X144780000Y-142328900I101600J0D01*
G01*
G37*
%TD*%
D17*
%TO.C,U2*%
X161250000Y-118280000D03*
X161250000Y-115740000D03*
X161250000Y-105580000D03*
X161250000Y-113200000D03*
X161250000Y-110660000D03*
X161250000Y-103040000D03*
D18*
X161250000Y-100500000D03*
%TD*%
%TO.C,R12*%
G36*
G01*
X166650000Y-135200001D02*
X166650000Y-134299999D01*
G75*
G02*
X166899999Y-134050000I249999J0D01*
G01*
X167600001Y-134050000D01*
G75*
G02*
X167850000Y-134299999I0J-249999D01*
G01*
X167850000Y-135200001D01*
G75*
G02*
X167600001Y-135450000I-249999J0D01*
G01*
X166899999Y-135450000D01*
G75*
G02*
X166650000Y-135200001I0J249999D01*
G01*
G37*
G36*
G01*
X164650000Y-135200001D02*
X164650000Y-134299999D01*
G75*
G02*
X164899999Y-134050000I249999J0D01*
G01*
X165600001Y-134050000D01*
G75*
G02*
X165850000Y-134299999I0J-249999D01*
G01*
X165850000Y-135200001D01*
G75*
G02*
X165600001Y-135450000I-249999J0D01*
G01*
X164899999Y-135450000D01*
G75*
G02*
X164650000Y-135200001I0J249999D01*
G01*
G37*
%TD*%
%TO.C,R11*%
G36*
G01*
X157400000Y-126200001D02*
X157400000Y-125299999D01*
G75*
G02*
X157649999Y-125050000I249999J0D01*
G01*
X158350001Y-125050000D01*
G75*
G02*
X158600000Y-125299999I0J-249999D01*
G01*
X158600000Y-126200001D01*
G75*
G02*
X158350001Y-126450000I-249999J0D01*
G01*
X157649999Y-126450000D01*
G75*
G02*
X157400000Y-126200001I0J249999D01*
G01*
G37*
G36*
G01*
X155400000Y-126200001D02*
X155400000Y-125299999D01*
G75*
G02*
X155649999Y-125050000I249999J0D01*
G01*
X156350001Y-125050000D01*
G75*
G02*
X156600000Y-125299999I0J-249999D01*
G01*
X156600000Y-126200001D01*
G75*
G02*
X156350001Y-126450000I-249999J0D01*
G01*
X155649999Y-126450000D01*
G75*
G02*
X155400000Y-126200001I0J249999D01*
G01*
G37*
%TD*%
%TO.C,R5*%
G36*
G01*
X146799999Y-130650000D02*
X147700001Y-130650000D01*
G75*
G02*
X147950000Y-130899999I0J-249999D01*
G01*
X147950000Y-131600001D01*
G75*
G02*
X147700001Y-131850000I-249999J0D01*
G01*
X146799999Y-131850000D01*
G75*
G02*
X146550000Y-131600001I0J249999D01*
G01*
X146550000Y-130899999D01*
G75*
G02*
X146799999Y-130650000I249999J0D01*
G01*
G37*
G36*
G01*
X146799999Y-128650000D02*
X147700001Y-128650000D01*
G75*
G02*
X147950000Y-128899999I0J-249999D01*
G01*
X147950000Y-129600001D01*
G75*
G02*
X147700001Y-129850000I-249999J0D01*
G01*
X146799999Y-129850000D01*
G75*
G02*
X146550000Y-129600001I0J249999D01*
G01*
X146550000Y-128899999D01*
G75*
G02*
X146799999Y-128650000I249999J0D01*
G01*
G37*
%TD*%
%TO.C,R4*%
G36*
G01*
X131850000Y-124049999D02*
X131850000Y-124950001D01*
G75*
G02*
X131600001Y-125200000I-249999J0D01*
G01*
X130899999Y-125200000D01*
G75*
G02*
X130650000Y-124950001I0J249999D01*
G01*
X130650000Y-124049999D01*
G75*
G02*
X130899999Y-123800000I249999J0D01*
G01*
X131600001Y-123800000D01*
G75*
G02*
X131850000Y-124049999I0J-249999D01*
G01*
G37*
G36*
G01*
X133850000Y-124049999D02*
X133850000Y-124950001D01*
G75*
G02*
X133600001Y-125200000I-249999J0D01*
G01*
X132899999Y-125200000D01*
G75*
G02*
X132650000Y-124950001I0J249999D01*
G01*
X132650000Y-124049999D01*
G75*
G02*
X132899999Y-123800000I249999J0D01*
G01*
X133600001Y-123800000D01*
G75*
G02*
X133850000Y-124049999I0J-249999D01*
G01*
G37*
%TD*%
%TO.C,R3*%
G36*
G01*
X131100000Y-128799999D02*
X131100000Y-129700001D01*
G75*
G02*
X130850001Y-129950000I-249999J0D01*
G01*
X130149999Y-129950000D01*
G75*
G02*
X129900000Y-129700001I0J249999D01*
G01*
X129900000Y-128799999D01*
G75*
G02*
X130149999Y-128550000I249999J0D01*
G01*
X130850001Y-128550000D01*
G75*
G02*
X131100000Y-128799999I0J-249999D01*
G01*
G37*
G36*
G01*
X133100000Y-128799999D02*
X133100000Y-129700001D01*
G75*
G02*
X132850001Y-129950000I-249999J0D01*
G01*
X132149999Y-129950000D01*
G75*
G02*
X131900000Y-129700001I0J249999D01*
G01*
X131900000Y-128799999D01*
G75*
G02*
X132149999Y-128550000I249999J0D01*
G01*
X132850001Y-128550000D01*
G75*
G02*
X133100000Y-128799999I0J-249999D01*
G01*
G37*
%TD*%
%TO.C,R2*%
G36*
G01*
X129100000Y-132799999D02*
X129100000Y-133700001D01*
G75*
G02*
X128850001Y-133950000I-249999J0D01*
G01*
X128149999Y-133950000D01*
G75*
G02*
X127900000Y-133700001I0J249999D01*
G01*
X127900000Y-132799999D01*
G75*
G02*
X128149999Y-132550000I249999J0D01*
G01*
X128850001Y-132550000D01*
G75*
G02*
X129100000Y-132799999I0J-249999D01*
G01*
G37*
G36*
G01*
X131100000Y-132799999D02*
X131100000Y-133700001D01*
G75*
G02*
X130850001Y-133950000I-249999J0D01*
G01*
X130149999Y-133950000D01*
G75*
G02*
X129900000Y-133700001I0J249999D01*
G01*
X129900000Y-132799999D01*
G75*
G02*
X130149999Y-132550000I249999J0D01*
G01*
X130850001Y-132550000D01*
G75*
G02*
X131100000Y-132799999I0J-249999D01*
G01*
G37*
%TD*%
%TO.C,R1*%
G36*
G01*
X129100000Y-130879600D02*
X129100000Y-131780400D01*
G75*
G02*
X128850400Y-132030000I-249600J0D01*
G01*
X128149600Y-132030000D01*
G75*
G02*
X127900000Y-131780400I0J249600D01*
G01*
X127900000Y-130879600D01*
G75*
G02*
X128149600Y-130630000I249600J0D01*
G01*
X128850400Y-130630000D01*
G75*
G02*
X129100000Y-130879600I0J-249600D01*
G01*
G37*
G36*
G01*
X131100000Y-130879999D02*
X131100000Y-131780001D01*
G75*
G02*
X130850001Y-132030000I-249999J0D01*
G01*
X130149999Y-132030000D01*
G75*
G02*
X129900000Y-131780001I0J249999D01*
G01*
X129900000Y-130879999D01*
G75*
G02*
X130149999Y-130630000I249999J0D01*
G01*
X130850001Y-130630000D01*
G75*
G02*
X131100000Y-130879999I0J-249999D01*
G01*
G37*
%TD*%
D15*
%TO.C,J13*%
X161000000Y-140460000D03*
D16*
X161000000Y-143000000D03*
%TD*%
D19*
%TO.C,J12*%
X148350000Y-73960000D03*
X148350000Y-79040000D03*
%TD*%
%TO.C,J11*%
X167400000Y-73960000D03*
X167400000Y-79040000D03*
%TD*%
D15*
%TO.C,J10*%
X162460000Y-128000000D03*
X165000000Y-128000000D03*
D16*
X167540000Y-128000000D03*
%TD*%
D15*
%TO.C,J9*%
X120650000Y-164540000D03*
X120650000Y-162000000D03*
X123190000Y-164540000D03*
X123190000Y-162000000D03*
X125730000Y-164540000D03*
X125730000Y-162000000D03*
X128270000Y-164540000D03*
X128270000Y-162000000D03*
X130810000Y-164540000D03*
X130810000Y-162000000D03*
X133350000Y-164540000D03*
X133350000Y-162000000D03*
X135890000Y-164540000D03*
X135890000Y-162000000D03*
X138430000Y-164540000D03*
X138430000Y-162000000D03*
X140970000Y-164540000D03*
X140970000Y-162000000D03*
X143510000Y-164540000D03*
X143510000Y-162000000D03*
X146050000Y-164540000D03*
X146050000Y-162000000D03*
X148590000Y-164540000D03*
X148590000Y-162000000D03*
X151130000Y-164540000D03*
X151130000Y-162000000D03*
X153670000Y-164540000D03*
X153670000Y-162000000D03*
X156210000Y-164540000D03*
X156210000Y-162000000D03*
X158750000Y-164540000D03*
X158750000Y-162000000D03*
X161290000Y-164540000D03*
X161290000Y-162000000D03*
X163830000Y-164540000D03*
D16*
X163830000Y-162000000D03*
%TD*%
D15*
%TO.C,J6*%
X167000000Y-140470000D03*
X167000000Y-143010000D03*
D16*
X167000000Y-145550000D03*
%TD*%
D20*
%TO.C,J4*%
X114885000Y-113900000D03*
X114885000Y-113250000D03*
X114885000Y-112600000D03*
X114885000Y-111950000D03*
X114885000Y-111300000D03*
D21*
X115235000Y-116200000D03*
X111685000Y-116200000D03*
X115235000Y-109000000D03*
X111685000Y-109000000D03*
D22*
X110685000Y-113750000D03*
X110685000Y-111450000D03*
%TD*%
D19*
%TO.C,J3*%
X110250000Y-73960000D03*
X110250000Y-79040000D03*
%TD*%
D15*
%TO.C,J2*%
X135000000Y-92330000D03*
X135000000Y-89790000D03*
D16*
X135000000Y-87250000D03*
%TD*%
D19*
%TO.C,J1*%
X129300000Y-73960000D03*
X129300000Y-79040000D03*
%TD*%
D23*
%TO.C,FB2*%
X119750000Y-109300000D03*
X119750000Y-107200000D03*
%TD*%
%TO.C,FB1*%
X120250000Y-116300000D03*
X120250000Y-114200000D03*
%TD*%
%TO.C,D3*%
X161150000Y-134750000D03*
X163250000Y-134750000D03*
%TD*%
%TO.C,D2*%
X151450000Y-125750000D03*
X153550000Y-125750000D03*
%TD*%
%TO.C,D1*%
X143650000Y-84750000D03*
X145750000Y-84750000D03*
%TD*%
%TO.C,C9*%
G36*
G01*
X152150001Y-100587500D02*
X150849999Y-100587500D01*
G75*
G02*
X150600000Y-100337501I0J249999D01*
G01*
X150600000Y-99512499D01*
G75*
G02*
X150849999Y-99262500I249999J0D01*
G01*
X152150001Y-99262500D01*
G75*
G02*
X152400000Y-99512499I0J-249999D01*
G01*
X152400000Y-100337501D01*
G75*
G02*
X152150001Y-100587500I-249999J0D01*
G01*
G37*
G36*
G01*
X152150001Y-103712500D02*
X150849999Y-103712500D01*
G75*
G02*
X150600000Y-103462501I0J249999D01*
G01*
X150600000Y-102637499D01*
G75*
G02*
X150849999Y-102387500I249999J0D01*
G01*
X152150001Y-102387500D01*
G75*
G02*
X152400000Y-102637499I0J-249999D01*
G01*
X152400000Y-103462501D01*
G75*
G02*
X152150001Y-103712500I-249999J0D01*
G01*
G37*
%TD*%
%TO.C,C8*%
G36*
G01*
X137050001Y-100587500D02*
X135749999Y-100587500D01*
G75*
G02*
X135500000Y-100337501I0J249999D01*
G01*
X135500000Y-99512499D01*
G75*
G02*
X135749999Y-99262500I249999J0D01*
G01*
X137050001Y-99262500D01*
G75*
G02*
X137300000Y-99512499I0J-249999D01*
G01*
X137300000Y-100337501D01*
G75*
G02*
X137050001Y-100587500I-249999J0D01*
G01*
G37*
G36*
G01*
X137050001Y-103712500D02*
X135749999Y-103712500D01*
G75*
G02*
X135500000Y-103462501I0J249999D01*
G01*
X135500000Y-102637499D01*
G75*
G02*
X135749999Y-102387500I249999J0D01*
G01*
X137050001Y-102387500D01*
G75*
G02*
X137300000Y-102637499I0J-249999D01*
G01*
X137300000Y-103462501D01*
G75*
G02*
X137050001Y-103712500I-249999J0D01*
G01*
G37*
%TD*%
%TO.C,C7*%
G36*
G01*
X153324999Y-133212500D02*
X154175001Y-133212500D01*
G75*
G02*
X154425000Y-133462499I0J-249999D01*
G01*
X154425000Y-134537501D01*
G75*
G02*
X154175001Y-134787500I-249999J0D01*
G01*
X153324999Y-134787500D01*
G75*
G02*
X153075000Y-134537501I0J249999D01*
G01*
X153075000Y-133462499D01*
G75*
G02*
X153324999Y-133212500I249999J0D01*
G01*
G37*
G36*
G01*
X153324999Y-130337500D02*
X154175001Y-130337500D01*
G75*
G02*
X154425000Y-130587499I0J-249999D01*
G01*
X154425000Y-131662501D01*
G75*
G02*
X154175001Y-131912500I-249999J0D01*
G01*
X153324999Y-131912500D01*
G75*
G02*
X153075000Y-131662501I0J249999D01*
G01*
X153075000Y-130587499D01*
G75*
G02*
X153324999Y-130337500I249999J0D01*
G01*
G37*
%TD*%
%TO.C,C6*%
G36*
G01*
X151025000Y-132700000D02*
X151975000Y-132700000D01*
G75*
G02*
X152225000Y-132950000I0J-250000D01*
G01*
X152225000Y-133625000D01*
G75*
G02*
X151975000Y-133875000I-250000J0D01*
G01*
X151025000Y-133875000D01*
G75*
G02*
X150775000Y-133625000I0J250000D01*
G01*
X150775000Y-132950000D01*
G75*
G02*
X151025000Y-132700000I250000J0D01*
G01*
G37*
G36*
G01*
X151025000Y-130625000D02*
X151975000Y-130625000D01*
G75*
G02*
X152225000Y-130875000I0J-250000D01*
G01*
X152225000Y-131550000D01*
G75*
G02*
X151975000Y-131800000I-250000J0D01*
G01*
X151025000Y-131800000D01*
G75*
G02*
X150775000Y-131550000I0J250000D01*
G01*
X150775000Y-130875000D01*
G75*
G02*
X151025000Y-130625000I250000J0D01*
G01*
G37*
%TD*%
%TO.C,C5*%
G36*
G01*
X149025000Y-132700000D02*
X149975000Y-132700000D01*
G75*
G02*
X150225000Y-132950000I0J-250000D01*
G01*
X150225000Y-133625000D01*
G75*
G02*
X149975000Y-133875000I-250000J0D01*
G01*
X149025000Y-133875000D01*
G75*
G02*
X148775000Y-133625000I0J250000D01*
G01*
X148775000Y-132950000D01*
G75*
G02*
X149025000Y-132700000I250000J0D01*
G01*
G37*
G36*
G01*
X149025000Y-130625000D02*
X149975000Y-130625000D01*
G75*
G02*
X150225000Y-130875000I0J-250000D01*
G01*
X150225000Y-131550000D01*
G75*
G02*
X149975000Y-131800000I-250000J0D01*
G01*
X149025000Y-131800000D01*
G75*
G02*
X148775000Y-131550000I0J250000D01*
G01*
X148775000Y-130875000D01*
G75*
G02*
X149025000Y-130625000I250000J0D01*
G01*
G37*
%TD*%
%TO.C,C3*%
G36*
G01*
X136225000Y-121300000D02*
X135275000Y-121300000D01*
G75*
G02*
X135025000Y-121050000I0J250000D01*
G01*
X135025000Y-120375000D01*
G75*
G02*
X135275000Y-120125000I250000J0D01*
G01*
X136225000Y-120125000D01*
G75*
G02*
X136475000Y-120375000I0J-250000D01*
G01*
X136475000Y-121050000D01*
G75*
G02*
X136225000Y-121300000I-250000J0D01*
G01*
G37*
G36*
G01*
X136225000Y-123375000D02*
X135275000Y-123375000D01*
G75*
G02*
X135025000Y-123125000I0J250000D01*
G01*
X135025000Y-122450000D01*
G75*
G02*
X135275000Y-122200000I250000J0D01*
G01*
X136225000Y-122200000D01*
G75*
G02*
X136475000Y-122450000I0J-250000D01*
G01*
X136475000Y-123125000D01*
G75*
G02*
X136225000Y-123375000I-250000J0D01*
G01*
G37*
%TD*%
M02*
