%TF.GenerationSoftware,KiCad,Pcbnew,(5.1.7)-1*%
%TF.CreationDate,2020-10-18T12:33:11-05:00*%
%TF.ProjectId,Programmer Board,50726f67-7261-46d6-9d65-7220426f6172,A*%
%TF.SameCoordinates,Original*%
%TF.FileFunction,Legend,Bot*%
%TF.FilePolarity,Positive*%
%FSLAX46Y46*%
G04 Gerber Fmt 4.6, Leading zero omitted, Abs format (unit mm)*
G04 Created by KiCad (PCBNEW (5.1.7)-1) date 2020-10-18 12:33:11*
%MOMM*%
%LPD*%
G01*
G04 APERTURE LIST*
%ADD10C,0.120000*%
%ADD11C,0.150000*%
G04 APERTURE END LIST*
D10*
%TO.C,J5*%
X111700000Y-149800000D02*
X111700000Y-151130000D01*
X113030000Y-149800000D02*
X111700000Y-149800000D01*
X111700000Y-152400000D02*
X111700000Y-155000000D01*
X114300000Y-152400000D02*
X111700000Y-152400000D01*
X114300000Y-149800000D02*
X114300000Y-152400000D01*
X111700000Y-155000000D02*
X162620000Y-155000000D01*
X114300000Y-149800000D02*
X162620000Y-149800000D01*
X162620000Y-149800000D02*
X162620000Y-155000000D01*
%TO.C,U3*%
X142275000Y-89045000D02*
X142275000Y-93655000D01*
X150225000Y-89045000D02*
X142275000Y-89045000D01*
X150225000Y-94455000D02*
X150225000Y-89045000D01*
X143075000Y-94455000D02*
X150225000Y-94455000D01*
X142275000Y-93655000D02*
X143075000Y-94455000D01*
%TO.C,R10*%
X157272936Y-91985000D02*
X157727064Y-91985000D01*
X157272936Y-90515000D02*
X157727064Y-90515000D01*
%TO.C,R9*%
X157272936Y-89985000D02*
X157727064Y-89985000D01*
X157272936Y-88515000D02*
X157727064Y-88515000D01*
%TO.C,R8*%
X157272936Y-93995999D02*
X157727064Y-93995999D01*
X157272936Y-92525999D02*
X157727064Y-92525999D01*
%TO.C,R7*%
X155272936Y-95985000D02*
X155727064Y-95985000D01*
X155272936Y-94515000D02*
X155727064Y-94515000D01*
%TO.C,R6*%
X138865000Y-90622936D02*
X138865000Y-91077064D01*
X140335000Y-90622936D02*
X140335000Y-91077064D01*
%TO.C,C10*%
X138865000Y-94688748D02*
X138865000Y-95211252D01*
X140335000Y-94688748D02*
X140335000Y-95211252D01*
%TO.C,C4*%
X131015000Y-131988748D02*
X131015000Y-132511252D01*
X132485000Y-131988748D02*
X132485000Y-132511252D01*
%TO.C,J5*%
D11*
X110152380Y-152066666D02*
X110866666Y-152066666D01*
X111009523Y-152019047D01*
X111104761Y-151923809D01*
X111152380Y-151780952D01*
X111152380Y-151685714D01*
X110152380Y-153019047D02*
X110152380Y-152542857D01*
X110628571Y-152495238D01*
X110580952Y-152542857D01*
X110533333Y-152638095D01*
X110533333Y-152876190D01*
X110580952Y-152971428D01*
X110628571Y-153019047D01*
X110723809Y-153066666D01*
X110961904Y-153066666D01*
X111057142Y-153019047D01*
X111104761Y-152971428D01*
X111152380Y-152876190D01*
X111152380Y-152638095D01*
X111104761Y-152542857D01*
X111057142Y-152495238D01*
%TO.C,U3*%
X147011904Y-94907380D02*
X147011904Y-95716904D01*
X146964285Y-95812142D01*
X146916666Y-95859761D01*
X146821428Y-95907380D01*
X146630952Y-95907380D01*
X146535714Y-95859761D01*
X146488095Y-95812142D01*
X146440476Y-95716904D01*
X146440476Y-94907380D01*
X146059523Y-94907380D02*
X145440476Y-94907380D01*
X145773809Y-95288333D01*
X145630952Y-95288333D01*
X145535714Y-95335952D01*
X145488095Y-95383571D01*
X145440476Y-95478809D01*
X145440476Y-95716904D01*
X145488095Y-95812142D01*
X145535714Y-95859761D01*
X145630952Y-95907380D01*
X145916666Y-95907380D01*
X146011904Y-95859761D01*
X146059523Y-95812142D01*
%TO.C,R10*%
X161542857Y-91702380D02*
X161876190Y-91226190D01*
X162114285Y-91702380D02*
X162114285Y-90702380D01*
X161733333Y-90702380D01*
X161638095Y-90750000D01*
X161590476Y-90797619D01*
X161542857Y-90892857D01*
X161542857Y-91035714D01*
X161590476Y-91130952D01*
X161638095Y-91178571D01*
X161733333Y-91226190D01*
X162114285Y-91226190D01*
X160590476Y-91702380D02*
X161161904Y-91702380D01*
X160876190Y-91702380D02*
X160876190Y-90702380D01*
X160971428Y-90845238D01*
X161066666Y-90940476D01*
X161161904Y-90988095D01*
X159971428Y-90702380D02*
X159876190Y-90702380D01*
X159780952Y-90750000D01*
X159733333Y-90797619D01*
X159685714Y-90892857D01*
X159638095Y-91083333D01*
X159638095Y-91321428D01*
X159685714Y-91511904D01*
X159733333Y-91607142D01*
X159780952Y-91654761D01*
X159876190Y-91702380D01*
X159971428Y-91702380D01*
X160066666Y-91654761D01*
X160114285Y-91607142D01*
X160161904Y-91511904D01*
X160209523Y-91321428D01*
X160209523Y-91083333D01*
X160161904Y-90892857D01*
X160114285Y-90797619D01*
X160066666Y-90750000D01*
X159971428Y-90702380D01*
%TO.C,R9*%
X161066666Y-89702380D02*
X161400000Y-89226190D01*
X161638095Y-89702380D02*
X161638095Y-88702380D01*
X161257142Y-88702380D01*
X161161904Y-88750000D01*
X161114285Y-88797619D01*
X161066666Y-88892857D01*
X161066666Y-89035714D01*
X161114285Y-89130952D01*
X161161904Y-89178571D01*
X161257142Y-89226190D01*
X161638095Y-89226190D01*
X160590476Y-89702380D02*
X160400000Y-89702380D01*
X160304761Y-89654761D01*
X160257142Y-89607142D01*
X160161904Y-89464285D01*
X160114285Y-89273809D01*
X160114285Y-88892857D01*
X160161904Y-88797619D01*
X160209523Y-88750000D01*
X160304761Y-88702380D01*
X160495238Y-88702380D01*
X160590476Y-88750000D01*
X160638095Y-88797619D01*
X160685714Y-88892857D01*
X160685714Y-89130952D01*
X160638095Y-89226190D01*
X160590476Y-89273809D01*
X160495238Y-89321428D01*
X160304761Y-89321428D01*
X160209523Y-89273809D01*
X160161904Y-89226190D01*
X160114285Y-89130952D01*
%TO.C,R8*%
X161066666Y-93702380D02*
X161400000Y-93226190D01*
X161638095Y-93702380D02*
X161638095Y-92702380D01*
X161257142Y-92702380D01*
X161161904Y-92750000D01*
X161114285Y-92797619D01*
X161066666Y-92892857D01*
X161066666Y-93035714D01*
X161114285Y-93130952D01*
X161161904Y-93178571D01*
X161257142Y-93226190D01*
X161638095Y-93226190D01*
X160495238Y-93130952D02*
X160590476Y-93083333D01*
X160638095Y-93035714D01*
X160685714Y-92940476D01*
X160685714Y-92892857D01*
X160638095Y-92797619D01*
X160590476Y-92750000D01*
X160495238Y-92702380D01*
X160304761Y-92702380D01*
X160209523Y-92750000D01*
X160161904Y-92797619D01*
X160114285Y-92892857D01*
X160114285Y-92940476D01*
X160161904Y-93035714D01*
X160209523Y-93083333D01*
X160304761Y-93130952D01*
X160495238Y-93130952D01*
X160590476Y-93178571D01*
X160638095Y-93226190D01*
X160685714Y-93321428D01*
X160685714Y-93511904D01*
X160638095Y-93607142D01*
X160590476Y-93654761D01*
X160495238Y-93702380D01*
X160304761Y-93702380D01*
X160209523Y-93654761D01*
X160161904Y-93607142D01*
X160114285Y-93511904D01*
X160114285Y-93321428D01*
X160161904Y-93226190D01*
X160209523Y-93178571D01*
X160304761Y-93130952D01*
%TO.C,R7*%
X158766666Y-95702380D02*
X159100000Y-95226190D01*
X159338095Y-95702380D02*
X159338095Y-94702380D01*
X158957142Y-94702380D01*
X158861904Y-94750000D01*
X158814285Y-94797619D01*
X158766666Y-94892857D01*
X158766666Y-95035714D01*
X158814285Y-95130952D01*
X158861904Y-95178571D01*
X158957142Y-95226190D01*
X159338095Y-95226190D01*
X158433333Y-94702380D02*
X157766666Y-94702380D01*
X158195238Y-95702380D01*
%TO.C,R6*%
X138402380Y-90683333D02*
X137926190Y-90350000D01*
X138402380Y-90111904D02*
X137402380Y-90111904D01*
X137402380Y-90492857D01*
X137450000Y-90588095D01*
X137497619Y-90635714D01*
X137592857Y-90683333D01*
X137735714Y-90683333D01*
X137830952Y-90635714D01*
X137878571Y-90588095D01*
X137926190Y-90492857D01*
X137926190Y-90111904D01*
X137402380Y-91540476D02*
X137402380Y-91350000D01*
X137450000Y-91254761D01*
X137497619Y-91207142D01*
X137640476Y-91111904D01*
X137830952Y-91064285D01*
X138211904Y-91064285D01*
X138307142Y-91111904D01*
X138354761Y-91159523D01*
X138402380Y-91254761D01*
X138402380Y-91445238D01*
X138354761Y-91540476D01*
X138307142Y-91588095D01*
X138211904Y-91635714D01*
X137973809Y-91635714D01*
X137878571Y-91588095D01*
X137830952Y-91540476D01*
X137783333Y-91445238D01*
X137783333Y-91254761D01*
X137830952Y-91159523D01*
X137878571Y-91111904D01*
X137973809Y-91064285D01*
%TO.C,C10*%
X138277142Y-94307142D02*
X138324761Y-94259523D01*
X138372380Y-94116666D01*
X138372380Y-94021428D01*
X138324761Y-93878571D01*
X138229523Y-93783333D01*
X138134285Y-93735714D01*
X137943809Y-93688095D01*
X137800952Y-93688095D01*
X137610476Y-93735714D01*
X137515238Y-93783333D01*
X137420000Y-93878571D01*
X137372380Y-94021428D01*
X137372380Y-94116666D01*
X137420000Y-94259523D01*
X137467619Y-94307142D01*
X138372380Y-95259523D02*
X138372380Y-94688095D01*
X138372380Y-94973809D02*
X137372380Y-94973809D01*
X137515238Y-94878571D01*
X137610476Y-94783333D01*
X137658095Y-94688095D01*
X137372380Y-95878571D02*
X137372380Y-95973809D01*
X137420000Y-96069047D01*
X137467619Y-96116666D01*
X137562857Y-96164285D01*
X137753333Y-96211904D01*
X137991428Y-96211904D01*
X138181904Y-96164285D01*
X138277142Y-96116666D01*
X138324761Y-96069047D01*
X138372380Y-95973809D01*
X138372380Y-95878571D01*
X138324761Y-95783333D01*
X138277142Y-95735714D01*
X138181904Y-95688095D01*
X137991428Y-95640476D01*
X137753333Y-95640476D01*
X137562857Y-95688095D01*
X137467619Y-95735714D01*
X137420000Y-95783333D01*
X137372380Y-95878571D01*
%TO.C,C4*%
X130427142Y-132083333D02*
X130474761Y-132035714D01*
X130522380Y-131892857D01*
X130522380Y-131797619D01*
X130474761Y-131654761D01*
X130379523Y-131559523D01*
X130284285Y-131511904D01*
X130093809Y-131464285D01*
X129950952Y-131464285D01*
X129760476Y-131511904D01*
X129665238Y-131559523D01*
X129570000Y-131654761D01*
X129522380Y-131797619D01*
X129522380Y-131892857D01*
X129570000Y-132035714D01*
X129617619Y-132083333D01*
X129855714Y-132940476D02*
X130522380Y-132940476D01*
X129474761Y-132702380D02*
X130189047Y-132464285D01*
X130189047Y-133083333D01*
%TD*%
M02*
