M48
; DRILL file {KiCad (5.1.7)-1} date 10/20/20 14:15:55
; FORMAT={-:-/ absolute / inch / decimal}
; #@! TF.CreationDate,2020-10-20T14:15:55-05:00
; #@! TF.GenerationSoftware,Kicad,Pcbnew,(5.1.7)-1
FMAT,2
INCH
T1C0.0157
T2C0.0236
T3C0.0394
T4C0.0433
T5C0.0472
T6C0.0520
T7C0.1252
%
G90
G05
T1
X4.802Y-4.4969
X5.0866Y-4.8917
X5.1476Y-5.6594
X5.2657Y-5.1575
X5.2717Y-5.2533
X5.3346Y-4.6831
X5.3543Y-5.6496
X5.3661Y-3.872
X5.3864Y-4.9508
X5.4419Y-4.9547
X5.4764Y-4.4902
X5.4882Y-5.4075
X5.5315Y-4.8917
X5.561Y-4.9213
X5.57Y-5.405
X5.6004Y-4.9241
X5.6535Y-3.4547
X5.6654Y-5.3287
X5.7262Y-5.1061
X5.7561Y-3.5372
X5.7758Y-3.4978
X5.7955Y-3.5372
X5.805Y-5.63
X5.8858Y-5.3209
X5.9449Y-5.5906
X5.9646Y-3.8799
X5.9646Y-5.3209
X6.0531Y-5.3386
X6.2362Y-3.372
X6.2913Y-4.9508
X6.5846Y-5.2323
X6.9488Y-6.0433
T3
X6.3961Y-5.0394
X6.4961Y-5.0394
X6.5961Y-5.0394
X6.5748Y-5.5303
X6.5748Y-5.6303
X6.5748Y-5.7303
X5.315Y-3.435
X5.315Y-3.535
X5.315Y-3.635
X6.9882Y-3.6516
X6.9882Y-3.7516
X6.9882Y-3.8516
X6.9882Y-3.9516
X6.9882Y-4.0516
X6.9882Y-4.1516
X6.9882Y-4.2516
X6.9882Y-4.3516
X6.9882Y-4.4516
X6.9882Y-4.5516
X6.9882Y-4.6516
X6.9882Y-4.7516
X6.9882Y-4.8516
X6.9882Y-4.9516
X6.9882Y-5.0516
X6.9882Y-5.1516
X6.9882Y-5.2516
X6.9882Y-5.3516
X7.0882Y-3.6516
X7.0882Y-3.7516
X7.0882Y-3.8516
X7.0882Y-3.9516
X7.0882Y-4.0516
X7.0882Y-4.1516
X7.0882Y-4.2516
X7.0882Y-4.3516
X7.0882Y-4.4516
X7.0882Y-4.5516
X7.0882Y-4.6516
X7.0882Y-4.7516
X7.0882Y-4.8516
X7.0882Y-4.9516
X7.0882Y-5.0516
X7.0882Y-5.1516
X7.0882Y-5.2516
X7.0882Y-5.3516
X6.3484Y-3.9567
X6.3484Y-4.0567
X6.3484Y-4.1567
X6.3484Y-4.3567
X6.3484Y-4.4567
X6.3484Y-4.5567
X6.3484Y-4.6567
X6.3386Y-5.5299
X6.3386Y-5.6299
T4
X4.8571Y-6.1524
X4.8571Y-6.3083
X4.9571Y-6.1524
X4.9571Y-6.3083
X5.0571Y-6.1524
X5.0571Y-6.3083
X5.1571Y-6.1524
X5.1571Y-6.3083
X5.2571Y-6.1524
X5.2571Y-6.3083
X5.3571Y-6.1524
X5.3571Y-6.3083
X5.4571Y-6.1524
X5.4571Y-6.3083
X5.5571Y-6.1524
X5.5571Y-6.3083
X5.6571Y-6.1524
X5.6571Y-6.3083
X5.7571Y-6.1524
X5.7571Y-6.3083
X5.8571Y-6.1524
X5.8571Y-6.3083
X5.9571Y-6.1524
X5.9571Y-6.3083
X6.0571Y-6.1524
X6.0571Y-6.3083
X6.1571Y-6.1524
X6.1571Y-6.3083
X6.2571Y-6.1524
X6.2571Y-6.3083
X6.3571Y-6.1524
X6.3571Y-6.3083
X6.4571Y-6.1524
X6.4571Y-6.3083
X6.5571Y-6.1524
X6.5571Y-6.3083
X6.6571Y-6.1524
X6.6571Y-6.3083
X6.7571Y-6.1524
X6.7571Y-6.3083
T5
X4.526Y-5.1004
X4.526Y-5.2004
X4.526Y-5.3004
X4.526Y-5.4004
X4.526Y-5.5004
X4.626Y-5.1004
X4.626Y-5.2004
X4.626Y-5.3004
X4.626Y-5.4004
X4.626Y-5.5004
T6
X5.8406Y-3.1118
X6.5906Y-2.9118
X6.5906Y-3.1118
X4.3406Y-2.9118
X4.3406Y-3.1118
X5.8406Y-2.9118
X5.0906Y-2.9118
X5.0906Y-3.1118
T7
X4.5195Y-6.4929
X7.0947Y-6.4929
T2
G00X4.3754Y-4.2913
M15
G01X4.4187Y-4.2913
M16
G05
G00X4.3754Y-4.5748
M15
G01X4.4187Y-4.5748
M16
G05
G00X4.5152Y-4.2913
M15
G01X4.5585Y-4.2913
M16
G05
G00X4.5152Y-4.5748
M15
G01X4.5585Y-4.5748
M16
G05
T0
M30
