%TF.GenerationSoftware,KiCad,Pcbnew,(5.1.7)-1*%
%TF.CreationDate,2020-11-29T12:14:47-06:00*%
%TF.ProjectId,Programmer Board,50726f67-7261-46d6-9d65-7220426f6172,A*%
%TF.SameCoordinates,Original*%
%TF.FileFunction,Soldermask,Top*%
%TF.FilePolarity,Negative*%
%FSLAX46Y46*%
G04 Gerber Fmt 4.6, Leading zero omitted, Abs format (unit mm)*
G04 Created by KiCad (PCBNEW (5.1.7)-1) date 2020-11-29 12:14:47*
%MOMM*%
%LPD*%
G01*
G04 APERTURE LIST*
%ADD10R,1.750000X4.500000*%
%ADD11O,1.700000X1.700000*%
%ADD12R,1.700000X1.700000*%
%ADD13R,1.700000X0.250000*%
%ADD14O,2.300000X1.200000*%
%ADD15R,3.900000X1.800000*%
%ADD16R,1.200000X1.200000*%
%ADD17C,11.200000*%
%ADD18C,2.200000*%
%ADD19R,2.200000X2.200000*%
%ADD20C,3.180000*%
%ADD21C,1.900000*%
%ADD22R,1.900000X1.900000*%
%ADD23O,3.000000X1.500000*%
%ADD24R,3.000000X1.500000*%
G04 APERTURE END LIST*
D10*
%TO.C,L1*%
X145875000Y-103050000D03*
X142625000Y-103050000D03*
%TD*%
%TO.C,R9*%
G36*
G01*
X154565001Y-126200001D02*
X154565001Y-125299999D01*
G75*
G02*
X154815000Y-125050000I249999J0D01*
G01*
X155515002Y-125050000D01*
G75*
G02*
X155765001Y-125299999I0J-249999D01*
G01*
X155765001Y-126200001D01*
G75*
G02*
X155515002Y-126450000I-249999J0D01*
G01*
X154815000Y-126450000D01*
G75*
G02*
X154565001Y-126200001I0J249999D01*
G01*
G37*
G36*
G01*
X152565001Y-126200001D02*
X152565001Y-125299999D01*
G75*
G02*
X152815000Y-125050000I249999J0D01*
G01*
X153515002Y-125050000D01*
G75*
G02*
X153765001Y-125299999I0J-249999D01*
G01*
X153765001Y-126200001D01*
G75*
G02*
X153515002Y-126450000I-249999J0D01*
G01*
X152815000Y-126450000D01*
G75*
G02*
X152565001Y-126200001I0J249999D01*
G01*
G37*
%TD*%
%TO.C,D2*%
G36*
G01*
X148970001Y-125299999D02*
X148970001Y-126200001D01*
G75*
G02*
X148720002Y-126450000I-249999J0D01*
G01*
X148070000Y-126450000D01*
G75*
G02*
X147820001Y-126200001I0J249999D01*
G01*
X147820001Y-125299999D01*
G75*
G02*
X148070000Y-125050000I249999J0D01*
G01*
X148720002Y-125050000D01*
G75*
G02*
X148970001Y-125299999I0J-249999D01*
G01*
G37*
G36*
G01*
X151020001Y-125299999D02*
X151020001Y-126200001D01*
G75*
G02*
X150770002Y-126450000I-249999J0D01*
G01*
X150120000Y-126450000D01*
G75*
G02*
X149870001Y-126200001I0J249999D01*
G01*
X149870001Y-125299999D01*
G75*
G02*
X150120000Y-125050000I249999J0D01*
G01*
X150770002Y-125050000D01*
G75*
G02*
X151020001Y-125299999I0J-249999D01*
G01*
G37*
%TD*%
%TO.C,R8*%
G36*
G01*
X123600000Y-117299999D02*
X123600000Y-118200001D01*
G75*
G02*
X123350001Y-118450000I-249999J0D01*
G01*
X122649999Y-118450000D01*
G75*
G02*
X122400000Y-118200001I0J249999D01*
G01*
X122400000Y-117299999D01*
G75*
G02*
X122649999Y-117050000I249999J0D01*
G01*
X123350001Y-117050000D01*
G75*
G02*
X123600000Y-117299999I0J-249999D01*
G01*
G37*
G36*
G01*
X125600000Y-117299999D02*
X125600000Y-118200001D01*
G75*
G02*
X125350001Y-118450000I-249999J0D01*
G01*
X124649999Y-118450000D01*
G75*
G02*
X124400000Y-118200001I0J249999D01*
G01*
X124400000Y-117299999D01*
G75*
G02*
X124649999Y-117050000I249999J0D01*
G01*
X125350001Y-117050000D01*
G75*
G02*
X125600000Y-117299999I0J-249999D01*
G01*
G37*
%TD*%
%TO.C,R7*%
G36*
G01*
X140600000Y-120799999D02*
X140600000Y-121700001D01*
G75*
G02*
X140350001Y-121950000I-249999J0D01*
G01*
X139649999Y-121950000D01*
G75*
G02*
X139400000Y-121700001I0J249999D01*
G01*
X139400000Y-120799999D01*
G75*
G02*
X139649999Y-120550000I249999J0D01*
G01*
X140350001Y-120550000D01*
G75*
G02*
X140600000Y-120799999I0J-249999D01*
G01*
G37*
G36*
G01*
X142600000Y-120799999D02*
X142600000Y-121700001D01*
G75*
G02*
X142350001Y-121950000I-249999J0D01*
G01*
X141649999Y-121950000D01*
G75*
G02*
X141400000Y-121700001I0J249999D01*
G01*
X141400000Y-120799999D01*
G75*
G02*
X141649999Y-120550000I249999J0D01*
G01*
X142350001Y-120550000D01*
G75*
G02*
X142600000Y-120799999I0J-249999D01*
G01*
G37*
%TD*%
%TO.C,R6*%
G36*
G01*
X123600000Y-119799999D02*
X123600000Y-120700001D01*
G75*
G02*
X123350001Y-120950000I-249999J0D01*
G01*
X122649999Y-120950000D01*
G75*
G02*
X122400000Y-120700001I0J249999D01*
G01*
X122400000Y-119799999D01*
G75*
G02*
X122649999Y-119550000I249999J0D01*
G01*
X123350001Y-119550000D01*
G75*
G02*
X123600000Y-119799999I0J-249999D01*
G01*
G37*
G36*
G01*
X125600000Y-119799999D02*
X125600000Y-120700001D01*
G75*
G02*
X125350001Y-120950000I-249999J0D01*
G01*
X124649999Y-120950000D01*
G75*
G02*
X124400000Y-120700001I0J249999D01*
G01*
X124400000Y-119799999D01*
G75*
G02*
X124649999Y-119550000I249999J0D01*
G01*
X125350001Y-119550000D01*
G75*
G02*
X125600000Y-119799999I0J-249999D01*
G01*
G37*
%TD*%
%TO.C,R4*%
G36*
G01*
X140600000Y-124299999D02*
X140600000Y-125200001D01*
G75*
G02*
X140350001Y-125450000I-249999J0D01*
G01*
X139649999Y-125450000D01*
G75*
G02*
X139400000Y-125200001I0J249999D01*
G01*
X139400000Y-124299999D01*
G75*
G02*
X139649999Y-124050000I249999J0D01*
G01*
X140350001Y-124050000D01*
G75*
G02*
X140600000Y-124299999I0J-249999D01*
G01*
G37*
G36*
G01*
X142600000Y-124299999D02*
X142600000Y-125200001D01*
G75*
G02*
X142350001Y-125450000I-249999J0D01*
G01*
X141649999Y-125450000D01*
G75*
G02*
X141400000Y-125200001I0J249999D01*
G01*
X141400000Y-124299999D01*
G75*
G02*
X141649999Y-124050000I249999J0D01*
G01*
X142350001Y-124050000D01*
G75*
G02*
X142600000Y-124299999I0J-249999D01*
G01*
G37*
%TD*%
D11*
%TO.C,J8*%
X147200000Y-134250000D03*
X144660000Y-134250000D03*
X142120000Y-134250000D03*
X139580000Y-134250000D03*
X137040000Y-134250000D03*
D12*
X134500000Y-134250000D03*
%TD*%
D13*
%TO.C,J3*%
X115350000Y-118550000D03*
X115350000Y-117900000D03*
X115350000Y-117250000D03*
X115350000Y-116600000D03*
X115350000Y-115950000D03*
D14*
X115700000Y-120850000D03*
X112150000Y-120850000D03*
X115700000Y-113650000D03*
X112150000Y-113650000D03*
D15*
X111150000Y-118400000D03*
X111150000Y-116100000D03*
%TD*%
D11*
%TO.C,J1*%
X147200000Y-113750000D03*
X144660000Y-113750000D03*
X142120000Y-113750000D03*
X139580000Y-113750000D03*
X137040000Y-113750000D03*
D12*
X134500000Y-113750000D03*
%TD*%
D16*
%TO.C,FB4*%
X125950000Y-113750000D03*
X128050000Y-113750000D03*
%TD*%
%TO.C,FB3*%
X113450000Y-123250000D03*
X115550000Y-123250000D03*
%TD*%
%TO.C,F4*%
G36*
G01*
X119925000Y-112300000D02*
X119925000Y-115200000D01*
G75*
G02*
X119675000Y-115450000I-250000J0D01*
G01*
X118875000Y-115450000D01*
G75*
G02*
X118625000Y-115200000I0J250000D01*
G01*
X118625000Y-112300000D01*
G75*
G02*
X118875000Y-112050000I250000J0D01*
G01*
X119675000Y-112050000D01*
G75*
G02*
X119925000Y-112300000I0J-250000D01*
G01*
G37*
G36*
G01*
X124375000Y-112300000D02*
X124375000Y-115200000D01*
G75*
G02*
X124125000Y-115450000I-250000J0D01*
G01*
X123325000Y-115450000D01*
G75*
G02*
X123075000Y-115200000I0J250000D01*
G01*
X123075000Y-112300000D01*
G75*
G02*
X123325000Y-112050000I250000J0D01*
G01*
X124125000Y-112050000D01*
G75*
G02*
X124375000Y-112300000I0J-250000D01*
G01*
G37*
%TD*%
%TO.C,D6*%
G36*
G01*
X136425000Y-121700001D02*
X136425000Y-120799999D01*
G75*
G02*
X136674999Y-120550000I249999J0D01*
G01*
X137325001Y-120550000D01*
G75*
G02*
X137575000Y-120799999I0J-249999D01*
G01*
X137575000Y-121700001D01*
G75*
G02*
X137325001Y-121950000I-249999J0D01*
G01*
X136674999Y-121950000D01*
G75*
G02*
X136425000Y-121700001I0J249999D01*
G01*
G37*
G36*
G01*
X134375000Y-121700001D02*
X134375000Y-120799999D01*
G75*
G02*
X134624999Y-120550000I249999J0D01*
G01*
X135275001Y-120550000D01*
G75*
G02*
X135525000Y-120799999I0J-249999D01*
G01*
X135525000Y-121700001D01*
G75*
G02*
X135275001Y-121950000I-249999J0D01*
G01*
X134624999Y-121950000D01*
G75*
G02*
X134375000Y-121700001I0J249999D01*
G01*
G37*
%TD*%
%TO.C,D1*%
G36*
G01*
X136450000Y-125200001D02*
X136450000Y-124299999D01*
G75*
G02*
X136699999Y-124050000I249999J0D01*
G01*
X137350001Y-124050000D01*
G75*
G02*
X137600000Y-124299999I0J-249999D01*
G01*
X137600000Y-125200001D01*
G75*
G02*
X137350001Y-125450000I-249999J0D01*
G01*
X136699999Y-125450000D01*
G75*
G02*
X136450000Y-125200001I0J249999D01*
G01*
G37*
G36*
G01*
X134400000Y-125200001D02*
X134400000Y-124299999D01*
G75*
G02*
X134649999Y-124050000I249999J0D01*
G01*
X135300001Y-124050000D01*
G75*
G02*
X135550000Y-124299999I0J-249999D01*
G01*
X135550000Y-125200001D01*
G75*
G02*
X135300001Y-125450000I-249999J0D01*
G01*
X134649999Y-125450000D01*
G75*
G02*
X134400000Y-125200001I0J249999D01*
G01*
G37*
%TD*%
%TO.C,C10*%
G36*
G01*
X133787500Y-130324999D02*
X133787500Y-131175001D01*
G75*
G02*
X133537501Y-131425000I-249999J0D01*
G01*
X132462499Y-131425000D01*
G75*
G02*
X132212500Y-131175001I0J249999D01*
G01*
X132212500Y-130324999D01*
G75*
G02*
X132462499Y-130075000I249999J0D01*
G01*
X133537501Y-130075000D01*
G75*
G02*
X133787500Y-130324999I0J-249999D01*
G01*
G37*
G36*
G01*
X136662500Y-130324999D02*
X136662500Y-131175001D01*
G75*
G02*
X136412501Y-131425000I-249999J0D01*
G01*
X135337499Y-131425000D01*
G75*
G02*
X135087500Y-131175001I0J249999D01*
G01*
X135087500Y-130324999D01*
G75*
G02*
X135337499Y-130075000I249999J0D01*
G01*
X136412501Y-130075000D01*
G75*
G02*
X136662500Y-130324999I0J-249999D01*
G01*
G37*
%TD*%
%TO.C,C2*%
G36*
G01*
X130525000Y-125737500D02*
X131475000Y-125737500D01*
G75*
G02*
X131725000Y-125987500I0J-250000D01*
G01*
X131725000Y-126662500D01*
G75*
G02*
X131475000Y-126912500I-250000J0D01*
G01*
X130525000Y-126912500D01*
G75*
G02*
X130275000Y-126662500I0J250000D01*
G01*
X130275000Y-125987500D01*
G75*
G02*
X130525000Y-125737500I250000J0D01*
G01*
G37*
G36*
G01*
X130525000Y-123662500D02*
X131475000Y-123662500D01*
G75*
G02*
X131725000Y-123912500I0J-250000D01*
G01*
X131725000Y-124587500D01*
G75*
G02*
X131475000Y-124837500I-250000J0D01*
G01*
X130525000Y-124837500D01*
G75*
G02*
X130275000Y-124587500I0J250000D01*
G01*
X130275000Y-123912500D01*
G75*
G02*
X130525000Y-123662500I250000J0D01*
G01*
G37*
%TD*%
%TO.C,C1*%
G36*
G01*
X131087500Y-117275000D02*
X131087500Y-118225000D01*
G75*
G02*
X130837500Y-118475000I-250000J0D01*
G01*
X130162500Y-118475000D01*
G75*
G02*
X129912500Y-118225000I0J250000D01*
G01*
X129912500Y-117275000D01*
G75*
G02*
X130162500Y-117025000I250000J0D01*
G01*
X130837500Y-117025000D01*
G75*
G02*
X131087500Y-117275000I0J-250000D01*
G01*
G37*
G36*
G01*
X133162500Y-117275000D02*
X133162500Y-118225000D01*
G75*
G02*
X132912500Y-118475000I-250000J0D01*
G01*
X132237500Y-118475000D01*
G75*
G02*
X131987500Y-118225000I0J250000D01*
G01*
X131987500Y-117275000D01*
G75*
G02*
X132237500Y-117025000I250000J0D01*
G01*
X132912500Y-117025000D01*
G75*
G02*
X133162500Y-117275000I0J-250000D01*
G01*
G37*
%TD*%
D17*
%TO.C,E1*%
X115000000Y-79250000D03*
%TD*%
%TO.C,E4*%
X180000000Y-79250000D03*
%TD*%
%TO.C,E3*%
X160950000Y-79250000D03*
%TD*%
%TO.C,E2*%
X134050000Y-79250000D03*
%TD*%
D13*
%TO.C,J4*%
X115385000Y-98400000D03*
X115385000Y-97750000D03*
X115385000Y-97100000D03*
X115385000Y-96450000D03*
X115385000Y-95800000D03*
D14*
X115735000Y-100700000D03*
X112185000Y-100700000D03*
X115735000Y-93500000D03*
X112185000Y-93500000D03*
D15*
X111185000Y-98250000D03*
X111185000Y-95950000D03*
%TD*%
%TO.C,F3*%
G36*
G01*
X119925000Y-92300000D02*
X119925000Y-95200000D01*
G75*
G02*
X119675000Y-95450000I-250000J0D01*
G01*
X118875000Y-95450000D01*
G75*
G02*
X118625000Y-95200000I0J250000D01*
G01*
X118625000Y-92300000D01*
G75*
G02*
X118875000Y-92050000I250000J0D01*
G01*
X119675000Y-92050000D01*
G75*
G02*
X119925000Y-92300000I0J-250000D01*
G01*
G37*
G36*
G01*
X124375000Y-92300000D02*
X124375000Y-95200000D01*
G75*
G02*
X124125000Y-95450000I-250000J0D01*
G01*
X123325000Y-95450000D01*
G75*
G02*
X123075000Y-95200000I0J250000D01*
G01*
X123075000Y-92300000D01*
G75*
G02*
X123325000Y-92050000I250000J0D01*
G01*
X124125000Y-92050000D01*
G75*
G02*
X124375000Y-92300000I0J-250000D01*
G01*
G37*
%TD*%
%TO.C,R5*%
G36*
G01*
X139100000Y-92299999D02*
X139100000Y-93200001D01*
G75*
G02*
X138850001Y-93450000I-249999J0D01*
G01*
X138149999Y-93450000D01*
G75*
G02*
X137900000Y-93200001I0J249999D01*
G01*
X137900000Y-92299999D01*
G75*
G02*
X138149999Y-92050000I249999J0D01*
G01*
X138850001Y-92050000D01*
G75*
G02*
X139100000Y-92299999I0J-249999D01*
G01*
G37*
G36*
G01*
X141100000Y-92299999D02*
X141100000Y-93200001D01*
G75*
G02*
X140850001Y-93450000I-249999J0D01*
G01*
X140149999Y-93450000D01*
G75*
G02*
X139900000Y-93200001I0J249999D01*
G01*
X139900000Y-92299999D01*
G75*
G02*
X140149999Y-92050000I249999J0D01*
G01*
X140850001Y-92050000D01*
G75*
G02*
X141100000Y-92299999I0J-249999D01*
G01*
G37*
%TD*%
%TO.C,R3*%
G36*
G01*
X139100000Y-95799999D02*
X139100000Y-96700001D01*
G75*
G02*
X138850001Y-96950000I-249999J0D01*
G01*
X138149999Y-96950000D01*
G75*
G02*
X137900000Y-96700001I0J249999D01*
G01*
X137900000Y-95799999D01*
G75*
G02*
X138149999Y-95550000I249999J0D01*
G01*
X138850001Y-95550000D01*
G75*
G02*
X139100000Y-95799999I0J-249999D01*
G01*
G37*
G36*
G01*
X141100000Y-95799999D02*
X141100000Y-96700001D01*
G75*
G02*
X140850001Y-96950000I-249999J0D01*
G01*
X140149999Y-96950000D01*
G75*
G02*
X139900000Y-96700001I0J249999D01*
G01*
X139900000Y-95799999D01*
G75*
G02*
X140149999Y-95550000I249999J0D01*
G01*
X140850001Y-95550000D01*
G75*
G02*
X141100000Y-95799999I0J-249999D01*
G01*
G37*
%TD*%
%TO.C,D5*%
G36*
G01*
X134925000Y-93200001D02*
X134925000Y-92299999D01*
G75*
G02*
X135174999Y-92050000I249999J0D01*
G01*
X135825001Y-92050000D01*
G75*
G02*
X136075000Y-92299999I0J-249999D01*
G01*
X136075000Y-93200001D01*
G75*
G02*
X135825001Y-93450000I-249999J0D01*
G01*
X135174999Y-93450000D01*
G75*
G02*
X134925000Y-93200001I0J249999D01*
G01*
G37*
G36*
G01*
X132875000Y-93200001D02*
X132875000Y-92299999D01*
G75*
G02*
X133124999Y-92050000I249999J0D01*
G01*
X133775001Y-92050000D01*
G75*
G02*
X134025000Y-92299999I0J-249999D01*
G01*
X134025000Y-93200001D01*
G75*
G02*
X133775001Y-93450000I-249999J0D01*
G01*
X133124999Y-93450000D01*
G75*
G02*
X132875000Y-93200001I0J249999D01*
G01*
G37*
%TD*%
%TO.C,D4*%
G36*
G01*
X134925000Y-96700001D02*
X134925000Y-95799999D01*
G75*
G02*
X135174999Y-95550000I249999J0D01*
G01*
X135825001Y-95550000D01*
G75*
G02*
X136075000Y-95799999I0J-249999D01*
G01*
X136075000Y-96700001D01*
G75*
G02*
X135825001Y-96950000I-249999J0D01*
G01*
X135174999Y-96950000D01*
G75*
G02*
X134925000Y-96700001I0J249999D01*
G01*
G37*
G36*
G01*
X132875000Y-96700001D02*
X132875000Y-95799999D01*
G75*
G02*
X133124999Y-95550000I249999J0D01*
G01*
X133775001Y-95550000D01*
G75*
G02*
X134025000Y-95799999I0J-249999D01*
G01*
X134025000Y-96700001D01*
G75*
G02*
X133775001Y-96950000I-249999J0D01*
G01*
X133124999Y-96950000D01*
G75*
G02*
X132875000Y-96700001I0J249999D01*
G01*
G37*
%TD*%
%TO.C,C6*%
G36*
G01*
X129025000Y-104700000D02*
X129975000Y-104700000D01*
G75*
G02*
X130225000Y-104950000I0J-250000D01*
G01*
X130225000Y-105625000D01*
G75*
G02*
X129975000Y-105875000I-250000J0D01*
G01*
X129025000Y-105875000D01*
G75*
G02*
X128775000Y-105625000I0J250000D01*
G01*
X128775000Y-104950000D01*
G75*
G02*
X129025000Y-104700000I250000J0D01*
G01*
G37*
G36*
G01*
X129025000Y-102625000D02*
X129975000Y-102625000D01*
G75*
G02*
X130225000Y-102875000I0J-250000D01*
G01*
X130225000Y-103550000D01*
G75*
G02*
X129975000Y-103800000I-250000J0D01*
G01*
X129025000Y-103800000D01*
G75*
G02*
X128775000Y-103550000I0J250000D01*
G01*
X128775000Y-102875000D01*
G75*
G02*
X129025000Y-102625000I250000J0D01*
G01*
G37*
%TD*%
%TO.C,C3*%
G36*
G01*
X141450000Y-131225000D02*
X141450000Y-130275000D01*
G75*
G02*
X141700000Y-130025000I250000J0D01*
G01*
X142375000Y-130025000D01*
G75*
G02*
X142625000Y-130275000I0J-250000D01*
G01*
X142625000Y-131225000D01*
G75*
G02*
X142375000Y-131475000I-250000J0D01*
G01*
X141700000Y-131475000D01*
G75*
G02*
X141450000Y-131225000I0J250000D01*
G01*
G37*
G36*
G01*
X139375000Y-131225000D02*
X139375000Y-130275000D01*
G75*
G02*
X139625000Y-130025000I250000J0D01*
G01*
X140300000Y-130025000D01*
G75*
G02*
X140550000Y-130275000I0J-250000D01*
G01*
X140550000Y-131225000D01*
G75*
G02*
X140300000Y-131475000I-250000J0D01*
G01*
X139625000Y-131475000D01*
G75*
G02*
X139375000Y-131225000I0J250000D01*
G01*
G37*
%TD*%
D18*
%TO.C,J7*%
X114960000Y-139710000D03*
X117500000Y-139710000D03*
X114960000Y-137170000D03*
X117500000Y-137170000D03*
X114960000Y-134630000D03*
X117500000Y-134630000D03*
X114960000Y-132090000D03*
X117500000Y-132090000D03*
D19*
X114960000Y-129550000D03*
D18*
X117500000Y-129550000D03*
%TD*%
%TO.C,D3*%
G36*
G01*
X161750000Y-134299999D02*
X161750000Y-135200001D01*
G75*
G02*
X161500001Y-135450000I-249999J0D01*
G01*
X160849999Y-135450000D01*
G75*
G02*
X160600000Y-135200001I0J249999D01*
G01*
X160600000Y-134299999D01*
G75*
G02*
X160849999Y-134050000I249999J0D01*
G01*
X161500001Y-134050000D01*
G75*
G02*
X161750000Y-134299999I0J-249999D01*
G01*
G37*
G36*
G01*
X163800000Y-134299999D02*
X163800000Y-135200001D01*
G75*
G02*
X163550001Y-135450000I-249999J0D01*
G01*
X162899999Y-135450000D01*
G75*
G02*
X162650000Y-135200001I0J249999D01*
G01*
X162650000Y-134299999D01*
G75*
G02*
X162899999Y-134050000I249999J0D01*
G01*
X163550001Y-134050000D01*
G75*
G02*
X163800000Y-134299999I0J-249999D01*
G01*
G37*
%TD*%
D20*
%TO.C,J5*%
X114795000Y-164920000D03*
X180205000Y-164920000D03*
D21*
X151310000Y-156270000D03*
X156390000Y-160230000D03*
X148770000Y-156270000D03*
X148770000Y-160230000D03*
X151310000Y-160230000D03*
X158930000Y-156270000D03*
X164010000Y-160230000D03*
X156390000Y-156270000D03*
X161470000Y-156270000D03*
X164010000Y-156270000D03*
X169090000Y-156270000D03*
X171630000Y-156270000D03*
X153850000Y-160230000D03*
X158930000Y-160230000D03*
X153850000Y-156270000D03*
X166550000Y-156270000D03*
X161470000Y-160230000D03*
X166550000Y-160230000D03*
X171630000Y-160230000D03*
X169090000Y-160230000D03*
X146230000Y-156270000D03*
X143690000Y-156270000D03*
X143690000Y-160230000D03*
X146230000Y-160230000D03*
X136070000Y-156270000D03*
X141150000Y-160230000D03*
X133530000Y-156270000D03*
X133530000Y-160230000D03*
X136070000Y-160230000D03*
X141150000Y-156270000D03*
X138610000Y-160230000D03*
X138610000Y-156270000D03*
X130990000Y-156270000D03*
X128450000Y-156270000D03*
X128450000Y-160230000D03*
X130990000Y-160230000D03*
X125910000Y-156270000D03*
X125910000Y-160230000D03*
X123370000Y-156270000D03*
D22*
X123370000Y-160230000D03*
%TD*%
%TO.C,JP2*%
G36*
G01*
X140970000Y-143167100D02*
X139700000Y-143167100D01*
G75*
G02*
X139598400Y-143065500I0J101600D01*
G01*
X139598400Y-142430500D01*
G75*
G02*
X139700000Y-142328900I101600J0D01*
G01*
X140970000Y-142328900D01*
G75*
G02*
X141071600Y-142430500I0J-101600D01*
G01*
X141071600Y-143065500D01*
G75*
G02*
X140970000Y-143167100I-101600J0D01*
G01*
G37*
G36*
G01*
X140970000Y-144183100D02*
X139700000Y-144183100D01*
G75*
G02*
X139598400Y-144081500I0J101600D01*
G01*
X139598400Y-143446500D01*
G75*
G02*
X139700000Y-143344900I101600J0D01*
G01*
X140970000Y-143344900D01*
G75*
G02*
X141071600Y-143446500I0J-101600D01*
G01*
X141071600Y-144081500D01*
G75*
G02*
X140970000Y-144183100I-101600J0D01*
G01*
G37*
G36*
G01*
X140970000Y-145199100D02*
X139700000Y-145199100D01*
G75*
G02*
X139598400Y-145097500I0J101600D01*
G01*
X139598400Y-144462500D01*
G75*
G02*
X139700000Y-144360900I101600J0D01*
G01*
X140970000Y-144360900D01*
G75*
G02*
X141071600Y-144462500I0J-101600D01*
G01*
X141071600Y-145097500D01*
G75*
G02*
X140970000Y-145199100I-101600J0D01*
G01*
G37*
%TD*%
%TO.C,JP1*%
G36*
G01*
X144780000Y-144360900D02*
X146050000Y-144360900D01*
G75*
G02*
X146151600Y-144462500I0J-101600D01*
G01*
X146151600Y-145097500D01*
G75*
G02*
X146050000Y-145199100I-101600J0D01*
G01*
X144780000Y-145199100D01*
G75*
G02*
X144678400Y-145097500I0J101600D01*
G01*
X144678400Y-144462500D01*
G75*
G02*
X144780000Y-144360900I101600J0D01*
G01*
G37*
G36*
G01*
X144780000Y-143344900D02*
X146050000Y-143344900D01*
G75*
G02*
X146151600Y-143446500I0J-101600D01*
G01*
X146151600Y-144081500D01*
G75*
G02*
X146050000Y-144183100I-101600J0D01*
G01*
X144780000Y-144183100D01*
G75*
G02*
X144678400Y-144081500I0J101600D01*
G01*
X144678400Y-143446500D01*
G75*
G02*
X144780000Y-143344900I101600J0D01*
G01*
G37*
G36*
G01*
X144780000Y-142328900D02*
X146050000Y-142328900D01*
G75*
G02*
X146151600Y-142430500I0J-101600D01*
G01*
X146151600Y-143065500D01*
G75*
G02*
X146050000Y-143167100I-101600J0D01*
G01*
X144780000Y-143167100D01*
G75*
G02*
X144678400Y-143065500I0J101600D01*
G01*
X144678400Y-142430500D01*
G75*
G02*
X144780000Y-142328900I101600J0D01*
G01*
G37*
%TD*%
D23*
%TO.C,U2*%
X161250000Y-118280000D03*
X161250000Y-115740000D03*
X161250000Y-105580000D03*
X161250000Y-113200000D03*
X161250000Y-110660000D03*
X161250000Y-103040000D03*
D24*
X161250000Y-100500000D03*
%TD*%
%TO.C,R12*%
G36*
G01*
X166650000Y-135200001D02*
X166650000Y-134299999D01*
G75*
G02*
X166899999Y-134050000I249999J0D01*
G01*
X167600001Y-134050000D01*
G75*
G02*
X167850000Y-134299999I0J-249999D01*
G01*
X167850000Y-135200001D01*
G75*
G02*
X167600001Y-135450000I-249999J0D01*
G01*
X166899999Y-135450000D01*
G75*
G02*
X166650000Y-135200001I0J249999D01*
G01*
G37*
G36*
G01*
X164650000Y-135200001D02*
X164650000Y-134299999D01*
G75*
G02*
X164899999Y-134050000I249999J0D01*
G01*
X165600001Y-134050000D01*
G75*
G02*
X165850000Y-134299999I0J-249999D01*
G01*
X165850000Y-135200001D01*
G75*
G02*
X165600001Y-135450000I-249999J0D01*
G01*
X164899999Y-135450000D01*
G75*
G02*
X164650000Y-135200001I0J249999D01*
G01*
G37*
%TD*%
%TO.C,R2*%
G36*
G01*
X123600000Y-97299999D02*
X123600000Y-98200001D01*
G75*
G02*
X123350001Y-98450000I-249999J0D01*
G01*
X122649999Y-98450000D01*
G75*
G02*
X122400000Y-98200001I0J249999D01*
G01*
X122400000Y-97299999D01*
G75*
G02*
X122649999Y-97050000I249999J0D01*
G01*
X123350001Y-97050000D01*
G75*
G02*
X123600000Y-97299999I0J-249999D01*
G01*
G37*
G36*
G01*
X125600000Y-97299999D02*
X125600000Y-98200001D01*
G75*
G02*
X125350001Y-98450000I-249999J0D01*
G01*
X124649999Y-98450000D01*
G75*
G02*
X124400000Y-98200001I0J249999D01*
G01*
X124400000Y-97299999D01*
G75*
G02*
X124649999Y-97050000I249999J0D01*
G01*
X125350001Y-97050000D01*
G75*
G02*
X125600000Y-97299999I0J-249999D01*
G01*
G37*
%TD*%
%TO.C,R1*%
G36*
G01*
X123600000Y-99799600D02*
X123600000Y-100700400D01*
G75*
G02*
X123350400Y-100950000I-249600J0D01*
G01*
X122649600Y-100950000D01*
G75*
G02*
X122400000Y-100700400I0J249600D01*
G01*
X122400000Y-99799600D01*
G75*
G02*
X122649600Y-99550000I249600J0D01*
G01*
X123350400Y-99550000D01*
G75*
G02*
X123600000Y-99799600I0J-249600D01*
G01*
G37*
G36*
G01*
X125600000Y-99799999D02*
X125600000Y-100700001D01*
G75*
G02*
X125350001Y-100950000I-249999J0D01*
G01*
X124649999Y-100950000D01*
G75*
G02*
X124400000Y-100700001I0J249999D01*
G01*
X124400000Y-99799999D01*
G75*
G02*
X124649999Y-99550000I249999J0D01*
G01*
X125350001Y-99550000D01*
G75*
G02*
X125600000Y-99799999I0J-249999D01*
G01*
G37*
%TD*%
D11*
%TO.C,J13*%
X161000000Y-140460000D03*
D12*
X161000000Y-143000000D03*
%TD*%
D11*
%TO.C,J10*%
X162460000Y-128000000D03*
X165000000Y-128000000D03*
D12*
X167540000Y-128000000D03*
%TD*%
D11*
%TO.C,J9*%
X180040000Y-135930000D03*
X177500000Y-135930000D03*
X180040000Y-133390000D03*
X177500000Y-133390000D03*
X180040000Y-130850000D03*
X177500000Y-130850000D03*
X180040000Y-128310000D03*
X177500000Y-128310000D03*
X180040000Y-125770000D03*
X177500000Y-125770000D03*
X180040000Y-123230000D03*
X177500000Y-123230000D03*
X180040000Y-120690000D03*
X177500000Y-120690000D03*
X180040000Y-118150000D03*
X177500000Y-118150000D03*
X180040000Y-115610000D03*
X177500000Y-115610000D03*
X180040000Y-113070000D03*
X177500000Y-113070000D03*
X180040000Y-110530000D03*
X177500000Y-110530000D03*
X180040000Y-107990000D03*
X177500000Y-107990000D03*
X180040000Y-105450000D03*
X177500000Y-105450000D03*
X180040000Y-102910000D03*
X177500000Y-102910000D03*
X180040000Y-100370000D03*
X177500000Y-100370000D03*
X180040000Y-97830000D03*
X177500000Y-97830000D03*
X180040000Y-95290000D03*
X177500000Y-95290000D03*
X180040000Y-92750000D03*
D12*
X177500000Y-92750000D03*
%TD*%
D11*
%TO.C,J6*%
X167000000Y-140470000D03*
X167000000Y-143010000D03*
D12*
X167000000Y-145550000D03*
%TD*%
D11*
%TO.C,J2*%
X149500000Y-94330000D03*
X149500000Y-91790000D03*
D12*
X149500000Y-89250000D03*
%TD*%
D16*
%TO.C,FB2*%
X125950000Y-93750000D03*
X128050000Y-93750000D03*
%TD*%
%TO.C,FB1*%
X113450000Y-103250000D03*
X115550000Y-103250000D03*
%TD*%
%TO.C,C9*%
G36*
G01*
X152150003Y-100587500D02*
X150849997Y-100587500D01*
G75*
G02*
X150600000Y-100337503I0J249997D01*
G01*
X150600000Y-99512497D01*
G75*
G02*
X150849997Y-99262500I249997J0D01*
G01*
X152150003Y-99262500D01*
G75*
G02*
X152400000Y-99512497I0J-249997D01*
G01*
X152400000Y-100337503D01*
G75*
G02*
X152150003Y-100587500I-249997J0D01*
G01*
G37*
G36*
G01*
X152150003Y-103712500D02*
X150849997Y-103712500D01*
G75*
G02*
X150600000Y-103462503I0J249997D01*
G01*
X150600000Y-102637497D01*
G75*
G02*
X150849997Y-102387500I249997J0D01*
G01*
X152150003Y-102387500D01*
G75*
G02*
X152400000Y-102637497I0J-249997D01*
G01*
X152400000Y-103462503D01*
G75*
G02*
X152150003Y-103712500I-249997J0D01*
G01*
G37*
%TD*%
%TO.C,C8*%
G36*
G01*
X138349997Y-105512500D02*
X139650003Y-105512500D01*
G75*
G02*
X139900000Y-105762497I0J-249997D01*
G01*
X139900000Y-106587503D01*
G75*
G02*
X139650003Y-106837500I-249997J0D01*
G01*
X138349997Y-106837500D01*
G75*
G02*
X138100000Y-106587503I0J249997D01*
G01*
X138100000Y-105762497D01*
G75*
G02*
X138349997Y-105512500I249997J0D01*
G01*
G37*
G36*
G01*
X138349997Y-102387500D02*
X139650003Y-102387500D01*
G75*
G02*
X139900000Y-102637497I0J-249997D01*
G01*
X139900000Y-103462503D01*
G75*
G02*
X139650003Y-103712500I-249997J0D01*
G01*
X138349997Y-103712500D01*
G75*
G02*
X138100000Y-103462503I0J249997D01*
G01*
X138100000Y-102637497D01*
G75*
G02*
X138349997Y-102387500I249997J0D01*
G01*
G37*
%TD*%
%TO.C,C7*%
G36*
G01*
X129350000Y-108824999D02*
X129350000Y-109675001D01*
G75*
G02*
X129100001Y-109925000I-249999J0D01*
G01*
X128024999Y-109925000D01*
G75*
G02*
X127775000Y-109675001I0J249999D01*
G01*
X127775000Y-108824999D01*
G75*
G02*
X128024999Y-108575000I249999J0D01*
G01*
X129100001Y-108575000D01*
G75*
G02*
X129350000Y-108824999I0J-249999D01*
G01*
G37*
G36*
G01*
X132225000Y-108824999D02*
X132225000Y-109675001D01*
G75*
G02*
X131975001Y-109925000I-249999J0D01*
G01*
X130899999Y-109925000D01*
G75*
G02*
X130650000Y-109675001I0J249999D01*
G01*
X130650000Y-108824999D01*
G75*
G02*
X130899999Y-108575000I249999J0D01*
G01*
X131975001Y-108575000D01*
G75*
G02*
X132225000Y-108824999I0J-249999D01*
G01*
G37*
%TD*%
M02*
