%TF.GenerationSoftware,KiCad,Pcbnew,(5.1.7)-1*%
%TF.CreationDate,2020-11-29T12:14:47-06:00*%
%TF.ProjectId,Programmer Board,50726f67-7261-46d6-9d65-7220426f6172,A*%
%TF.SameCoordinates,Original*%
%TF.FileFunction,Legend,Top*%
%TF.FilePolarity,Positive*%
%FSLAX46Y46*%
G04 Gerber Fmt 4.6, Leading zero omitted, Abs format (unit mm)*
G04 Created by KiCad (PCBNEW (5.1.7)-1) date 2020-11-29 12:14:47*
%MOMM*%
%LPD*%
G01*
G04 APERTURE LIST*
%ADD10C,0.150000*%
%ADD11C,0.170000*%
%ADD12C,0.100000*%
%ADD13C,0.120000*%
%ADD14C,0.254000*%
%ADD15C,0.127000*%
%ADD16R,1.750000X4.500000*%
%ADD17O,1.700000X1.700000*%
%ADD18R,1.700000X1.700000*%
%ADD19R,1.700000X0.250000*%
%ADD20O,2.300000X1.200000*%
%ADD21R,3.900000X1.800000*%
%ADD22R,1.200000X1.200000*%
%ADD23C,11.200000*%
%ADD24C,2.200000*%
%ADD25R,2.200000X2.200000*%
%ADD26C,3.180000*%
%ADD27C,1.900000*%
%ADD28R,1.900000X1.900000*%
%ADD29O,3.000000X1.500000*%
%ADD30R,3.000000X1.500000*%
G04 APERTURE END LIST*
D10*
X142188214Y-88210714D02*
X142188214Y-88877380D01*
X141950119Y-87829761D02*
X141712023Y-88544047D01*
X142331071Y-88544047D01*
X142712023Y-88782142D02*
X142759642Y-88829761D01*
X142712023Y-88877380D01*
X142664404Y-88829761D01*
X142712023Y-88782142D01*
X142712023Y-88877380D01*
X143664404Y-87877380D02*
X143188214Y-87877380D01*
X143140595Y-88353571D01*
X143188214Y-88305952D01*
X143283452Y-88258333D01*
X143521547Y-88258333D01*
X143616785Y-88305952D01*
X143664404Y-88353571D01*
X143712023Y-88448809D01*
X143712023Y-88686904D01*
X143664404Y-88782142D01*
X143616785Y-88829761D01*
X143521547Y-88877380D01*
X143283452Y-88877380D01*
X143188214Y-88829761D01*
X143140595Y-88782142D01*
X144140595Y-88496428D02*
X144902500Y-88496428D01*
X145902500Y-88877380D02*
X145331071Y-88877380D01*
X145616785Y-88877380D02*
X145616785Y-87877380D01*
X145521547Y-88020238D01*
X145426309Y-88115476D01*
X145331071Y-88163095D01*
X146473928Y-88305952D02*
X146378690Y-88258333D01*
X146331071Y-88210714D01*
X146283452Y-88115476D01*
X146283452Y-88067857D01*
X146331071Y-87972619D01*
X146378690Y-87925000D01*
X146473928Y-87877380D01*
X146664404Y-87877380D01*
X146759642Y-87925000D01*
X146807261Y-87972619D01*
X146854880Y-88067857D01*
X146854880Y-88115476D01*
X146807261Y-88210714D01*
X146759642Y-88258333D01*
X146664404Y-88305952D01*
X146473928Y-88305952D01*
X146378690Y-88353571D01*
X146331071Y-88401190D01*
X146283452Y-88496428D01*
X146283452Y-88686904D01*
X146331071Y-88782142D01*
X146378690Y-88829761D01*
X146473928Y-88877380D01*
X146664404Y-88877380D01*
X146759642Y-88829761D01*
X146807261Y-88782142D01*
X146854880Y-88686904D01*
X146854880Y-88496428D01*
X146807261Y-88401190D01*
X146759642Y-88353571D01*
X146664404Y-88305952D01*
X147140595Y-87877380D02*
X147473928Y-88877380D01*
X147807261Y-87877380D01*
X143045357Y-90527380D02*
X143045357Y-89527380D01*
X143426309Y-89527380D01*
X143521547Y-89575000D01*
X143569166Y-89622619D01*
X143616785Y-89717857D01*
X143616785Y-89860714D01*
X143569166Y-89955952D01*
X143521547Y-90003571D01*
X143426309Y-90051190D01*
X143045357Y-90051190D01*
X144235833Y-89527380D02*
X144426309Y-89527380D01*
X144521547Y-89575000D01*
X144616785Y-89670238D01*
X144664404Y-89860714D01*
X144664404Y-90194047D01*
X144616785Y-90384523D01*
X144521547Y-90479761D01*
X144426309Y-90527380D01*
X144235833Y-90527380D01*
X144140595Y-90479761D01*
X144045357Y-90384523D01*
X143997738Y-90194047D01*
X143997738Y-89860714D01*
X144045357Y-89670238D01*
X144140595Y-89575000D01*
X144235833Y-89527380D01*
X144997738Y-89527380D02*
X145235833Y-90527380D01*
X145426309Y-89813095D01*
X145616785Y-90527380D01*
X145854880Y-89527380D01*
X146235833Y-90003571D02*
X146569166Y-90003571D01*
X146712023Y-90527380D02*
X146235833Y-90527380D01*
X146235833Y-89527380D01*
X146712023Y-89527380D01*
X147712023Y-90527380D02*
X147378690Y-90051190D01*
X147140595Y-90527380D02*
X147140595Y-89527380D01*
X147521547Y-89527380D01*
X147616785Y-89575000D01*
X147664404Y-89622619D01*
X147712023Y-89717857D01*
X147712023Y-89860714D01*
X147664404Y-89955952D01*
X147616785Y-90003571D01*
X147521547Y-90051190D01*
X147140595Y-90051190D01*
X145140595Y-93377380D02*
X145140595Y-94186904D01*
X145188214Y-94282142D01*
X145235833Y-94329761D01*
X145331071Y-94377380D01*
X145521547Y-94377380D01*
X145616785Y-94329761D01*
X145664404Y-94282142D01*
X145712023Y-94186904D01*
X145712023Y-93377380D01*
X146140595Y-94329761D02*
X146283452Y-94377380D01*
X146521547Y-94377380D01*
X146616785Y-94329761D01*
X146664404Y-94282142D01*
X146712023Y-94186904D01*
X146712023Y-94091666D01*
X146664404Y-93996428D01*
X146616785Y-93948809D01*
X146521547Y-93901190D01*
X146331071Y-93853571D01*
X146235833Y-93805952D01*
X146188214Y-93758333D01*
X146140595Y-93663095D01*
X146140595Y-93567857D01*
X146188214Y-93472619D01*
X146235833Y-93425000D01*
X146331071Y-93377380D01*
X146569166Y-93377380D01*
X146712023Y-93425000D01*
X147473928Y-93853571D02*
X147616785Y-93901190D01*
X147664404Y-93948809D01*
X147712023Y-94044047D01*
X147712023Y-94186904D01*
X147664404Y-94282142D01*
X147616785Y-94329761D01*
X147521547Y-94377380D01*
X147140595Y-94377380D01*
X147140595Y-93377380D01*
X147473928Y-93377380D01*
X147569166Y-93425000D01*
X147616785Y-93472619D01*
X147664404Y-93567857D01*
X147664404Y-93663095D01*
X147616785Y-93758333D01*
X147569166Y-93805952D01*
X147473928Y-93853571D01*
X147140595Y-93853571D01*
X144997738Y-96027380D02*
X144997738Y-95027380D01*
X145378690Y-95027380D01*
X145473928Y-95075000D01*
X145521547Y-95122619D01*
X145569166Y-95217857D01*
X145569166Y-95360714D01*
X145521547Y-95455952D01*
X145473928Y-95503571D01*
X145378690Y-95551190D01*
X144997738Y-95551190D01*
X145902500Y-95027380D02*
X146140595Y-96027380D01*
X146331071Y-95313095D01*
X146521547Y-96027380D01*
X146759642Y-95027380D01*
X147712023Y-96027380D02*
X147378690Y-95551190D01*
X147140595Y-96027380D02*
X147140595Y-95027380D01*
X147521547Y-95027380D01*
X147616785Y-95075000D01*
X147664404Y-95122619D01*
X147712023Y-95217857D01*
X147712023Y-95360714D01*
X147664404Y-95455952D01*
X147616785Y-95503571D01*
X147521547Y-95551190D01*
X147140595Y-95551190D01*
X161857142Y-130877380D02*
X161523809Y-130401190D01*
X161285714Y-130877380D02*
X161285714Y-129877380D01*
X161666666Y-129877380D01*
X161761904Y-129925000D01*
X161809523Y-129972619D01*
X161857142Y-130067857D01*
X161857142Y-130210714D01*
X161809523Y-130305952D01*
X161761904Y-130353571D01*
X161666666Y-130401190D01*
X161285714Y-130401190D01*
X162285714Y-130353571D02*
X162619047Y-130353571D01*
X162761904Y-130877380D02*
X162285714Y-130877380D01*
X162285714Y-129877380D01*
X162761904Y-129877380D01*
X163714285Y-129925000D02*
X163619047Y-129877380D01*
X163476190Y-129877380D01*
X163333333Y-129925000D01*
X163238095Y-130020238D01*
X163190476Y-130115476D01*
X163142857Y-130305952D01*
X163142857Y-130448809D01*
X163190476Y-130639285D01*
X163238095Y-130734523D01*
X163333333Y-130829761D01*
X163476190Y-130877380D01*
X163571428Y-130877380D01*
X163714285Y-130829761D01*
X163761904Y-130782142D01*
X163761904Y-130448809D01*
X163571428Y-130448809D01*
X161166666Y-132527380D02*
X161166666Y-131527380D01*
X161547619Y-131527380D01*
X161642857Y-131575000D01*
X161690476Y-131622619D01*
X161738095Y-131717857D01*
X161738095Y-131860714D01*
X161690476Y-131955952D01*
X161642857Y-132003571D01*
X161547619Y-132051190D01*
X161166666Y-132051190D01*
X162071428Y-131527380D02*
X162309523Y-132527380D01*
X162500000Y-131813095D01*
X162690476Y-132527380D01*
X162928571Y-131527380D01*
X163880952Y-132527380D02*
X163547619Y-132051190D01*
X163309523Y-132527380D02*
X163309523Y-131527380D01*
X163690476Y-131527380D01*
X163785714Y-131575000D01*
X163833333Y-131622619D01*
X163880952Y-131717857D01*
X163880952Y-131860714D01*
X163833333Y-131955952D01*
X163785714Y-132003571D01*
X163690476Y-132051190D01*
X163309523Y-132051190D01*
X166666666Y-130877380D02*
X166666666Y-129877380D01*
X166904761Y-129877380D01*
X167047619Y-129925000D01*
X167142857Y-130020238D01*
X167190476Y-130115476D01*
X167238095Y-130305952D01*
X167238095Y-130448809D01*
X167190476Y-130639285D01*
X167142857Y-130734523D01*
X167047619Y-130829761D01*
X166904761Y-130877380D01*
X166666666Y-130877380D01*
X167666666Y-130877380D02*
X167666666Y-129877380D01*
X168714285Y-130877380D02*
X168380952Y-130401190D01*
X168142857Y-130877380D02*
X168142857Y-129877380D01*
X168523809Y-129877380D01*
X168619047Y-129925000D01*
X168666666Y-129972619D01*
X168714285Y-130067857D01*
X168714285Y-130210714D01*
X168666666Y-130305952D01*
X168619047Y-130353571D01*
X168523809Y-130401190D01*
X168142857Y-130401190D01*
X169142857Y-130353571D02*
X169476190Y-130353571D01*
X169619047Y-130877380D02*
X169142857Y-130877380D01*
X169142857Y-129877380D01*
X169619047Y-129877380D01*
X170619047Y-130782142D02*
X170571428Y-130829761D01*
X170428571Y-130877380D01*
X170333333Y-130877380D01*
X170190476Y-130829761D01*
X170095238Y-130734523D01*
X170047619Y-130639285D01*
X170000000Y-130448809D01*
X170000000Y-130305952D01*
X170047619Y-130115476D01*
X170095238Y-130020238D01*
X170190476Y-129925000D01*
X170333333Y-129877380D01*
X170428571Y-129877380D01*
X170571428Y-129925000D01*
X170619047Y-129972619D01*
X170904761Y-129877380D02*
X171476190Y-129877380D01*
X171190476Y-130877380D02*
X171190476Y-129877380D01*
X166690476Y-132527380D02*
X166690476Y-131527380D01*
X167071428Y-131527380D01*
X167166666Y-131575000D01*
X167214285Y-131622619D01*
X167261904Y-131717857D01*
X167261904Y-131860714D01*
X167214285Y-131955952D01*
X167166666Y-132003571D01*
X167071428Y-132051190D01*
X166690476Y-132051190D01*
X167880952Y-131527380D02*
X168071428Y-131527380D01*
X168166666Y-131575000D01*
X168261904Y-131670238D01*
X168309523Y-131860714D01*
X168309523Y-132194047D01*
X168261904Y-132384523D01*
X168166666Y-132479761D01*
X168071428Y-132527380D01*
X167880952Y-132527380D01*
X167785714Y-132479761D01*
X167690476Y-132384523D01*
X167642857Y-132194047D01*
X167642857Y-131860714D01*
X167690476Y-131670238D01*
X167785714Y-131575000D01*
X167880952Y-131527380D01*
X168642857Y-131527380D02*
X168880952Y-132527380D01*
X169071428Y-131813095D01*
X169261904Y-132527380D01*
X169500000Y-131527380D01*
X169880952Y-132003571D02*
X170214285Y-132003571D01*
X170357142Y-132527380D02*
X169880952Y-132527380D01*
X169880952Y-131527380D01*
X170357142Y-131527380D01*
X171357142Y-132527380D02*
X171023809Y-132051190D01*
X170785714Y-132527380D02*
X170785714Y-131527380D01*
X171166666Y-131527380D01*
X171261904Y-131575000D01*
X171309523Y-131622619D01*
X171357142Y-131717857D01*
X171357142Y-131860714D01*
X171309523Y-131955952D01*
X171261904Y-132003571D01*
X171166666Y-132051190D01*
X170785714Y-132051190D01*
X169380952Y-139877380D02*
X169571428Y-139877380D01*
X169666666Y-139829761D01*
X169714285Y-139782142D01*
X169809523Y-139639285D01*
X169857142Y-139448809D01*
X169857142Y-139067857D01*
X169809523Y-138972619D01*
X169761904Y-138925000D01*
X169666666Y-138877380D01*
X169476190Y-138877380D01*
X169380952Y-138925000D01*
X169333333Y-138972619D01*
X169285714Y-139067857D01*
X169285714Y-139305952D01*
X169333333Y-139401190D01*
X169380952Y-139448809D01*
X169476190Y-139496428D01*
X169666666Y-139496428D01*
X169761904Y-139448809D01*
X169809523Y-139401190D01*
X169857142Y-139305952D01*
X170142857Y-138877380D02*
X170476190Y-139877380D01*
X170809523Y-138877380D01*
X169261904Y-141527380D02*
X169261904Y-140527380D01*
X169642857Y-140527380D01*
X169738095Y-140575000D01*
X169785714Y-140622619D01*
X169833333Y-140717857D01*
X169833333Y-140860714D01*
X169785714Y-140955952D01*
X169738095Y-141003571D01*
X169642857Y-141051190D01*
X169261904Y-141051190D01*
X170214285Y-141479761D02*
X170357142Y-141527380D01*
X170595238Y-141527380D01*
X170690476Y-141479761D01*
X170738095Y-141432142D01*
X170785714Y-141336904D01*
X170785714Y-141241666D01*
X170738095Y-141146428D01*
X170690476Y-141098809D01*
X170595238Y-141051190D01*
X170404761Y-141003571D01*
X170309523Y-140955952D01*
X170261904Y-140908333D01*
X170214285Y-140813095D01*
X170214285Y-140717857D01*
X170261904Y-140622619D01*
X170309523Y-140575000D01*
X170404761Y-140527380D01*
X170642857Y-140527380D01*
X170785714Y-140575000D01*
X169380952Y-144853571D02*
X169523809Y-144901190D01*
X169571428Y-144948809D01*
X169619047Y-145044047D01*
X169619047Y-145186904D01*
X169571428Y-145282142D01*
X169523809Y-145329761D01*
X169428571Y-145377380D01*
X169047619Y-145377380D01*
X169047619Y-144377380D01*
X169380952Y-144377380D01*
X169476190Y-144425000D01*
X169523809Y-144472619D01*
X169571428Y-144567857D01*
X169571428Y-144663095D01*
X169523809Y-144758333D01*
X169476190Y-144805952D01*
X169380952Y-144853571D01*
X169047619Y-144853571D01*
X170000000Y-145091666D02*
X170476190Y-145091666D01*
X169904761Y-145377380D02*
X170238095Y-144377380D01*
X170571428Y-145377380D01*
X170761904Y-144377380D02*
X171333333Y-144377380D01*
X171047619Y-145377380D02*
X171047619Y-144377380D01*
X171523809Y-144377380D02*
X172095238Y-144377380D01*
X171809523Y-145377380D02*
X171809523Y-144377380D01*
X169166666Y-147027380D02*
X169166666Y-146027380D01*
X169547619Y-146027380D01*
X169642857Y-146075000D01*
X169690476Y-146122619D01*
X169738095Y-146217857D01*
X169738095Y-146360714D01*
X169690476Y-146455952D01*
X169642857Y-146503571D01*
X169547619Y-146551190D01*
X169166666Y-146551190D01*
X170071428Y-146027380D02*
X170309523Y-147027380D01*
X170500000Y-146313095D01*
X170690476Y-147027380D01*
X170928571Y-146027380D01*
X171880952Y-147027380D02*
X171547619Y-146551190D01*
X171309523Y-147027380D02*
X171309523Y-146027380D01*
X171690476Y-146027380D01*
X171785714Y-146075000D01*
X171833333Y-146122619D01*
X171880952Y-146217857D01*
X171880952Y-146360714D01*
X171833333Y-146455952D01*
X171785714Y-146503571D01*
X171690476Y-146551190D01*
X171309523Y-146551190D01*
X156246428Y-144345238D02*
X156246428Y-143583333D01*
X156627380Y-143964285D02*
X155865476Y-143964285D01*
X156627380Y-143059523D02*
X156627380Y-142869047D01*
X156579761Y-142773809D01*
X156532142Y-142726190D01*
X156389285Y-142630952D01*
X156198809Y-142583333D01*
X155817857Y-142583333D01*
X155722619Y-142630952D01*
X155675000Y-142678571D01*
X155627380Y-142773809D01*
X155627380Y-142964285D01*
X155675000Y-143059523D01*
X155722619Y-143107142D01*
X155817857Y-143154761D01*
X156055952Y-143154761D01*
X156151190Y-143107142D01*
X156198809Y-143059523D01*
X156246428Y-142964285D01*
X156246428Y-142773809D01*
X156198809Y-142678571D01*
X156151190Y-142630952D01*
X156055952Y-142583333D01*
X156627380Y-140916666D02*
X156627380Y-141392857D01*
X155627380Y-141392857D01*
X156103571Y-140583333D02*
X156103571Y-140250000D01*
X156627380Y-140107142D02*
X156627380Y-140583333D01*
X155627380Y-140583333D01*
X155627380Y-140107142D01*
X156627380Y-139678571D02*
X155627380Y-139678571D01*
X155627380Y-139440476D01*
X155675000Y-139297619D01*
X155770238Y-139202380D01*
X155865476Y-139154761D01*
X156055952Y-139107142D01*
X156198809Y-139107142D01*
X156389285Y-139154761D01*
X156484523Y-139202380D01*
X156579761Y-139297619D01*
X156627380Y-139440476D01*
X156627380Y-139678571D01*
X157753571Y-144273809D02*
X157753571Y-143940476D01*
X158277380Y-143797619D02*
X158277380Y-144273809D01*
X157277380Y-144273809D01*
X157277380Y-143797619D01*
X158277380Y-143369047D02*
X157277380Y-143369047D01*
X158277380Y-142797619D01*
X157277380Y-142797619D01*
X157991666Y-142369047D02*
X157991666Y-141892857D01*
X158277380Y-142464285D02*
X157277380Y-142130952D01*
X158277380Y-141797619D01*
X157753571Y-141130952D02*
X157801190Y-140988095D01*
X157848809Y-140940476D01*
X157944047Y-140892857D01*
X158086904Y-140892857D01*
X158182142Y-140940476D01*
X158229761Y-140988095D01*
X158277380Y-141083333D01*
X158277380Y-141464285D01*
X157277380Y-141464285D01*
X157277380Y-141130952D01*
X157325000Y-141035714D01*
X157372619Y-140988095D01*
X157467857Y-140940476D01*
X157563095Y-140940476D01*
X157658333Y-140988095D01*
X157705952Y-141035714D01*
X157753571Y-141130952D01*
X157753571Y-141464285D01*
X158277380Y-139988095D02*
X158277380Y-140464285D01*
X157277380Y-140464285D01*
X157753571Y-139654761D02*
X157753571Y-139321428D01*
X158277380Y-139178571D02*
X158277380Y-139654761D01*
X157277380Y-139654761D01*
X157277380Y-139178571D01*
X110047619Y-110702380D02*
X110047619Y-111511904D01*
X110095238Y-111607142D01*
X110142857Y-111654761D01*
X110238095Y-111702380D01*
X110428571Y-111702380D01*
X110523809Y-111654761D01*
X110571428Y-111607142D01*
X110619047Y-111511904D01*
X110619047Y-110702380D01*
X111047619Y-111416666D02*
X111523809Y-111416666D01*
X110952380Y-111702380D02*
X111285714Y-110702380D01*
X111619047Y-111702380D01*
X112523809Y-111702380D02*
X112190476Y-111226190D01*
X111952380Y-111702380D02*
X111952380Y-110702380D01*
X112333333Y-110702380D01*
X112428571Y-110750000D01*
X112476190Y-110797619D01*
X112523809Y-110892857D01*
X112523809Y-111035714D01*
X112476190Y-111130952D01*
X112428571Y-111178571D01*
X112333333Y-111226190D01*
X111952380Y-111226190D01*
X112809523Y-110702380D02*
X113380952Y-110702380D01*
X113095238Y-111702380D02*
X113095238Y-110702380D01*
X114428571Y-110797619D02*
X114476190Y-110750000D01*
X114571428Y-110702380D01*
X114809523Y-110702380D01*
X114904761Y-110750000D01*
X114952380Y-110797619D01*
X115000000Y-110892857D01*
X115000000Y-110988095D01*
X114952380Y-111130952D01*
X114380952Y-111702380D01*
X115000000Y-111702380D01*
X110047619Y-90702380D02*
X110047619Y-91511904D01*
X110095238Y-91607142D01*
X110142857Y-91654761D01*
X110238095Y-91702380D01*
X110428571Y-91702380D01*
X110523809Y-91654761D01*
X110571428Y-91607142D01*
X110619047Y-91511904D01*
X110619047Y-90702380D01*
X111047619Y-91416666D02*
X111523809Y-91416666D01*
X110952380Y-91702380D02*
X111285714Y-90702380D01*
X111619047Y-91702380D01*
X112523809Y-91702380D02*
X112190476Y-91226190D01*
X111952380Y-91702380D02*
X111952380Y-90702380D01*
X112333333Y-90702380D01*
X112428571Y-90750000D01*
X112476190Y-90797619D01*
X112523809Y-90892857D01*
X112523809Y-91035714D01*
X112476190Y-91130952D01*
X112428571Y-91178571D01*
X112333333Y-91226190D01*
X111952380Y-91226190D01*
X112809523Y-90702380D02*
X113380952Y-90702380D01*
X113095238Y-91702380D02*
X113095238Y-90702380D01*
X115000000Y-91702380D02*
X114428571Y-91702380D01*
X114714285Y-91702380D02*
X114714285Y-90702380D01*
X114619047Y-90845238D01*
X114523809Y-90940476D01*
X114428571Y-90988095D01*
X144047619Y-136845238D02*
X144523809Y-136511904D01*
X144047619Y-136273809D02*
X145047619Y-136273809D01*
X145047619Y-136654761D01*
X145000000Y-136750000D01*
X144952380Y-136797619D01*
X144857142Y-136845238D01*
X144714285Y-136845238D01*
X144619047Y-136797619D01*
X144571428Y-136750000D01*
X144523809Y-136654761D01*
X144523809Y-136273809D01*
X145047619Y-137178571D02*
X144047619Y-137845238D01*
X145047619Y-137845238D02*
X144047619Y-137178571D01*
X144047619Y-138226190D02*
X145047619Y-138226190D01*
X142547619Y-135964285D02*
X142547619Y-136535714D01*
X141547619Y-136250000D02*
X142547619Y-136250000D01*
X142547619Y-136773809D02*
X141547619Y-137440476D01*
X142547619Y-137440476D02*
X141547619Y-136773809D01*
X142547619Y-138011904D02*
X142547619Y-138202380D01*
X142500000Y-138297619D01*
X142404761Y-138392857D01*
X142214285Y-138440476D01*
X141880952Y-138440476D01*
X141690476Y-138392857D01*
X141595238Y-138297619D01*
X141547619Y-138202380D01*
X141547619Y-138011904D01*
X141595238Y-137916666D01*
X141690476Y-137821428D01*
X141880952Y-137773809D01*
X142214285Y-137773809D01*
X142404761Y-137821428D01*
X142500000Y-137916666D01*
X142547619Y-138011904D01*
X140047619Y-137059523D02*
X140047619Y-136583333D01*
X139571428Y-136535714D01*
X139619047Y-136583333D01*
X139666666Y-136678571D01*
X139666666Y-136916666D01*
X139619047Y-137011904D01*
X139571428Y-137059523D01*
X139476190Y-137107142D01*
X139238095Y-137107142D01*
X139142857Y-137059523D01*
X139095238Y-137011904D01*
X139047619Y-136916666D01*
X139047619Y-136678571D01*
X139095238Y-136583333D01*
X139142857Y-136535714D01*
X140047619Y-137392857D02*
X139047619Y-137726190D01*
X140047619Y-138059523D01*
X136642857Y-136702380D02*
X136595238Y-136654761D01*
X136547619Y-136511904D01*
X136547619Y-136416666D01*
X136595238Y-136273809D01*
X136690476Y-136178571D01*
X136785714Y-136130952D01*
X136976190Y-136083333D01*
X137119047Y-136083333D01*
X137309523Y-136130952D01*
X137404761Y-136178571D01*
X137500000Y-136273809D01*
X137547619Y-136416666D01*
X137547619Y-136511904D01*
X137500000Y-136654761D01*
X137452380Y-136702380D01*
X137547619Y-136988095D02*
X137547619Y-137559523D01*
X136547619Y-137273809D02*
X137547619Y-137273809D01*
X136595238Y-137845238D02*
X136547619Y-137988095D01*
X136547619Y-138226190D01*
X136595238Y-138321428D01*
X136642857Y-138369047D01*
X136738095Y-138416666D01*
X136833333Y-138416666D01*
X136928571Y-138369047D01*
X136976190Y-138321428D01*
X137023809Y-138226190D01*
X137071428Y-138035714D01*
X137119047Y-137940476D01*
X137166666Y-137892857D01*
X137261904Y-137845238D01*
X137357142Y-137845238D01*
X137452380Y-137892857D01*
X137500000Y-137940476D01*
X137547619Y-138035714D01*
X137547619Y-138273809D01*
X137500000Y-138416666D01*
X146797619Y-136107142D02*
X147797619Y-136107142D01*
X147797619Y-136345238D01*
X147750000Y-136488095D01*
X147654761Y-136583333D01*
X147559523Y-136630952D01*
X147369047Y-136678571D01*
X147226190Y-136678571D01*
X147035714Y-136630952D01*
X146940476Y-136583333D01*
X146845238Y-136488095D01*
X146797619Y-136345238D01*
X146797619Y-136107142D01*
X147797619Y-136964285D02*
X147797619Y-137535714D01*
X146797619Y-137250000D02*
X147797619Y-137250000D01*
X146797619Y-138440476D02*
X147273809Y-138107142D01*
X146797619Y-137869047D02*
X147797619Y-137869047D01*
X147797619Y-138250000D01*
X147750000Y-138345238D01*
X147702380Y-138392857D01*
X147607142Y-138440476D01*
X147464285Y-138440476D01*
X147369047Y-138392857D01*
X147321428Y-138345238D01*
X147273809Y-138250000D01*
X147273809Y-137869047D01*
X135000000Y-136488095D02*
X135047619Y-136392857D01*
X135047619Y-136250000D01*
X135000000Y-136107142D01*
X134904761Y-136011904D01*
X134809523Y-135964285D01*
X134619047Y-135916666D01*
X134476190Y-135916666D01*
X134285714Y-135964285D01*
X134190476Y-136011904D01*
X134095238Y-136107142D01*
X134047619Y-136250000D01*
X134047619Y-136345238D01*
X134095238Y-136488095D01*
X134142857Y-136535714D01*
X134476190Y-136535714D01*
X134476190Y-136345238D01*
X134047619Y-136964285D02*
X135047619Y-136964285D01*
X134047619Y-137535714D01*
X135047619Y-137535714D01*
X134047619Y-138011904D02*
X135047619Y-138011904D01*
X135047619Y-138250000D01*
X135000000Y-138392857D01*
X134904761Y-138488095D01*
X134809523Y-138535714D01*
X134619047Y-138583333D01*
X134476190Y-138583333D01*
X134285714Y-138535714D01*
X134190476Y-138488095D01*
X134095238Y-138392857D01*
X134047619Y-138250000D01*
X134047619Y-138011904D01*
X146797619Y-109607142D02*
X147797619Y-109607142D01*
X147797619Y-109845238D01*
X147750000Y-109988095D01*
X147654761Y-110083333D01*
X147559523Y-110130952D01*
X147369047Y-110178571D01*
X147226190Y-110178571D01*
X147035714Y-110130952D01*
X146940476Y-110083333D01*
X146845238Y-109988095D01*
X146797619Y-109845238D01*
X146797619Y-109607142D01*
X147797619Y-110464285D02*
X147797619Y-111035714D01*
X146797619Y-110750000D02*
X147797619Y-110750000D01*
X146797619Y-111940476D02*
X147273809Y-111607142D01*
X146797619Y-111369047D02*
X147797619Y-111369047D01*
X147797619Y-111750000D01*
X147750000Y-111845238D01*
X147702380Y-111892857D01*
X147607142Y-111940476D01*
X147464285Y-111940476D01*
X147369047Y-111892857D01*
X147321428Y-111845238D01*
X147273809Y-111750000D01*
X147273809Y-111369047D01*
X144047619Y-110345238D02*
X144523809Y-110011904D01*
X144047619Y-109773809D02*
X145047619Y-109773809D01*
X145047619Y-110154761D01*
X145000000Y-110250000D01*
X144952380Y-110297619D01*
X144857142Y-110345238D01*
X144714285Y-110345238D01*
X144619047Y-110297619D01*
X144571428Y-110250000D01*
X144523809Y-110154761D01*
X144523809Y-109773809D01*
X145047619Y-110678571D02*
X144047619Y-111345238D01*
X145047619Y-111345238D02*
X144047619Y-110678571D01*
X144047619Y-111726190D02*
X145047619Y-111726190D01*
X142547619Y-109464285D02*
X142547619Y-110035714D01*
X141547619Y-109750000D02*
X142547619Y-109750000D01*
X142547619Y-110273809D02*
X141547619Y-110940476D01*
X142547619Y-110940476D02*
X141547619Y-110273809D01*
X142547619Y-111511904D02*
X142547619Y-111702380D01*
X142500000Y-111797619D01*
X142404761Y-111892857D01*
X142214285Y-111940476D01*
X141880952Y-111940476D01*
X141690476Y-111892857D01*
X141595238Y-111797619D01*
X141547619Y-111702380D01*
X141547619Y-111511904D01*
X141595238Y-111416666D01*
X141690476Y-111321428D01*
X141880952Y-111273809D01*
X142214285Y-111273809D01*
X142404761Y-111321428D01*
X142500000Y-111416666D01*
X142547619Y-111511904D01*
X140047619Y-110559523D02*
X140047619Y-110083333D01*
X139571428Y-110035714D01*
X139619047Y-110083333D01*
X139666666Y-110178571D01*
X139666666Y-110416666D01*
X139619047Y-110511904D01*
X139571428Y-110559523D01*
X139476190Y-110607142D01*
X139238095Y-110607142D01*
X139142857Y-110559523D01*
X139095238Y-110511904D01*
X139047619Y-110416666D01*
X139047619Y-110178571D01*
X139095238Y-110083333D01*
X139142857Y-110035714D01*
X140047619Y-110892857D02*
X139047619Y-111226190D01*
X140047619Y-111559523D01*
X136642857Y-110202380D02*
X136595238Y-110154761D01*
X136547619Y-110011904D01*
X136547619Y-109916666D01*
X136595238Y-109773809D01*
X136690476Y-109678571D01*
X136785714Y-109630952D01*
X136976190Y-109583333D01*
X137119047Y-109583333D01*
X137309523Y-109630952D01*
X137404761Y-109678571D01*
X137500000Y-109773809D01*
X137547619Y-109916666D01*
X137547619Y-110011904D01*
X137500000Y-110154761D01*
X137452380Y-110202380D01*
X137547619Y-110488095D02*
X137547619Y-111059523D01*
X136547619Y-110773809D02*
X137547619Y-110773809D01*
X136595238Y-111345238D02*
X136547619Y-111488095D01*
X136547619Y-111726190D01*
X136595238Y-111821428D01*
X136642857Y-111869047D01*
X136738095Y-111916666D01*
X136833333Y-111916666D01*
X136928571Y-111869047D01*
X136976190Y-111821428D01*
X137023809Y-111726190D01*
X137071428Y-111535714D01*
X137119047Y-111440476D01*
X137166666Y-111392857D01*
X137261904Y-111345238D01*
X137357142Y-111345238D01*
X137452380Y-111392857D01*
X137500000Y-111440476D01*
X137547619Y-111535714D01*
X137547619Y-111773809D01*
X137500000Y-111916666D01*
X135000000Y-109988095D02*
X135047619Y-109892857D01*
X135047619Y-109750000D01*
X135000000Y-109607142D01*
X134904761Y-109511904D01*
X134809523Y-109464285D01*
X134619047Y-109416666D01*
X134476190Y-109416666D01*
X134285714Y-109464285D01*
X134190476Y-109511904D01*
X134095238Y-109607142D01*
X134047619Y-109750000D01*
X134047619Y-109845238D01*
X134095238Y-109988095D01*
X134142857Y-110035714D01*
X134476190Y-110035714D01*
X134476190Y-109845238D01*
X134047619Y-110464285D02*
X135047619Y-110464285D01*
X134047619Y-111035714D01*
X135047619Y-111035714D01*
X134047619Y-111511904D02*
X135047619Y-111511904D01*
X135047619Y-111750000D01*
X135000000Y-111892857D01*
X134904761Y-111988095D01*
X134809523Y-112035714D01*
X134619047Y-112083333D01*
X134476190Y-112083333D01*
X134285714Y-112035714D01*
X134190476Y-111988095D01*
X134095238Y-111892857D01*
X134047619Y-111750000D01*
X134047619Y-111511904D01*
X133500000Y-122452380D02*
X134071428Y-122452380D01*
X133785714Y-123452380D02*
X133785714Y-122452380D01*
X134309523Y-122452380D02*
X134976190Y-123452380D01*
X134976190Y-122452380D02*
X134309523Y-123452380D01*
X136595238Y-123452380D02*
X136119047Y-123452380D01*
X136119047Y-122452380D01*
X136928571Y-122928571D02*
X137261904Y-122928571D01*
X137404761Y-123452380D02*
X136928571Y-123452380D01*
X136928571Y-122452380D01*
X137404761Y-122452380D01*
X137833333Y-123452380D02*
X137833333Y-122452380D01*
X138071428Y-122452380D01*
X138214285Y-122500000D01*
X138309523Y-122595238D01*
X138357142Y-122690476D01*
X138404761Y-122880952D01*
X138404761Y-123023809D01*
X138357142Y-123214285D01*
X138309523Y-123309523D01*
X138214285Y-123404761D01*
X138071428Y-123452380D01*
X137833333Y-123452380D01*
X134095238Y-119952380D02*
X133761904Y-119476190D01*
X133523809Y-119952380D02*
X133523809Y-118952380D01*
X133904761Y-118952380D01*
X134000000Y-119000000D01*
X134047619Y-119047619D01*
X134095238Y-119142857D01*
X134095238Y-119285714D01*
X134047619Y-119380952D01*
X134000000Y-119428571D01*
X133904761Y-119476190D01*
X133523809Y-119476190D01*
X134428571Y-118952380D02*
X135095238Y-119952380D01*
X135095238Y-118952380D02*
X134428571Y-119952380D01*
X136714285Y-119952380D02*
X136238095Y-119952380D01*
X136238095Y-118952380D01*
X137047619Y-119428571D02*
X137380952Y-119428571D01*
X137523809Y-119952380D02*
X137047619Y-119952380D01*
X137047619Y-118952380D01*
X137523809Y-118952380D01*
X137952380Y-119952380D02*
X137952380Y-118952380D01*
X138190476Y-118952380D01*
X138333333Y-119000000D01*
X138428571Y-119095238D01*
X138476190Y-119190476D01*
X138523809Y-119380952D01*
X138523809Y-119523809D01*
X138476190Y-119714285D01*
X138428571Y-119809523D01*
X138333333Y-119904761D01*
X138190476Y-119952380D01*
X137952380Y-119952380D01*
X145976190Y-127821428D02*
X146738095Y-127821428D01*
X146357142Y-128202380D02*
X146357142Y-127440476D01*
X147690476Y-127202380D02*
X147214285Y-127202380D01*
X147166666Y-127678571D01*
X147214285Y-127630952D01*
X147309523Y-127583333D01*
X147547619Y-127583333D01*
X147642857Y-127630952D01*
X147690476Y-127678571D01*
X147738095Y-127773809D01*
X147738095Y-128011904D01*
X147690476Y-128107142D01*
X147642857Y-128154761D01*
X147547619Y-128202380D01*
X147309523Y-128202380D01*
X147214285Y-128154761D01*
X147166666Y-128107142D01*
X148023809Y-127202380D02*
X148357142Y-128202380D01*
X148690476Y-127202380D01*
X150261904Y-128202380D02*
X149785714Y-128202380D01*
X149785714Y-127202380D01*
X150595238Y-127678571D02*
X150928571Y-127678571D01*
X151071428Y-128202380D02*
X150595238Y-128202380D01*
X150595238Y-127202380D01*
X151071428Y-127202380D01*
X151500000Y-128202380D02*
X151500000Y-127202380D01*
X151738095Y-127202380D01*
X151880952Y-127250000D01*
X151976190Y-127345238D01*
X152023809Y-127440476D01*
X152071428Y-127630952D01*
X152071428Y-127773809D01*
X152023809Y-127964285D01*
X151976190Y-128059523D01*
X151880952Y-128154761D01*
X151738095Y-128202380D01*
X151500000Y-128202380D01*
X132000000Y-93952380D02*
X132571428Y-93952380D01*
X132285714Y-94952380D02*
X132285714Y-93952380D01*
X132809523Y-93952380D02*
X133476190Y-94952380D01*
X133476190Y-93952380D02*
X132809523Y-94952380D01*
X135095238Y-94952380D02*
X134619047Y-94952380D01*
X134619047Y-93952380D01*
X135428571Y-94428571D02*
X135761904Y-94428571D01*
X135904761Y-94952380D02*
X135428571Y-94952380D01*
X135428571Y-93952380D01*
X135904761Y-93952380D01*
X136333333Y-94952380D02*
X136333333Y-93952380D01*
X136571428Y-93952380D01*
X136714285Y-94000000D01*
X136809523Y-94095238D01*
X136857142Y-94190476D01*
X136904761Y-94380952D01*
X136904761Y-94523809D01*
X136857142Y-94714285D01*
X136809523Y-94809523D01*
X136714285Y-94904761D01*
X136571428Y-94952380D01*
X136333333Y-94952380D01*
X132595238Y-91452380D02*
X132261904Y-90976190D01*
X132023809Y-91452380D02*
X132023809Y-90452380D01*
X132404761Y-90452380D01*
X132500000Y-90500000D01*
X132547619Y-90547619D01*
X132595238Y-90642857D01*
X132595238Y-90785714D01*
X132547619Y-90880952D01*
X132500000Y-90928571D01*
X132404761Y-90976190D01*
X132023809Y-90976190D01*
X132928571Y-90452380D02*
X133595238Y-91452380D01*
X133595238Y-90452380D02*
X132928571Y-91452380D01*
X135214285Y-91452380D02*
X134738095Y-91452380D01*
X134738095Y-90452380D01*
X135547619Y-90928571D02*
X135880952Y-90928571D01*
X136023809Y-91452380D02*
X135547619Y-91452380D01*
X135547619Y-90452380D01*
X136023809Y-90452380D01*
X136452380Y-91452380D02*
X136452380Y-90452380D01*
X136690476Y-90452380D01*
X136833333Y-90500000D01*
X136928571Y-90595238D01*
X136976190Y-90690476D01*
X137023809Y-90880952D01*
X137023809Y-91023809D01*
X136976190Y-91214285D01*
X136928571Y-91309523D01*
X136833333Y-91404761D01*
X136690476Y-91452380D01*
X136452380Y-91452380D01*
X186500000Y-72750000D02*
X154500000Y-72750000D01*
X186500000Y-90250000D02*
X186500000Y-72750000D01*
X154500000Y-90250000D02*
X186500000Y-90250000D01*
X154500000Y-72750000D02*
X154500000Y-90250000D01*
X156857142Y-86464285D02*
X159142857Y-86464285D01*
X158000000Y-87607142D02*
X158000000Y-85321428D01*
X182857142Y-86464285D02*
X185142857Y-86464285D01*
X136857142Y-86464285D02*
X139142857Y-86464285D01*
X140500000Y-89750000D02*
X108500000Y-89750000D01*
X140500000Y-72750000D02*
X140500000Y-89750000D01*
X108500000Y-72750000D02*
X140500000Y-72750000D01*
X108500000Y-89750000D02*
X108500000Y-72750000D01*
X110357142Y-86464285D02*
X112642857Y-86464285D01*
X111500000Y-87607142D02*
X111500000Y-85321428D01*
D11*
X108896214Y-162544285D02*
X108539071Y-162544285D01*
X108539071Y-161794285D01*
X109146214Y-162544285D02*
X109146214Y-161794285D01*
X109396214Y-162330000D01*
X109646214Y-161794285D01*
X109646214Y-162544285D01*
X109967642Y-162508571D02*
X110074785Y-162544285D01*
X110253357Y-162544285D01*
X110324785Y-162508571D01*
X110360500Y-162472857D01*
X110396214Y-162401428D01*
X110396214Y-162330000D01*
X110360500Y-162258571D01*
X110324785Y-162222857D01*
X110253357Y-162187142D01*
X110110500Y-162151428D01*
X110039071Y-162115714D01*
X110003357Y-162080000D01*
X109967642Y-162008571D01*
X109967642Y-161937142D01*
X110003357Y-161865714D01*
X110039071Y-161830000D01*
X110110500Y-161794285D01*
X110289071Y-161794285D01*
X110396214Y-161830000D01*
X111039071Y-161794285D02*
X110896214Y-161794285D01*
X110824785Y-161830000D01*
X110789071Y-161865714D01*
X110717642Y-161972857D01*
X110681928Y-162115714D01*
X110681928Y-162401428D01*
X110717642Y-162472857D01*
X110753357Y-162508571D01*
X110824785Y-162544285D01*
X110967642Y-162544285D01*
X111039071Y-162508571D01*
X111074785Y-162472857D01*
X111110500Y-162401428D01*
X111110500Y-162222857D01*
X111074785Y-162151428D01*
X111039071Y-162115714D01*
X110967642Y-162080000D01*
X110824785Y-162080000D01*
X110753357Y-162115714D01*
X110717642Y-162151428D01*
X110681928Y-162222857D01*
X112003357Y-162544285D02*
X112003357Y-161794285D01*
X112360500Y-162544285D02*
X112360500Y-161794285D01*
X112789071Y-162544285D01*
X112789071Y-161794285D01*
X113039071Y-161794285D02*
X113467642Y-161794285D01*
X113253357Y-162544285D02*
X113253357Y-161794285D01*
X113717642Y-162151428D02*
X113967642Y-162151428D01*
X114074785Y-162544285D02*
X113717642Y-162544285D01*
X113717642Y-161794285D01*
X114074785Y-161794285D01*
X114824785Y-162544285D02*
X114574785Y-162187142D01*
X114396214Y-162544285D02*
X114396214Y-161794285D01*
X114681928Y-161794285D01*
X114753357Y-161830000D01*
X114789071Y-161865714D01*
X114824785Y-161937142D01*
X114824785Y-162044285D01*
X114789071Y-162115714D01*
X114753357Y-162151428D01*
X114681928Y-162187142D01*
X114396214Y-162187142D01*
X115396214Y-162151428D02*
X115146214Y-162151428D01*
X115146214Y-162544285D02*
X115146214Y-161794285D01*
X115503357Y-161794285D01*
X115753357Y-162330000D02*
X116110500Y-162330000D01*
X115681928Y-162544285D02*
X115931928Y-161794285D01*
X116181928Y-162544285D01*
X116860500Y-162472857D02*
X116824785Y-162508571D01*
X116717642Y-162544285D01*
X116646214Y-162544285D01*
X116539071Y-162508571D01*
X116467642Y-162437142D01*
X116431928Y-162365714D01*
X116396214Y-162222857D01*
X116396214Y-162115714D01*
X116431928Y-161972857D01*
X116467642Y-161901428D01*
X116539071Y-161830000D01*
X116646214Y-161794285D01*
X116717642Y-161794285D01*
X116824785Y-161830000D01*
X116860500Y-161865714D01*
X117181928Y-162151428D02*
X117431928Y-162151428D01*
X117539071Y-162544285D02*
X117181928Y-162544285D01*
X117181928Y-161794285D01*
X117539071Y-161794285D01*
X108967642Y-163839285D02*
X108717642Y-163482142D01*
X108539071Y-163839285D02*
X108539071Y-163089285D01*
X108824785Y-163089285D01*
X108896214Y-163125000D01*
X108931928Y-163160714D01*
X108967642Y-163232142D01*
X108967642Y-163339285D01*
X108931928Y-163410714D01*
X108896214Y-163446428D01*
X108824785Y-163482142D01*
X108539071Y-163482142D01*
X109289071Y-163446428D02*
X109539071Y-163446428D01*
X109646214Y-163839285D02*
X109289071Y-163839285D01*
X109289071Y-163089285D01*
X109646214Y-163089285D01*
X109860500Y-163089285D02*
X110110500Y-163839285D01*
X110360500Y-163089285D01*
X110610500Y-163767857D02*
X110646214Y-163803571D01*
X110610500Y-163839285D01*
X110574785Y-163803571D01*
X110610500Y-163767857D01*
X110610500Y-163839285D01*
X111967642Y-163767857D02*
X111931928Y-163803571D01*
X111824785Y-163839285D01*
X111753357Y-163839285D01*
X111646214Y-163803571D01*
X111574785Y-163732142D01*
X111539071Y-163660714D01*
X111503357Y-163517857D01*
X111503357Y-163410714D01*
X111539071Y-163267857D01*
X111574785Y-163196428D01*
X111646214Y-163125000D01*
X111753357Y-163089285D01*
X111824785Y-163089285D01*
X111931928Y-163125000D01*
X111967642Y-163160714D01*
X108931928Y-164420000D02*
X108860500Y-164384285D01*
X108753357Y-164384285D01*
X108646214Y-164420000D01*
X108574785Y-164491428D01*
X108539071Y-164562857D01*
X108503357Y-164705714D01*
X108503357Y-164812857D01*
X108539071Y-164955714D01*
X108574785Y-165027142D01*
X108646214Y-165098571D01*
X108753357Y-165134285D01*
X108824785Y-165134285D01*
X108931928Y-165098571D01*
X108967642Y-165062857D01*
X108967642Y-164812857D01*
X108824785Y-164812857D01*
X109289071Y-165134285D02*
X109289071Y-164384285D01*
X109574785Y-164384285D01*
X109646214Y-164420000D01*
X109681928Y-164455714D01*
X109717642Y-164527142D01*
X109717642Y-164634285D01*
X109681928Y-164705714D01*
X109646214Y-164741428D01*
X109574785Y-164777142D01*
X109289071Y-164777142D01*
X110396214Y-165134285D02*
X110039071Y-165134285D01*
X110039071Y-164384285D01*
X111146214Y-164384285D02*
X111610500Y-164384285D01*
X111360500Y-164670000D01*
X111467642Y-164670000D01*
X111539071Y-164705714D01*
X111574785Y-164741428D01*
X111610500Y-164812857D01*
X111610500Y-164991428D01*
X111574785Y-165062857D01*
X111539071Y-165098571D01*
X111467642Y-165134285D01*
X111253357Y-165134285D01*
X111181928Y-165098571D01*
X111146214Y-165062857D01*
X111931928Y-165062857D02*
X111967642Y-165098571D01*
X111931928Y-165134285D01*
X111896214Y-165098571D01*
X111931928Y-165062857D01*
X111931928Y-165134285D01*
X112431928Y-164384285D02*
X112503357Y-164384285D01*
X112574785Y-164420000D01*
X112610500Y-164455714D01*
X112646214Y-164527142D01*
X112681928Y-164670000D01*
X112681928Y-164848571D01*
X112646214Y-164991428D01*
X112610500Y-165062857D01*
X112574785Y-165098571D01*
X112503357Y-165134285D01*
X112431928Y-165134285D01*
X112360500Y-165098571D01*
X112324785Y-165062857D01*
X112289071Y-164991428D01*
X112253357Y-164848571D01*
X112253357Y-164670000D01*
X112289071Y-164527142D01*
X112324785Y-164455714D01*
X112360500Y-164420000D01*
X112431928Y-164384285D01*
D10*
X109329761Y-136642857D02*
X109377380Y-136500000D01*
X109377380Y-136261904D01*
X109329761Y-136166666D01*
X109282142Y-136119047D01*
X109186904Y-136071428D01*
X109091666Y-136071428D01*
X108996428Y-136119047D01*
X108948809Y-136166666D01*
X108901190Y-136261904D01*
X108853571Y-136452380D01*
X108805952Y-136547619D01*
X108758333Y-136595238D01*
X108663095Y-136642857D01*
X108567857Y-136642857D01*
X108472619Y-136595238D01*
X108425000Y-136547619D01*
X108377380Y-136452380D01*
X108377380Y-136214285D01*
X108425000Y-136071428D01*
X108377380Y-135785714D02*
X108377380Y-135214285D01*
X109377380Y-135500000D02*
X108377380Y-135500000D01*
X108377380Y-134976190D02*
X108377380Y-134309523D01*
X109377380Y-134738095D01*
X111027380Y-140309523D02*
X110027380Y-140309523D01*
X110027380Y-139928571D01*
X110075000Y-139833333D01*
X110122619Y-139785714D01*
X110217857Y-139738095D01*
X110360714Y-139738095D01*
X110455952Y-139785714D01*
X110503571Y-139833333D01*
X110551190Y-139928571D01*
X110551190Y-140309523D01*
X111027380Y-138738095D02*
X110551190Y-139071428D01*
X111027380Y-139309523D02*
X110027380Y-139309523D01*
X110027380Y-138928571D01*
X110075000Y-138833333D01*
X110122619Y-138785714D01*
X110217857Y-138738095D01*
X110360714Y-138738095D01*
X110455952Y-138785714D01*
X110503571Y-138833333D01*
X110551190Y-138928571D01*
X110551190Y-139309523D01*
X110027380Y-138119047D02*
X110027380Y-137928571D01*
X110075000Y-137833333D01*
X110170238Y-137738095D01*
X110360714Y-137690476D01*
X110694047Y-137690476D01*
X110884523Y-137738095D01*
X110979761Y-137833333D01*
X111027380Y-137928571D01*
X111027380Y-138119047D01*
X110979761Y-138214285D01*
X110884523Y-138309523D01*
X110694047Y-138357142D01*
X110360714Y-138357142D01*
X110170238Y-138309523D01*
X110075000Y-138214285D01*
X110027380Y-138119047D01*
X110075000Y-136738095D02*
X110027380Y-136833333D01*
X110027380Y-136976190D01*
X110075000Y-137119047D01*
X110170238Y-137214285D01*
X110265476Y-137261904D01*
X110455952Y-137309523D01*
X110598809Y-137309523D01*
X110789285Y-137261904D01*
X110884523Y-137214285D01*
X110979761Y-137119047D01*
X111027380Y-136976190D01*
X111027380Y-136880952D01*
X110979761Y-136738095D01*
X110932142Y-136690476D01*
X110598809Y-136690476D01*
X110598809Y-136880952D01*
X111027380Y-135690476D02*
X110551190Y-136023809D01*
X111027380Y-136261904D02*
X110027380Y-136261904D01*
X110027380Y-135880952D01*
X110075000Y-135785714D01*
X110122619Y-135738095D01*
X110217857Y-135690476D01*
X110360714Y-135690476D01*
X110455952Y-135738095D01*
X110503571Y-135785714D01*
X110551190Y-135880952D01*
X110551190Y-136261904D01*
X110741666Y-135309523D02*
X110741666Y-134833333D01*
X111027380Y-135404761D02*
X110027380Y-135071428D01*
X111027380Y-134738095D01*
X111027380Y-134404761D02*
X110027380Y-134404761D01*
X110741666Y-134071428D01*
X110027380Y-133738095D01*
X111027380Y-133738095D01*
X111027380Y-133261904D02*
X110027380Y-133261904D01*
X110741666Y-132928571D01*
X110027380Y-132595238D01*
X111027380Y-132595238D01*
X110503571Y-132119047D02*
X110503571Y-131785714D01*
X111027380Y-131642857D02*
X111027380Y-132119047D01*
X110027380Y-132119047D01*
X110027380Y-131642857D01*
X111027380Y-130642857D02*
X110551190Y-130976190D01*
X111027380Y-131214285D02*
X110027380Y-131214285D01*
X110027380Y-130833333D01*
X110075000Y-130738095D01*
X110122619Y-130690476D01*
X110217857Y-130642857D01*
X110360714Y-130642857D01*
X110455952Y-130690476D01*
X110503571Y-130738095D01*
X110551190Y-130833333D01*
X110551190Y-131214285D01*
X119857142Y-85385714D02*
X119857142Y-86052380D01*
X119619047Y-85004761D02*
X119380952Y-85719047D01*
X120000000Y-85719047D01*
X120380952Y-85957142D02*
X120428571Y-86004761D01*
X120380952Y-86052380D01*
X120333333Y-86004761D01*
X120380952Y-85957142D01*
X120380952Y-86052380D01*
X121333333Y-85052380D02*
X120857142Y-85052380D01*
X120809523Y-85528571D01*
X120857142Y-85480952D01*
X120952380Y-85433333D01*
X121190476Y-85433333D01*
X121285714Y-85480952D01*
X121333333Y-85528571D01*
X121380952Y-85623809D01*
X121380952Y-85861904D01*
X121333333Y-85957142D01*
X121285714Y-86004761D01*
X121190476Y-86052380D01*
X120952380Y-86052380D01*
X120857142Y-86004761D01*
X120809523Y-85957142D01*
X122428571Y-85052380D02*
X122761904Y-86052380D01*
X123095238Y-85052380D01*
X124047619Y-85052380D02*
X124619047Y-85052380D01*
X124333333Y-86052380D02*
X124333333Y-85052380D01*
X125142857Y-85052380D02*
X125333333Y-85052380D01*
X125428571Y-85100000D01*
X125523809Y-85195238D01*
X125571428Y-85385714D01*
X125571428Y-85719047D01*
X125523809Y-85909523D01*
X125428571Y-86004761D01*
X125333333Y-86052380D01*
X125142857Y-86052380D01*
X125047619Y-86004761D01*
X124952380Y-85909523D01*
X124904761Y-85719047D01*
X124904761Y-85385714D01*
X124952380Y-85195238D01*
X125047619Y-85100000D01*
X125142857Y-85052380D01*
X127285714Y-86052380D02*
X126714285Y-86052380D01*
X127000000Y-86052380D02*
X127000000Y-85052380D01*
X126904761Y-85195238D01*
X126809523Y-85290476D01*
X126714285Y-85338095D01*
X127857142Y-85480952D02*
X127761904Y-85433333D01*
X127714285Y-85385714D01*
X127666666Y-85290476D01*
X127666666Y-85242857D01*
X127714285Y-85147619D01*
X127761904Y-85100000D01*
X127857142Y-85052380D01*
X128047619Y-85052380D01*
X128142857Y-85100000D01*
X128190476Y-85147619D01*
X128238095Y-85242857D01*
X128238095Y-85290476D01*
X128190476Y-85385714D01*
X128142857Y-85433333D01*
X128047619Y-85480952D01*
X127857142Y-85480952D01*
X127761904Y-85528571D01*
X127714285Y-85576190D01*
X127666666Y-85671428D01*
X127666666Y-85861904D01*
X127714285Y-85957142D01*
X127761904Y-86004761D01*
X127857142Y-86052380D01*
X128047619Y-86052380D01*
X128142857Y-86004761D01*
X128190476Y-85957142D01*
X128238095Y-85861904D01*
X128238095Y-85671428D01*
X128190476Y-85576190D01*
X128142857Y-85528571D01*
X128047619Y-85480952D01*
X129285714Y-85052380D02*
X129619047Y-86052380D01*
X129952380Y-85052380D01*
X119095238Y-87702380D02*
X119095238Y-86702380D01*
X119476190Y-86702380D01*
X119571428Y-86750000D01*
X119619047Y-86797619D01*
X119666666Y-86892857D01*
X119666666Y-87035714D01*
X119619047Y-87130952D01*
X119571428Y-87178571D01*
X119476190Y-87226190D01*
X119095238Y-87226190D01*
X120285714Y-86702380D02*
X120476190Y-86702380D01*
X120571428Y-86750000D01*
X120666666Y-86845238D01*
X120714285Y-87035714D01*
X120714285Y-87369047D01*
X120666666Y-87559523D01*
X120571428Y-87654761D01*
X120476190Y-87702380D01*
X120285714Y-87702380D01*
X120190476Y-87654761D01*
X120095238Y-87559523D01*
X120047619Y-87369047D01*
X120047619Y-87035714D01*
X120095238Y-86845238D01*
X120190476Y-86750000D01*
X120285714Y-86702380D01*
X121047619Y-86702380D02*
X121285714Y-87702380D01*
X121476190Y-86988095D01*
X121666666Y-87702380D01*
X121904761Y-86702380D01*
X122285714Y-87178571D02*
X122619047Y-87178571D01*
X122761904Y-87702380D02*
X122285714Y-87702380D01*
X122285714Y-86702380D01*
X122761904Y-86702380D01*
X123761904Y-87702380D02*
X123428571Y-87226190D01*
X123190476Y-87702380D02*
X123190476Y-86702380D01*
X123571428Y-86702380D01*
X123666666Y-86750000D01*
X123714285Y-86797619D01*
X123761904Y-86892857D01*
X123761904Y-87035714D01*
X123714285Y-87130952D01*
X123666666Y-87178571D01*
X123571428Y-87226190D01*
X123190476Y-87226190D01*
X124904761Y-87654761D02*
X125047619Y-87702380D01*
X125285714Y-87702380D01*
X125380952Y-87654761D01*
X125428571Y-87607142D01*
X125476190Y-87511904D01*
X125476190Y-87416666D01*
X125428571Y-87321428D01*
X125380952Y-87273809D01*
X125285714Y-87226190D01*
X125095238Y-87178571D01*
X125000000Y-87130952D01*
X124952380Y-87083333D01*
X124904761Y-86988095D01*
X124904761Y-86892857D01*
X124952380Y-86797619D01*
X125000000Y-86750000D01*
X125095238Y-86702380D01*
X125333333Y-86702380D01*
X125476190Y-86750000D01*
X125904761Y-86702380D02*
X125904761Y-87511904D01*
X125952380Y-87607142D01*
X126000000Y-87654761D01*
X126095238Y-87702380D01*
X126285714Y-87702380D01*
X126380952Y-87654761D01*
X126428571Y-87607142D01*
X126476190Y-87511904D01*
X126476190Y-86702380D01*
X126952380Y-87702380D02*
X126952380Y-86702380D01*
X127333333Y-86702380D01*
X127428571Y-86750000D01*
X127476190Y-86797619D01*
X127523809Y-86892857D01*
X127523809Y-87035714D01*
X127476190Y-87130952D01*
X127428571Y-87178571D01*
X127333333Y-87226190D01*
X126952380Y-87226190D01*
X127952380Y-87702380D02*
X127952380Y-86702380D01*
X128333333Y-86702380D01*
X128428571Y-86750000D01*
X128476190Y-86797619D01*
X128523809Y-86892857D01*
X128523809Y-87035714D01*
X128476190Y-87130952D01*
X128428571Y-87178571D01*
X128333333Y-87226190D01*
X127952380Y-87226190D01*
X129428571Y-87702380D02*
X128952380Y-87702380D01*
X128952380Y-86702380D01*
X129952380Y-87226190D02*
X129952380Y-87702380D01*
X129619047Y-86702380D02*
X129952380Y-87226190D01*
X130285714Y-86702380D01*
X121119047Y-89257142D02*
X121071428Y-89304761D01*
X120928571Y-89352380D01*
X120833333Y-89352380D01*
X120690476Y-89304761D01*
X120595238Y-89209523D01*
X120547619Y-89114285D01*
X120500000Y-88923809D01*
X120500000Y-88780952D01*
X120547619Y-88590476D01*
X120595238Y-88495238D01*
X120690476Y-88400000D01*
X120833333Y-88352380D01*
X120928571Y-88352380D01*
X121071428Y-88400000D01*
X121119047Y-88447619D01*
X121738095Y-88352380D02*
X121928571Y-88352380D01*
X122023809Y-88400000D01*
X122119047Y-88495238D01*
X122166666Y-88685714D01*
X122166666Y-89019047D01*
X122119047Y-89209523D01*
X122023809Y-89304761D01*
X121928571Y-89352380D01*
X121738095Y-89352380D01*
X121642857Y-89304761D01*
X121547619Y-89209523D01*
X121500000Y-89019047D01*
X121500000Y-88685714D01*
X121547619Y-88495238D01*
X121642857Y-88400000D01*
X121738095Y-88352380D01*
X122595238Y-89352380D02*
X122595238Y-88352380D01*
X123166666Y-89352380D01*
X123166666Y-88352380D01*
X123642857Y-89352380D02*
X123642857Y-88352380D01*
X124214285Y-89352380D01*
X124214285Y-88352380D01*
X124690476Y-88828571D02*
X125023809Y-88828571D01*
X125166666Y-89352380D02*
X124690476Y-89352380D01*
X124690476Y-88352380D01*
X125166666Y-88352380D01*
X126166666Y-89257142D02*
X126119047Y-89304761D01*
X125976190Y-89352380D01*
X125880952Y-89352380D01*
X125738095Y-89304761D01*
X125642857Y-89209523D01*
X125595238Y-89114285D01*
X125547619Y-88923809D01*
X125547619Y-88780952D01*
X125595238Y-88590476D01*
X125642857Y-88495238D01*
X125738095Y-88400000D01*
X125880952Y-88352380D01*
X125976190Y-88352380D01*
X126119047Y-88400000D01*
X126166666Y-88447619D01*
X126452380Y-88352380D02*
X127023809Y-88352380D01*
X126738095Y-89352380D02*
X126738095Y-88352380D01*
X127357142Y-89352380D02*
X127357142Y-88352380D01*
X128023809Y-88352380D02*
X128214285Y-88352380D01*
X128309523Y-88400000D01*
X128404761Y-88495238D01*
X128452380Y-88685714D01*
X128452380Y-89019047D01*
X128404761Y-89209523D01*
X128309523Y-89304761D01*
X128214285Y-89352380D01*
X128023809Y-89352380D01*
X127928571Y-89304761D01*
X127833333Y-89209523D01*
X127785714Y-89019047D01*
X127785714Y-88685714D01*
X127833333Y-88495238D01*
X127928571Y-88400000D01*
X128023809Y-88352380D01*
X128880952Y-89352380D02*
X128880952Y-88352380D01*
X129452380Y-89352380D01*
X129452380Y-88352380D01*
X165738095Y-86552380D02*
X165738095Y-85552380D01*
X165976190Y-85552380D01*
X166119047Y-85600000D01*
X166214285Y-85695238D01*
X166261904Y-85790476D01*
X166309523Y-85980952D01*
X166309523Y-86123809D01*
X166261904Y-86314285D01*
X166214285Y-86409523D01*
X166119047Y-86504761D01*
X165976190Y-86552380D01*
X165738095Y-86552380D01*
X166738095Y-86552380D02*
X166738095Y-85552380D01*
X167785714Y-86552380D02*
X167452380Y-86076190D01*
X167214285Y-86552380D02*
X167214285Y-85552380D01*
X167595238Y-85552380D01*
X167690476Y-85600000D01*
X167738095Y-85647619D01*
X167785714Y-85742857D01*
X167785714Y-85885714D01*
X167738095Y-85980952D01*
X167690476Y-86028571D01*
X167595238Y-86076190D01*
X167214285Y-86076190D01*
X168214285Y-86028571D02*
X168547619Y-86028571D01*
X168690476Y-86552380D02*
X168214285Y-86552380D01*
X168214285Y-85552380D01*
X168690476Y-85552380D01*
X169690476Y-86457142D02*
X169642857Y-86504761D01*
X169500000Y-86552380D01*
X169404761Y-86552380D01*
X169261904Y-86504761D01*
X169166666Y-86409523D01*
X169119047Y-86314285D01*
X169071428Y-86123809D01*
X169071428Y-85980952D01*
X169119047Y-85790476D01*
X169166666Y-85695238D01*
X169261904Y-85600000D01*
X169404761Y-85552380D01*
X169500000Y-85552380D01*
X169642857Y-85600000D01*
X169690476Y-85647619D01*
X169976190Y-85552380D02*
X170547619Y-85552380D01*
X170261904Y-86552380D02*
X170261904Y-85552380D01*
X171642857Y-86552380D02*
X171642857Y-85552380D01*
X172023809Y-85552380D01*
X172119047Y-85600000D01*
X172166666Y-85647619D01*
X172214285Y-85742857D01*
X172214285Y-85885714D01*
X172166666Y-85980952D01*
X172119047Y-86028571D01*
X172023809Y-86076190D01*
X171642857Y-86076190D01*
X172833333Y-85552380D02*
X173023809Y-85552380D01*
X173119047Y-85600000D01*
X173214285Y-85695238D01*
X173261904Y-85885714D01*
X173261904Y-86219047D01*
X173214285Y-86409523D01*
X173119047Y-86504761D01*
X173023809Y-86552380D01*
X172833333Y-86552380D01*
X172738095Y-86504761D01*
X172642857Y-86409523D01*
X172595238Y-86219047D01*
X172595238Y-85885714D01*
X172642857Y-85695238D01*
X172738095Y-85600000D01*
X172833333Y-85552380D01*
X173595238Y-85552380D02*
X173833333Y-86552380D01*
X174023809Y-85838095D01*
X174214285Y-86552380D01*
X174452380Y-85552380D01*
X174833333Y-86028571D02*
X175166666Y-86028571D01*
X175309523Y-86552380D02*
X174833333Y-86552380D01*
X174833333Y-85552380D01*
X175309523Y-85552380D01*
X176309523Y-86552380D02*
X175976190Y-86076190D01*
X175738095Y-86552380D02*
X175738095Y-85552380D01*
X176119047Y-85552380D01*
X176214285Y-85600000D01*
X176261904Y-85647619D01*
X176309523Y-85742857D01*
X176309523Y-85885714D01*
X176261904Y-85980952D01*
X176214285Y-86028571D01*
X176119047Y-86076190D01*
X175738095Y-86076190D01*
X169785714Y-88202380D02*
X169309523Y-88202380D01*
X169309523Y-87202380D01*
X170119047Y-88202380D02*
X170119047Y-87202380D01*
X170452380Y-87916666D01*
X170785714Y-87202380D01*
X170785714Y-88202380D01*
X171214285Y-88154761D02*
X171357142Y-88202380D01*
X171595238Y-88202380D01*
X171690476Y-88154761D01*
X171738095Y-88107142D01*
X171785714Y-88011904D01*
X171785714Y-87916666D01*
X171738095Y-87821428D01*
X171690476Y-87773809D01*
X171595238Y-87726190D01*
X171404761Y-87678571D01*
X171309523Y-87630952D01*
X171261904Y-87583333D01*
X171214285Y-87488095D01*
X171214285Y-87392857D01*
X171261904Y-87297619D01*
X171309523Y-87250000D01*
X171404761Y-87202380D01*
X171642857Y-87202380D01*
X171785714Y-87250000D01*
X172642857Y-87202380D02*
X172452380Y-87202380D01*
X172357142Y-87250000D01*
X172309523Y-87297619D01*
X172214285Y-87440476D01*
X172166666Y-87630952D01*
X172166666Y-88011904D01*
X172214285Y-88107142D01*
X172261904Y-88154761D01*
X172357142Y-88202380D01*
X172547619Y-88202380D01*
X172642857Y-88154761D01*
X172690476Y-88107142D01*
X172738095Y-88011904D01*
X172738095Y-87773809D01*
X172690476Y-87678571D01*
X172642857Y-87630952D01*
X172547619Y-87583333D01*
X172357142Y-87583333D01*
X172261904Y-87630952D01*
X172214285Y-87678571D01*
X172166666Y-87773809D01*
X166333333Y-88852380D02*
X166333333Y-89090476D01*
X166095238Y-88995238D02*
X166333333Y-89090476D01*
X166571428Y-88995238D01*
X166190476Y-89280952D02*
X166333333Y-89090476D01*
X166476190Y-89280952D01*
X167095238Y-88852380D02*
X167095238Y-89090476D01*
X166857142Y-88995238D02*
X167095238Y-89090476D01*
X167333333Y-88995238D01*
X166952380Y-89280952D02*
X167095238Y-89090476D01*
X167238095Y-89280952D01*
X168523809Y-89852380D02*
X168714285Y-89852380D01*
X168809523Y-89804761D01*
X168857142Y-89757142D01*
X168952380Y-89614285D01*
X169000000Y-89423809D01*
X169000000Y-89042857D01*
X168952380Y-88947619D01*
X168904761Y-88900000D01*
X168809523Y-88852380D01*
X168619047Y-88852380D01*
X168523809Y-88900000D01*
X168476190Y-88947619D01*
X168428571Y-89042857D01*
X168428571Y-89280952D01*
X168476190Y-89376190D01*
X168523809Y-89423809D01*
X168619047Y-89471428D01*
X168809523Y-89471428D01*
X168904761Y-89423809D01*
X168952380Y-89376190D01*
X169000000Y-89280952D01*
X169285714Y-88852380D02*
X169619047Y-89852380D01*
X169952380Y-88852380D01*
X171047619Y-89852380D02*
X171047619Y-88852380D01*
X171380952Y-89566666D01*
X171714285Y-88852380D01*
X171714285Y-89852380D01*
X172142857Y-89566666D02*
X172619047Y-89566666D01*
X172047619Y-89852380D02*
X172380952Y-88852380D01*
X172714285Y-89852380D01*
X172952380Y-88852380D02*
X173619047Y-89852380D01*
X173619047Y-88852380D02*
X172952380Y-89852380D01*
X174904761Y-88852380D02*
X174904761Y-89090476D01*
X174666666Y-88995238D02*
X174904761Y-89090476D01*
X175142857Y-88995238D01*
X174761904Y-89280952D02*
X174904761Y-89090476D01*
X175047619Y-89280952D01*
X175666666Y-88852380D02*
X175666666Y-89090476D01*
X175428571Y-88995238D02*
X175666666Y-89090476D01*
X175904761Y-88995238D01*
X175523809Y-89280952D02*
X175666666Y-89090476D01*
X175809523Y-89280952D01*
X151666666Y-93702380D02*
X152285714Y-93702380D01*
X151952380Y-94083333D01*
X152095238Y-94083333D01*
X152190476Y-94130952D01*
X152238095Y-94178571D01*
X152285714Y-94273809D01*
X152285714Y-94511904D01*
X152238095Y-94607142D01*
X152190476Y-94654761D01*
X152095238Y-94702380D01*
X151809523Y-94702380D01*
X151714285Y-94654761D01*
X151666666Y-94607142D01*
X151714285Y-91297619D02*
X151761904Y-91250000D01*
X151857142Y-91202380D01*
X152095238Y-91202380D01*
X152190476Y-91250000D01*
X152238095Y-91297619D01*
X152285714Y-91392857D01*
X152285714Y-91488095D01*
X152238095Y-91630952D01*
X151666666Y-92202380D01*
X152285714Y-92202380D01*
X152285714Y-89702380D02*
X151714285Y-89702380D01*
X152000000Y-89702380D02*
X152000000Y-88702380D01*
X151904761Y-88845238D01*
X151809523Y-88940476D01*
X151714285Y-88988095D01*
X163916666Y-139952380D02*
X164535714Y-139952380D01*
X164202380Y-140333333D01*
X164345238Y-140333333D01*
X164440476Y-140380952D01*
X164488095Y-140428571D01*
X164535714Y-140523809D01*
X164535714Y-140761904D01*
X164488095Y-140857142D01*
X164440476Y-140904761D01*
X164345238Y-140952380D01*
X164059523Y-140952380D01*
X163964285Y-140904761D01*
X163916666Y-140857142D01*
X163964285Y-142547619D02*
X164011904Y-142500000D01*
X164107142Y-142452380D01*
X164345238Y-142452380D01*
X164440476Y-142500000D01*
X164488095Y-142547619D01*
X164535714Y-142642857D01*
X164535714Y-142738095D01*
X164488095Y-142880952D01*
X163916666Y-143452380D01*
X164535714Y-143452380D01*
X164535714Y-145952380D02*
X163964285Y-145952380D01*
X164250000Y-145952380D02*
X164250000Y-144952380D01*
X164154761Y-145095238D01*
X164059523Y-145190476D01*
X163964285Y-145238095D01*
X167885714Y-125902380D02*
X167314285Y-125902380D01*
X167600000Y-125902380D02*
X167600000Y-124902380D01*
X167504761Y-125045238D01*
X167409523Y-125140476D01*
X167314285Y-125188095D01*
X164814285Y-124997619D02*
X164861904Y-124950000D01*
X164957142Y-124902380D01*
X165195238Y-124902380D01*
X165290476Y-124950000D01*
X165338095Y-124997619D01*
X165385714Y-125092857D01*
X165385714Y-125188095D01*
X165338095Y-125330952D01*
X164766666Y-125902380D01*
X165385714Y-125902380D01*
X162166666Y-124902380D02*
X162785714Y-124902380D01*
X162452380Y-125283333D01*
X162595238Y-125283333D01*
X162690476Y-125330952D01*
X162738095Y-125378571D01*
X162785714Y-125473809D01*
X162785714Y-125711904D01*
X162738095Y-125807142D01*
X162690476Y-125854761D01*
X162595238Y-125902380D01*
X162309523Y-125902380D01*
X162214285Y-125854761D01*
X162166666Y-125807142D01*
D12*
%TO.C,L1*%
X144750000Y-100800000D02*
X143750000Y-100800000D01*
X144750000Y-105300000D02*
X143750000Y-105300000D01*
D13*
%TO.C,R9*%
X153937937Y-126485000D02*
X154392065Y-126485000D01*
X153937937Y-125015000D02*
X154392065Y-125015000D01*
%TO.C,D2*%
X151280001Y-124790000D02*
X148420001Y-124790000D01*
X151280001Y-126710000D02*
X151280001Y-124790000D01*
X148420001Y-126710000D02*
X151280001Y-126710000D01*
%TO.C,R8*%
X124227064Y-117015000D02*
X123772936Y-117015000D01*
X124227064Y-118485000D02*
X123772936Y-118485000D01*
%TO.C,R7*%
X141227064Y-120515000D02*
X140772936Y-120515000D01*
X141227064Y-121985000D02*
X140772936Y-121985000D01*
%TO.C,R6*%
X124227064Y-119515000D02*
X123772936Y-119515000D01*
X124227064Y-120985000D02*
X123772936Y-120985000D01*
%TO.C,R4*%
X141227064Y-124015000D02*
X140772936Y-124015000D01*
X141227064Y-125485000D02*
X140772936Y-125485000D01*
%TO.C,J8*%
X133170000Y-135580000D02*
X133170000Y-134250000D01*
X134500000Y-135580000D02*
X133170000Y-135580000D01*
X135770000Y-135580000D02*
X135770000Y-132920000D01*
X135770000Y-132920000D02*
X148530000Y-132920000D01*
X135770000Y-135580000D02*
X148530000Y-135580000D01*
X148530000Y-135580000D02*
X148530000Y-132920000D01*
D10*
%TO.C,J3*%
X107650000Y-113425000D02*
X110800000Y-113425000D01*
X113400000Y-113425000D02*
X114425000Y-113425000D01*
X116275000Y-114375000D02*
X116275000Y-115250000D01*
X116300000Y-119250000D02*
X116300000Y-120125000D01*
X114475000Y-121075000D02*
X113425000Y-121075000D01*
X110900000Y-121075000D02*
X107700000Y-121075000D01*
D13*
%TO.C,J1*%
X133170000Y-115080000D02*
X133170000Y-113750000D01*
X134500000Y-115080000D02*
X133170000Y-115080000D01*
X135770000Y-115080000D02*
X135770000Y-112420000D01*
X135770000Y-112420000D02*
X148530000Y-112420000D01*
X135770000Y-115080000D02*
X148530000Y-115080000D01*
X148530000Y-115080000D02*
X148530000Y-112420000D01*
%TO.C,FB4*%
X126700000Y-112950000D02*
X127300000Y-112950000D01*
X126680000Y-114550000D02*
X127280000Y-114550000D01*
%TO.C,FB3*%
X114200000Y-122450000D02*
X114800000Y-122450000D01*
X114180000Y-124050000D02*
X114780000Y-124050000D01*
%TO.C,F4*%
X122886252Y-112040000D02*
X120113748Y-112040000D01*
X122886252Y-115460000D02*
X120113748Y-115460000D01*
%TO.C,D6*%
X134115000Y-122210000D02*
X136975000Y-122210000D01*
X134115000Y-120290000D02*
X134115000Y-122210000D01*
X136975000Y-120290000D02*
X134115000Y-120290000D01*
%TO.C,D1*%
X134140000Y-125710000D02*
X137000000Y-125710000D01*
X134140000Y-123790000D02*
X134140000Y-125710000D01*
X137000000Y-123790000D02*
X134140000Y-123790000D01*
%TO.C,C10*%
X136922500Y-129815000D02*
X132837500Y-129815000D01*
X136922500Y-131685000D02*
X136922500Y-129815000D01*
X132837500Y-131685000D02*
X136922500Y-131685000D01*
%TO.C,C2*%
X130265000Y-125026248D02*
X130265000Y-125548752D01*
X131735000Y-125026248D02*
X131735000Y-125548752D01*
%TO.C,C1*%
X131798752Y-117015000D02*
X131276248Y-117015000D01*
X131798752Y-118485000D02*
X131276248Y-118485000D01*
D10*
%TO.C,J4*%
X107685000Y-93275000D02*
X110835000Y-93275000D01*
X113435000Y-93275000D02*
X114460000Y-93275000D01*
X116310000Y-94225000D02*
X116310000Y-95100000D01*
X116335000Y-99100000D02*
X116335000Y-99975000D01*
X114510000Y-100925000D02*
X113460000Y-100925000D01*
X110935000Y-100925000D02*
X107735000Y-100925000D01*
D13*
%TO.C,F3*%
X122886252Y-92040000D02*
X120113748Y-92040000D01*
X122886252Y-95460000D02*
X120113748Y-95460000D01*
%TO.C,R5*%
X139727064Y-92015000D02*
X139272936Y-92015000D01*
X139727064Y-93485000D02*
X139272936Y-93485000D01*
%TO.C,R3*%
X139727064Y-95515000D02*
X139272936Y-95515000D01*
X139727064Y-96985000D02*
X139272936Y-96985000D01*
%TO.C,D5*%
X132615000Y-93710000D02*
X135475000Y-93710000D01*
X132615000Y-91790000D02*
X132615000Y-93710000D01*
X135475000Y-91790000D02*
X132615000Y-91790000D01*
%TO.C,D4*%
X132615000Y-97210000D02*
X135475000Y-97210000D01*
X132615000Y-95290000D02*
X132615000Y-97210000D01*
X135475000Y-95290000D02*
X132615000Y-95290000D01*
%TO.C,C6*%
X128765000Y-103988748D02*
X128765000Y-104511252D01*
X130235000Y-103988748D02*
X130235000Y-104511252D01*
%TO.C,C3*%
X140738748Y-131485000D02*
X141261252Y-131485000D01*
X140738748Y-130015000D02*
X141261252Y-130015000D01*
D12*
%TO.C,J7*%
X111600000Y-145050000D02*
X112100000Y-145050000D01*
X111600000Y-145050000D02*
X111600000Y-144550000D01*
X111600000Y-124450000D02*
X111600000Y-124950000D01*
X111600000Y-124450000D02*
X112100000Y-124450000D01*
X120900000Y-124450000D02*
X120400000Y-124450000D01*
X120900000Y-124450000D02*
X120900000Y-124950000D01*
X120900000Y-145050000D02*
X120400000Y-145050000D01*
X120900000Y-145050000D02*
X120900000Y-144550000D01*
D13*
%TO.C,D3*%
X164060000Y-133790000D02*
X161200000Y-133790000D01*
X164060000Y-135710000D02*
X164060000Y-133790000D01*
X161200000Y-135710000D02*
X164060000Y-135710000D01*
%TO.C,U2*%
X155130000Y-98380000D02*
X164570000Y-98380000D01*
X155130000Y-120420000D02*
X155130000Y-98380000D01*
X164570000Y-120420000D02*
X155130000Y-120420000D01*
X164570000Y-98380000D02*
X164570000Y-120420000D01*
X162250000Y-98000000D02*
X160250000Y-98000000D01*
%TO.C,R12*%
X166022936Y-134015000D02*
X166477064Y-134015000D01*
X166022936Y-135485000D02*
X166477064Y-135485000D01*
%TO.C,R2*%
X124227064Y-98485000D02*
X123772936Y-98485000D01*
X124227064Y-97015000D02*
X123772936Y-97015000D01*
%TO.C,R1*%
X124227064Y-100985000D02*
X123772936Y-100985000D01*
X124227064Y-99515000D02*
X123772936Y-99515000D01*
%TO.C,J13*%
X162330000Y-139130000D02*
X159670000Y-139130000D01*
X162330000Y-141730000D02*
X162330000Y-139130000D01*
X159670000Y-141730000D02*
X159670000Y-139130000D01*
X162330000Y-141730000D02*
X159670000Y-141730000D01*
X162330000Y-143000000D02*
X162330000Y-144330000D01*
X162330000Y-144330000D02*
X161000000Y-144330000D01*
%TO.C,J10*%
X161130000Y-126670000D02*
X161130000Y-129330000D01*
X166270000Y-126670000D02*
X161130000Y-126670000D01*
X166270000Y-129330000D02*
X161130000Y-129330000D01*
X166270000Y-126670000D02*
X166270000Y-129330000D01*
X167540000Y-126670000D02*
X168870000Y-126670000D01*
X168870000Y-126670000D02*
X168870000Y-128000000D01*
%TO.C,J9*%
X176170000Y-137260000D02*
X181370000Y-137260000D01*
X176170000Y-94020000D02*
X176170000Y-137260000D01*
X181370000Y-91420000D02*
X181370000Y-137260000D01*
X176170000Y-94020000D02*
X178770000Y-94020000D01*
X178770000Y-94020000D02*
X178770000Y-91420000D01*
X178770000Y-91420000D02*
X181370000Y-91420000D01*
X176170000Y-92750000D02*
X176170000Y-91420000D01*
X176170000Y-91420000D02*
X177500000Y-91420000D01*
%TO.C,J6*%
X168330000Y-139140000D02*
X165670000Y-139140000D01*
X168330000Y-144280000D02*
X168330000Y-139140000D01*
X165670000Y-144280000D02*
X165670000Y-139140000D01*
X168330000Y-144280000D02*
X165670000Y-144280000D01*
X168330000Y-145550000D02*
X168330000Y-146880000D01*
X168330000Y-146880000D02*
X167000000Y-146880000D01*
%TO.C,J2*%
X148170000Y-95660000D02*
X150830000Y-95660000D01*
X148170000Y-90520000D02*
X148170000Y-95660000D01*
X150830000Y-90520000D02*
X150830000Y-95660000D01*
X148170000Y-90520000D02*
X150830000Y-90520000D01*
X148170000Y-89250000D02*
X148170000Y-87920000D01*
X148170000Y-87920000D02*
X149500000Y-87920000D01*
%TO.C,FB2*%
X126680000Y-94550000D02*
X127280000Y-94550000D01*
X126700000Y-92950000D02*
X127300000Y-92950000D01*
%TO.C,FB1*%
X114180000Y-104050000D02*
X114780000Y-104050000D01*
X114200000Y-102450000D02*
X114800000Y-102450000D01*
%TO.C,C9*%
X150590000Y-102198752D02*
X150590000Y-100776248D01*
X152410000Y-102198752D02*
X152410000Y-100776248D01*
%TO.C,C8*%
X139910000Y-103901248D02*
X139910000Y-105323752D01*
X138090000Y-103901248D02*
X138090000Y-105323752D01*
%TO.C,C7*%
X128400000Y-110185000D02*
X132485000Y-110185000D01*
X132485000Y-110185000D02*
X132485000Y-108315000D01*
X132485000Y-108315000D02*
X128400000Y-108315000D01*
%TO.C,L1*%
D14*
X144824523Y-103261666D02*
X144824523Y-103866428D01*
X143554523Y-103866428D01*
X144824523Y-102173095D02*
X144824523Y-102898809D01*
X144824523Y-102535952D02*
X143554523Y-102535952D01*
X143735952Y-102656904D01*
X143856904Y-102777857D01*
X143917380Y-102898809D01*
%TO.C,R9*%
D10*
X153998334Y-124552380D02*
X153665001Y-124076190D01*
X153426905Y-124552380D02*
X153426905Y-123552380D01*
X153807858Y-123552380D01*
X153903096Y-123600000D01*
X153950715Y-123647619D01*
X153998334Y-123742857D01*
X153998334Y-123885714D01*
X153950715Y-123980952D01*
X153903096Y-124028571D01*
X153807858Y-124076190D01*
X153426905Y-124076190D01*
X154474524Y-124552380D02*
X154665001Y-124552380D01*
X154760239Y-124504761D01*
X154807858Y-124457142D01*
X154903096Y-124314285D01*
X154950715Y-124123809D01*
X154950715Y-123742857D01*
X154903096Y-123647619D01*
X154855477Y-123600000D01*
X154760239Y-123552380D01*
X154569762Y-123552380D01*
X154474524Y-123600000D01*
X154426905Y-123647619D01*
X154379286Y-123742857D01*
X154379286Y-123980952D01*
X154426905Y-124076190D01*
X154474524Y-124123809D01*
X154569762Y-124171428D01*
X154760239Y-124171428D01*
X154855477Y-124123809D01*
X154903096Y-124076190D01*
X154950715Y-123980952D01*
%TO.C,D2*%
X148681905Y-124202380D02*
X148681905Y-123202380D01*
X148920001Y-123202380D01*
X149062858Y-123250000D01*
X149158096Y-123345238D01*
X149205715Y-123440476D01*
X149253334Y-123630952D01*
X149253334Y-123773809D01*
X149205715Y-123964285D01*
X149158096Y-124059523D01*
X149062858Y-124154761D01*
X148920001Y-124202380D01*
X148681905Y-124202380D01*
X149634286Y-123297619D02*
X149681905Y-123250000D01*
X149777143Y-123202380D01*
X150015239Y-123202380D01*
X150110477Y-123250000D01*
X150158096Y-123297619D01*
X150205715Y-123392857D01*
X150205715Y-123488095D01*
X150158096Y-123630952D01*
X149586667Y-124202380D01*
X150205715Y-124202380D01*
%TO.C,R8*%
X120833333Y-117702380D02*
X120500000Y-117226190D01*
X120261904Y-117702380D02*
X120261904Y-116702380D01*
X120642857Y-116702380D01*
X120738095Y-116750000D01*
X120785714Y-116797619D01*
X120833333Y-116892857D01*
X120833333Y-117035714D01*
X120785714Y-117130952D01*
X120738095Y-117178571D01*
X120642857Y-117226190D01*
X120261904Y-117226190D01*
X121404761Y-117130952D02*
X121309523Y-117083333D01*
X121261904Y-117035714D01*
X121214285Y-116940476D01*
X121214285Y-116892857D01*
X121261904Y-116797619D01*
X121309523Y-116750000D01*
X121404761Y-116702380D01*
X121595238Y-116702380D01*
X121690476Y-116750000D01*
X121738095Y-116797619D01*
X121785714Y-116892857D01*
X121785714Y-116940476D01*
X121738095Y-117035714D01*
X121690476Y-117083333D01*
X121595238Y-117130952D01*
X121404761Y-117130952D01*
X121309523Y-117178571D01*
X121261904Y-117226190D01*
X121214285Y-117321428D01*
X121214285Y-117511904D01*
X121261904Y-117607142D01*
X121309523Y-117654761D01*
X121404761Y-117702380D01*
X121595238Y-117702380D01*
X121690476Y-117654761D01*
X121738095Y-117607142D01*
X121785714Y-117511904D01*
X121785714Y-117321428D01*
X121738095Y-117226190D01*
X121690476Y-117178571D01*
X121595238Y-117130952D01*
%TO.C,R7*%
X140833333Y-120202380D02*
X140500000Y-119726190D01*
X140261904Y-120202380D02*
X140261904Y-119202380D01*
X140642857Y-119202380D01*
X140738095Y-119250000D01*
X140785714Y-119297619D01*
X140833333Y-119392857D01*
X140833333Y-119535714D01*
X140785714Y-119630952D01*
X140738095Y-119678571D01*
X140642857Y-119726190D01*
X140261904Y-119726190D01*
X141166666Y-119202380D02*
X141833333Y-119202380D01*
X141404761Y-120202380D01*
%TO.C,R6*%
X120833333Y-120702380D02*
X120500000Y-120226190D01*
X120261904Y-120702380D02*
X120261904Y-119702380D01*
X120642857Y-119702380D01*
X120738095Y-119750000D01*
X120785714Y-119797619D01*
X120833333Y-119892857D01*
X120833333Y-120035714D01*
X120785714Y-120130952D01*
X120738095Y-120178571D01*
X120642857Y-120226190D01*
X120261904Y-120226190D01*
X121690476Y-119702380D02*
X121500000Y-119702380D01*
X121404761Y-119750000D01*
X121357142Y-119797619D01*
X121261904Y-119940476D01*
X121214285Y-120130952D01*
X121214285Y-120511904D01*
X121261904Y-120607142D01*
X121309523Y-120654761D01*
X121404761Y-120702380D01*
X121595238Y-120702380D01*
X121690476Y-120654761D01*
X121738095Y-120607142D01*
X121785714Y-120511904D01*
X121785714Y-120273809D01*
X121738095Y-120178571D01*
X121690476Y-120130952D01*
X121595238Y-120083333D01*
X121404761Y-120083333D01*
X121309523Y-120130952D01*
X121261904Y-120178571D01*
X121214285Y-120273809D01*
%TO.C,R4*%
X140833333Y-123702380D02*
X140500000Y-123226190D01*
X140261904Y-123702380D02*
X140261904Y-122702380D01*
X140642857Y-122702380D01*
X140738095Y-122750000D01*
X140785714Y-122797619D01*
X140833333Y-122892857D01*
X140833333Y-123035714D01*
X140785714Y-123130952D01*
X140738095Y-123178571D01*
X140642857Y-123226190D01*
X140261904Y-123226190D01*
X141690476Y-123035714D02*
X141690476Y-123702380D01*
X141452380Y-122654761D02*
X141214285Y-123369047D01*
X141833333Y-123369047D01*
%TO.C,J8*%
X131622380Y-134583333D02*
X132336666Y-134583333D01*
X132479523Y-134630952D01*
X132574761Y-134726190D01*
X132622380Y-134869047D01*
X132622380Y-134964285D01*
X132050952Y-133964285D02*
X132003333Y-134059523D01*
X131955714Y-134107142D01*
X131860476Y-134154761D01*
X131812857Y-134154761D01*
X131717619Y-134107142D01*
X131670000Y-134059523D01*
X131622380Y-133964285D01*
X131622380Y-133773809D01*
X131670000Y-133678571D01*
X131717619Y-133630952D01*
X131812857Y-133583333D01*
X131860476Y-133583333D01*
X131955714Y-133630952D01*
X132003333Y-133678571D01*
X132050952Y-133773809D01*
X132050952Y-133964285D01*
X132098571Y-134059523D01*
X132146190Y-134107142D01*
X132241428Y-134154761D01*
X132431904Y-134154761D01*
X132527142Y-134107142D01*
X132574761Y-134059523D01*
X132622380Y-133964285D01*
X132622380Y-133773809D01*
X132574761Y-133678571D01*
X132527142Y-133630952D01*
X132431904Y-133583333D01*
X132241428Y-133583333D01*
X132146190Y-133630952D01*
X132098571Y-133678571D01*
X132050952Y-133773809D01*
%TO.C,J3*%
X109166666Y-122702380D02*
X109166666Y-123416666D01*
X109119047Y-123559523D01*
X109023809Y-123654761D01*
X108880952Y-123702380D01*
X108785714Y-123702380D01*
X109547619Y-122702380D02*
X110166666Y-122702380D01*
X109833333Y-123083333D01*
X109976190Y-123083333D01*
X110071428Y-123130952D01*
X110119047Y-123178571D01*
X110166666Y-123273809D01*
X110166666Y-123511904D01*
X110119047Y-123607142D01*
X110071428Y-123654761D01*
X109976190Y-123702380D01*
X109690476Y-123702380D01*
X109595238Y-123654761D01*
X109547619Y-123607142D01*
%TO.C,J1*%
X131622380Y-114083333D02*
X132336666Y-114083333D01*
X132479523Y-114130952D01*
X132574761Y-114226190D01*
X132622380Y-114369047D01*
X132622380Y-114464285D01*
X132622380Y-113083333D02*
X132622380Y-113654761D01*
X132622380Y-113369047D02*
X131622380Y-113369047D01*
X131765238Y-113464285D01*
X131860476Y-113559523D01*
X131908095Y-113654761D01*
%TO.C,FB4*%
X126166666Y-111838571D02*
X125833333Y-111838571D01*
X125833333Y-112362380D02*
X125833333Y-111362380D01*
X126309523Y-111362380D01*
X127023809Y-111838571D02*
X127166666Y-111886190D01*
X127214285Y-111933809D01*
X127261904Y-112029047D01*
X127261904Y-112171904D01*
X127214285Y-112267142D01*
X127166666Y-112314761D01*
X127071428Y-112362380D01*
X126690476Y-112362380D01*
X126690476Y-111362380D01*
X127023809Y-111362380D01*
X127119047Y-111410000D01*
X127166666Y-111457619D01*
X127214285Y-111552857D01*
X127214285Y-111648095D01*
X127166666Y-111743333D01*
X127119047Y-111790952D01*
X127023809Y-111838571D01*
X126690476Y-111838571D01*
X128119047Y-111695714D02*
X128119047Y-112362380D01*
X127880952Y-111314761D02*
X127642857Y-112029047D01*
X128261904Y-112029047D01*
%TO.C,FB3*%
X113666666Y-121338571D02*
X113333333Y-121338571D01*
X113333333Y-121862380D02*
X113333333Y-120862380D01*
X113809523Y-120862380D01*
X114523809Y-121338571D02*
X114666666Y-121386190D01*
X114714285Y-121433809D01*
X114761904Y-121529047D01*
X114761904Y-121671904D01*
X114714285Y-121767142D01*
X114666666Y-121814761D01*
X114571428Y-121862380D01*
X114190476Y-121862380D01*
X114190476Y-120862380D01*
X114523809Y-120862380D01*
X114619047Y-120910000D01*
X114666666Y-120957619D01*
X114714285Y-121052857D01*
X114714285Y-121148095D01*
X114666666Y-121243333D01*
X114619047Y-121290952D01*
X114523809Y-121338571D01*
X114190476Y-121338571D01*
X115095238Y-120862380D02*
X115714285Y-120862380D01*
X115380952Y-121243333D01*
X115523809Y-121243333D01*
X115619047Y-121290952D01*
X115666666Y-121338571D01*
X115714285Y-121433809D01*
X115714285Y-121671904D01*
X115666666Y-121767142D01*
X115619047Y-121814761D01*
X115523809Y-121862380D01*
X115238095Y-121862380D01*
X115142857Y-121814761D01*
X115095238Y-121767142D01*
%TO.C,F4*%
X121166666Y-110678571D02*
X120833333Y-110678571D01*
X120833333Y-111202380D02*
X120833333Y-110202380D01*
X121309523Y-110202380D01*
X122119047Y-110535714D02*
X122119047Y-111202380D01*
X121880952Y-110154761D02*
X121642857Y-110869047D01*
X122261904Y-110869047D01*
%TO.C,D6*%
X132261904Y-121702380D02*
X132261904Y-120702380D01*
X132500000Y-120702380D01*
X132642857Y-120750000D01*
X132738095Y-120845238D01*
X132785714Y-120940476D01*
X132833333Y-121130952D01*
X132833333Y-121273809D01*
X132785714Y-121464285D01*
X132738095Y-121559523D01*
X132642857Y-121654761D01*
X132500000Y-121702380D01*
X132261904Y-121702380D01*
X133690476Y-120702380D02*
X133500000Y-120702380D01*
X133404761Y-120750000D01*
X133357142Y-120797619D01*
X133261904Y-120940476D01*
X133214285Y-121130952D01*
X133214285Y-121511904D01*
X133261904Y-121607142D01*
X133309523Y-121654761D01*
X133404761Y-121702380D01*
X133595238Y-121702380D01*
X133690476Y-121654761D01*
X133738095Y-121607142D01*
X133785714Y-121511904D01*
X133785714Y-121273809D01*
X133738095Y-121178571D01*
X133690476Y-121130952D01*
X133595238Y-121083333D01*
X133404761Y-121083333D01*
X133309523Y-121130952D01*
X133261904Y-121178571D01*
X133214285Y-121273809D01*
%TO.C,D1*%
X132261904Y-125202380D02*
X132261904Y-124202380D01*
X132500000Y-124202380D01*
X132642857Y-124250000D01*
X132738095Y-124345238D01*
X132785714Y-124440476D01*
X132833333Y-124630952D01*
X132833333Y-124773809D01*
X132785714Y-124964285D01*
X132738095Y-125059523D01*
X132642857Y-125154761D01*
X132500000Y-125202380D01*
X132261904Y-125202380D01*
X133785714Y-125202380D02*
X133214285Y-125202380D01*
X133500000Y-125202380D02*
X133500000Y-124202380D01*
X133404761Y-124345238D01*
X133309523Y-124440476D01*
X133214285Y-124488095D01*
%TO.C,C10*%
X133794642Y-129107142D02*
X133747023Y-129154761D01*
X133604166Y-129202380D01*
X133508928Y-129202380D01*
X133366071Y-129154761D01*
X133270833Y-129059523D01*
X133223214Y-128964285D01*
X133175595Y-128773809D01*
X133175595Y-128630952D01*
X133223214Y-128440476D01*
X133270833Y-128345238D01*
X133366071Y-128250000D01*
X133508928Y-128202380D01*
X133604166Y-128202380D01*
X133747023Y-128250000D01*
X133794642Y-128297619D01*
X134747023Y-129202380D02*
X134175595Y-129202380D01*
X134461309Y-129202380D02*
X134461309Y-128202380D01*
X134366071Y-128345238D01*
X134270833Y-128440476D01*
X134175595Y-128488095D01*
X135366071Y-128202380D02*
X135461309Y-128202380D01*
X135556547Y-128250000D01*
X135604166Y-128297619D01*
X135651785Y-128392857D01*
X135699404Y-128583333D01*
X135699404Y-128821428D01*
X135651785Y-129011904D01*
X135604166Y-129107142D01*
X135556547Y-129154761D01*
X135461309Y-129202380D01*
X135366071Y-129202380D01*
X135270833Y-129154761D01*
X135223214Y-129107142D01*
X135175595Y-129011904D01*
X135127976Y-128821428D01*
X135127976Y-128583333D01*
X135175595Y-128392857D01*
X135223214Y-128297619D01*
X135270833Y-128250000D01*
X135366071Y-128202380D01*
%TO.C,C2*%
X129857142Y-125416666D02*
X129904761Y-125464285D01*
X129952380Y-125607142D01*
X129952380Y-125702380D01*
X129904761Y-125845238D01*
X129809523Y-125940476D01*
X129714285Y-125988095D01*
X129523809Y-126035714D01*
X129380952Y-126035714D01*
X129190476Y-125988095D01*
X129095238Y-125940476D01*
X129000000Y-125845238D01*
X128952380Y-125702380D01*
X128952380Y-125607142D01*
X129000000Y-125464285D01*
X129047619Y-125416666D01*
X129047619Y-125035714D02*
X129000000Y-124988095D01*
X128952380Y-124892857D01*
X128952380Y-124654761D01*
X129000000Y-124559523D01*
X129047619Y-124511904D01*
X129142857Y-124464285D01*
X129238095Y-124464285D01*
X129380952Y-124511904D01*
X129952380Y-125083333D01*
X129952380Y-124464285D01*
%TO.C,C1*%
X131370833Y-119787142D02*
X131323214Y-119834761D01*
X131180357Y-119882380D01*
X131085119Y-119882380D01*
X130942261Y-119834761D01*
X130847023Y-119739523D01*
X130799404Y-119644285D01*
X130751785Y-119453809D01*
X130751785Y-119310952D01*
X130799404Y-119120476D01*
X130847023Y-119025238D01*
X130942261Y-118930000D01*
X131085119Y-118882380D01*
X131180357Y-118882380D01*
X131323214Y-118930000D01*
X131370833Y-118977619D01*
X132323214Y-119882380D02*
X131751785Y-119882380D01*
X132037500Y-119882380D02*
X132037500Y-118882380D01*
X131942261Y-119025238D01*
X131847023Y-119120476D01*
X131751785Y-119168095D01*
%TO.C,J4*%
X109666666Y-102202380D02*
X109666666Y-102916666D01*
X109619047Y-103059523D01*
X109523809Y-103154761D01*
X109380952Y-103202380D01*
X109285714Y-103202380D01*
X110571428Y-102535714D02*
X110571428Y-103202380D01*
X110333333Y-102154761D02*
X110095238Y-102869047D01*
X110714285Y-102869047D01*
%TO.C,F3*%
X117166666Y-91178571D02*
X116833333Y-91178571D01*
X116833333Y-91702380D02*
X116833333Y-90702380D01*
X117309523Y-90702380D01*
X117595238Y-90702380D02*
X118214285Y-90702380D01*
X117880952Y-91083333D01*
X118023809Y-91083333D01*
X118119047Y-91130952D01*
X118166666Y-91178571D01*
X118214285Y-91273809D01*
X118214285Y-91511904D01*
X118166666Y-91607142D01*
X118119047Y-91654761D01*
X118023809Y-91702380D01*
X117738095Y-91702380D01*
X117642857Y-91654761D01*
X117595238Y-91607142D01*
%TO.C,R5*%
X139333333Y-91702380D02*
X139000000Y-91226190D01*
X138761904Y-91702380D02*
X138761904Y-90702380D01*
X139142857Y-90702380D01*
X139238095Y-90750000D01*
X139285714Y-90797619D01*
X139333333Y-90892857D01*
X139333333Y-91035714D01*
X139285714Y-91130952D01*
X139238095Y-91178571D01*
X139142857Y-91226190D01*
X138761904Y-91226190D01*
X140238095Y-90702380D02*
X139761904Y-90702380D01*
X139714285Y-91178571D01*
X139761904Y-91130952D01*
X139857142Y-91083333D01*
X140095238Y-91083333D01*
X140190476Y-91130952D01*
X140238095Y-91178571D01*
X140285714Y-91273809D01*
X140285714Y-91511904D01*
X140238095Y-91607142D01*
X140190476Y-91654761D01*
X140095238Y-91702380D01*
X139857142Y-91702380D01*
X139761904Y-91654761D01*
X139714285Y-91607142D01*
%TO.C,R3*%
X139333333Y-95202380D02*
X139000000Y-94726190D01*
X138761904Y-95202380D02*
X138761904Y-94202380D01*
X139142857Y-94202380D01*
X139238095Y-94250000D01*
X139285714Y-94297619D01*
X139333333Y-94392857D01*
X139333333Y-94535714D01*
X139285714Y-94630952D01*
X139238095Y-94678571D01*
X139142857Y-94726190D01*
X138761904Y-94726190D01*
X139666666Y-94202380D02*
X140285714Y-94202380D01*
X139952380Y-94583333D01*
X140095238Y-94583333D01*
X140190476Y-94630952D01*
X140238095Y-94678571D01*
X140285714Y-94773809D01*
X140285714Y-95011904D01*
X140238095Y-95107142D01*
X140190476Y-95154761D01*
X140095238Y-95202380D01*
X139809523Y-95202380D01*
X139714285Y-95154761D01*
X139666666Y-95107142D01*
%TO.C,D5*%
X130761904Y-93202380D02*
X130761904Y-92202380D01*
X131000000Y-92202380D01*
X131142857Y-92250000D01*
X131238095Y-92345238D01*
X131285714Y-92440476D01*
X131333333Y-92630952D01*
X131333333Y-92773809D01*
X131285714Y-92964285D01*
X131238095Y-93059523D01*
X131142857Y-93154761D01*
X131000000Y-93202380D01*
X130761904Y-93202380D01*
X132238095Y-92202380D02*
X131761904Y-92202380D01*
X131714285Y-92678571D01*
X131761904Y-92630952D01*
X131857142Y-92583333D01*
X132095238Y-92583333D01*
X132190476Y-92630952D01*
X132238095Y-92678571D01*
X132285714Y-92773809D01*
X132285714Y-93011904D01*
X132238095Y-93107142D01*
X132190476Y-93154761D01*
X132095238Y-93202380D01*
X131857142Y-93202380D01*
X131761904Y-93154761D01*
X131714285Y-93107142D01*
%TO.C,D4*%
X130761904Y-96702380D02*
X130761904Y-95702380D01*
X131000000Y-95702380D01*
X131142857Y-95750000D01*
X131238095Y-95845238D01*
X131285714Y-95940476D01*
X131333333Y-96130952D01*
X131333333Y-96273809D01*
X131285714Y-96464285D01*
X131238095Y-96559523D01*
X131142857Y-96654761D01*
X131000000Y-96702380D01*
X130761904Y-96702380D01*
X132190476Y-96035714D02*
X132190476Y-96702380D01*
X131952380Y-95654761D02*
X131714285Y-96369047D01*
X132333333Y-96369047D01*
%TO.C,C6*%
X131537142Y-104416666D02*
X131584761Y-104464285D01*
X131632380Y-104607142D01*
X131632380Y-104702380D01*
X131584761Y-104845238D01*
X131489523Y-104940476D01*
X131394285Y-104988095D01*
X131203809Y-105035714D01*
X131060952Y-105035714D01*
X130870476Y-104988095D01*
X130775238Y-104940476D01*
X130680000Y-104845238D01*
X130632380Y-104702380D01*
X130632380Y-104607142D01*
X130680000Y-104464285D01*
X130727619Y-104416666D01*
X130632380Y-103559523D02*
X130632380Y-103750000D01*
X130680000Y-103845238D01*
X130727619Y-103892857D01*
X130870476Y-103988095D01*
X131060952Y-104035714D01*
X131441904Y-104035714D01*
X131537142Y-103988095D01*
X131584761Y-103940476D01*
X131632380Y-103845238D01*
X131632380Y-103654761D01*
X131584761Y-103559523D01*
X131537142Y-103511904D01*
X131441904Y-103464285D01*
X131203809Y-103464285D01*
X131108571Y-103511904D01*
X131060952Y-103559523D01*
X131013333Y-103654761D01*
X131013333Y-103845238D01*
X131060952Y-103940476D01*
X131108571Y-103988095D01*
X131203809Y-104035714D01*
%TO.C,C3*%
X140833333Y-129427142D02*
X140785714Y-129474761D01*
X140642857Y-129522380D01*
X140547619Y-129522380D01*
X140404761Y-129474761D01*
X140309523Y-129379523D01*
X140261904Y-129284285D01*
X140214285Y-129093809D01*
X140214285Y-128950952D01*
X140261904Y-128760476D01*
X140309523Y-128665238D01*
X140404761Y-128570000D01*
X140547619Y-128522380D01*
X140642857Y-128522380D01*
X140785714Y-128570000D01*
X140833333Y-128617619D01*
X141166666Y-128522380D02*
X141785714Y-128522380D01*
X141452380Y-128903333D01*
X141595238Y-128903333D01*
X141690476Y-128950952D01*
X141738095Y-128998571D01*
X141785714Y-129093809D01*
X141785714Y-129331904D01*
X141738095Y-129427142D01*
X141690476Y-129474761D01*
X141595238Y-129522380D01*
X141309523Y-129522380D01*
X141214285Y-129474761D01*
X141166666Y-129427142D01*
%TO.C,J7*%
X121352380Y-134483333D02*
X122066666Y-134483333D01*
X122209523Y-134530952D01*
X122304761Y-134626190D01*
X122352380Y-134769047D01*
X122352380Y-134864285D01*
X121352380Y-134102380D02*
X121352380Y-133435714D01*
X122352380Y-133864285D01*
%TO.C,D3*%
X161761904Y-137202380D02*
X161761904Y-136202380D01*
X162000000Y-136202380D01*
X162142857Y-136250000D01*
X162238095Y-136345238D01*
X162285714Y-136440476D01*
X162333333Y-136630952D01*
X162333333Y-136773809D01*
X162285714Y-136964285D01*
X162238095Y-137059523D01*
X162142857Y-137154761D01*
X162000000Y-137202380D01*
X161761904Y-137202380D01*
X162666666Y-136202380D02*
X163285714Y-136202380D01*
X162952380Y-136583333D01*
X163095238Y-136583333D01*
X163190476Y-136630952D01*
X163238095Y-136678571D01*
X163285714Y-136773809D01*
X163285714Y-137011904D01*
X163238095Y-137107142D01*
X163190476Y-137154761D01*
X163095238Y-137202380D01*
X162809523Y-137202380D01*
X162714285Y-137154761D01*
X162666666Y-137107142D01*
%TO.C,J5*%
X115416666Y-157202380D02*
X115416666Y-157916666D01*
X115369047Y-158059523D01*
X115273809Y-158154761D01*
X115130952Y-158202380D01*
X115035714Y-158202380D01*
X116369047Y-157202380D02*
X115892857Y-157202380D01*
X115845238Y-157678571D01*
X115892857Y-157630952D01*
X115988095Y-157583333D01*
X116226190Y-157583333D01*
X116321428Y-157630952D01*
X116369047Y-157678571D01*
X116416666Y-157773809D01*
X116416666Y-158011904D01*
X116369047Y-158107142D01*
X116321428Y-158154761D01*
X116226190Y-158202380D01*
X115988095Y-158202380D01*
X115892857Y-158154761D01*
X115845238Y-158107142D01*
%TO.C,JP2*%
D15*
X138731171Y-144272000D02*
X139166600Y-144272000D01*
X139253685Y-144301028D01*
X139311742Y-144359085D01*
X139340771Y-144446171D01*
X139340771Y-144504228D01*
X139340771Y-143981714D02*
X138731171Y-143981714D01*
X138731171Y-143749485D01*
X138760200Y-143691428D01*
X138789228Y-143662400D01*
X138847285Y-143633371D01*
X138934371Y-143633371D01*
X138992428Y-143662400D01*
X139021457Y-143691428D01*
X139050485Y-143749485D01*
X139050485Y-143981714D01*
X138789228Y-143401142D02*
X138760200Y-143372114D01*
X138731171Y-143314057D01*
X138731171Y-143168914D01*
X138760200Y-143110857D01*
X138789228Y-143081828D01*
X138847285Y-143052800D01*
X138905342Y-143052800D01*
X138992428Y-143081828D01*
X139340771Y-143430171D01*
X139340771Y-143052800D01*
%TO.C,JP1*%
X143811171Y-144272000D02*
X144246600Y-144272000D01*
X144333685Y-144301028D01*
X144391742Y-144359085D01*
X144420771Y-144446171D01*
X144420771Y-144504228D01*
X144420771Y-143981714D02*
X143811171Y-143981714D01*
X143811171Y-143749485D01*
X143840200Y-143691428D01*
X143869228Y-143662400D01*
X143927285Y-143633371D01*
X144014371Y-143633371D01*
X144072428Y-143662400D01*
X144101457Y-143691428D01*
X144130485Y-143749485D01*
X144130485Y-143981714D01*
X144420771Y-143052800D02*
X144420771Y-143401142D01*
X144420771Y-143226971D02*
X143811171Y-143226971D01*
X143898257Y-143285028D01*
X143956314Y-143343085D01*
X143985342Y-143401142D01*
%TO.C,U2*%
D10*
X164942380Y-101261904D02*
X165751904Y-101261904D01*
X165847142Y-101214285D01*
X165894761Y-101166666D01*
X165942380Y-101071428D01*
X165942380Y-100880952D01*
X165894761Y-100785714D01*
X165847142Y-100738095D01*
X165751904Y-100690476D01*
X164942380Y-100690476D01*
X165037619Y-100261904D02*
X164990000Y-100214285D01*
X164942380Y-100119047D01*
X164942380Y-99880952D01*
X164990000Y-99785714D01*
X165037619Y-99738095D01*
X165132857Y-99690476D01*
X165228095Y-99690476D01*
X165370952Y-99738095D01*
X165942380Y-100309523D01*
X165942380Y-99690476D01*
%TO.C,R12*%
X165607142Y-137202380D02*
X165273809Y-136726190D01*
X165035714Y-137202380D02*
X165035714Y-136202380D01*
X165416666Y-136202380D01*
X165511904Y-136250000D01*
X165559523Y-136297619D01*
X165607142Y-136392857D01*
X165607142Y-136535714D01*
X165559523Y-136630952D01*
X165511904Y-136678571D01*
X165416666Y-136726190D01*
X165035714Y-136726190D01*
X166559523Y-137202380D02*
X165988095Y-137202380D01*
X166273809Y-137202380D02*
X166273809Y-136202380D01*
X166178571Y-136345238D01*
X166083333Y-136440476D01*
X165988095Y-136488095D01*
X166940476Y-136297619D02*
X166988095Y-136250000D01*
X167083333Y-136202380D01*
X167321428Y-136202380D01*
X167416666Y-136250000D01*
X167464285Y-136297619D01*
X167511904Y-136392857D01*
X167511904Y-136488095D01*
X167464285Y-136630952D01*
X166892857Y-137202380D01*
X167511904Y-137202380D01*
%TO.C,R2*%
X120833333Y-97952380D02*
X120500000Y-97476190D01*
X120261904Y-97952380D02*
X120261904Y-96952380D01*
X120642857Y-96952380D01*
X120738095Y-97000000D01*
X120785714Y-97047619D01*
X120833333Y-97142857D01*
X120833333Y-97285714D01*
X120785714Y-97380952D01*
X120738095Y-97428571D01*
X120642857Y-97476190D01*
X120261904Y-97476190D01*
X121214285Y-97047619D02*
X121261904Y-97000000D01*
X121357142Y-96952380D01*
X121595238Y-96952380D01*
X121690476Y-97000000D01*
X121738095Y-97047619D01*
X121785714Y-97142857D01*
X121785714Y-97238095D01*
X121738095Y-97380952D01*
X121166666Y-97952380D01*
X121785714Y-97952380D01*
%TO.C,R1*%
X120833333Y-100622380D02*
X120500000Y-100146190D01*
X120261904Y-100622380D02*
X120261904Y-99622380D01*
X120642857Y-99622380D01*
X120738095Y-99670000D01*
X120785714Y-99717619D01*
X120833333Y-99812857D01*
X120833333Y-99955714D01*
X120785714Y-100050952D01*
X120738095Y-100098571D01*
X120642857Y-100146190D01*
X120261904Y-100146190D01*
X121785714Y-100622380D02*
X121214285Y-100622380D01*
X121500000Y-100622380D02*
X121500000Y-99622380D01*
X121404761Y-99765238D01*
X121309523Y-99860476D01*
X121214285Y-99908095D01*
%TO.C,J13*%
X160190476Y-144782380D02*
X160190476Y-145496666D01*
X160142857Y-145639523D01*
X160047619Y-145734761D01*
X159904761Y-145782380D01*
X159809523Y-145782380D01*
X161190476Y-145782380D02*
X160619047Y-145782380D01*
X160904761Y-145782380D02*
X160904761Y-144782380D01*
X160809523Y-144925238D01*
X160714285Y-145020476D01*
X160619047Y-145068095D01*
X161523809Y-144782380D02*
X162142857Y-144782380D01*
X161809523Y-145163333D01*
X161952380Y-145163333D01*
X162047619Y-145210952D01*
X162095238Y-145258571D01*
X162142857Y-145353809D01*
X162142857Y-145591904D01*
X162095238Y-145687142D01*
X162047619Y-145734761D01*
X161952380Y-145782380D01*
X161666666Y-145782380D01*
X161571428Y-145734761D01*
X161523809Y-145687142D01*
%TO.C,J10*%
X170190476Y-127202380D02*
X170190476Y-127916666D01*
X170142857Y-128059523D01*
X170047619Y-128154761D01*
X169904761Y-128202380D01*
X169809523Y-128202380D01*
X171190476Y-128202380D02*
X170619047Y-128202380D01*
X170904761Y-128202380D02*
X170904761Y-127202380D01*
X170809523Y-127345238D01*
X170714285Y-127440476D01*
X170619047Y-127488095D01*
X171809523Y-127202380D02*
X171904761Y-127202380D01*
X172000000Y-127250000D01*
X172047619Y-127297619D01*
X172095238Y-127392857D01*
X172142857Y-127583333D01*
X172142857Y-127821428D01*
X172095238Y-128011904D01*
X172047619Y-128107142D01*
X172000000Y-128154761D01*
X171904761Y-128202380D01*
X171809523Y-128202380D01*
X171714285Y-128154761D01*
X171666666Y-128107142D01*
X171619047Y-128011904D01*
X171571428Y-127821428D01*
X171571428Y-127583333D01*
X171619047Y-127392857D01*
X171666666Y-127297619D01*
X171714285Y-127250000D01*
X171809523Y-127202380D01*
%TO.C,J9*%
X178436666Y-89872380D02*
X178436666Y-90586666D01*
X178389047Y-90729523D01*
X178293809Y-90824761D01*
X178150952Y-90872380D01*
X178055714Y-90872380D01*
X178960476Y-90872380D02*
X179150952Y-90872380D01*
X179246190Y-90824761D01*
X179293809Y-90777142D01*
X179389047Y-90634285D01*
X179436666Y-90443809D01*
X179436666Y-90062857D01*
X179389047Y-89967619D01*
X179341428Y-89920000D01*
X179246190Y-89872380D01*
X179055714Y-89872380D01*
X178960476Y-89920000D01*
X178912857Y-89967619D01*
X178865238Y-90062857D01*
X178865238Y-90300952D01*
X178912857Y-90396190D01*
X178960476Y-90443809D01*
X179055714Y-90491428D01*
X179246190Y-90491428D01*
X179341428Y-90443809D01*
X179389047Y-90396190D01*
X179436666Y-90300952D01*
%TO.C,J6*%
X166666666Y-147332380D02*
X166666666Y-148046666D01*
X166619047Y-148189523D01*
X166523809Y-148284761D01*
X166380952Y-148332380D01*
X166285714Y-148332380D01*
X167571428Y-147332380D02*
X167380952Y-147332380D01*
X167285714Y-147380000D01*
X167238095Y-147427619D01*
X167142857Y-147570476D01*
X167095238Y-147760952D01*
X167095238Y-148141904D01*
X167142857Y-148237142D01*
X167190476Y-148284761D01*
X167285714Y-148332380D01*
X167476190Y-148332380D01*
X167571428Y-148284761D01*
X167619047Y-148237142D01*
X167666666Y-148141904D01*
X167666666Y-147903809D01*
X167619047Y-147808571D01*
X167571428Y-147760952D01*
X167476190Y-147713333D01*
X167285714Y-147713333D01*
X167190476Y-147760952D01*
X167142857Y-147808571D01*
X167095238Y-147903809D01*
%TO.C,J2*%
X149166666Y-86372380D02*
X149166666Y-87086666D01*
X149119047Y-87229523D01*
X149023809Y-87324761D01*
X148880952Y-87372380D01*
X148785714Y-87372380D01*
X149595238Y-86467619D02*
X149642857Y-86420000D01*
X149738095Y-86372380D01*
X149976190Y-86372380D01*
X150071428Y-86420000D01*
X150119047Y-86467619D01*
X150166666Y-86562857D01*
X150166666Y-86658095D01*
X150119047Y-86800952D01*
X149547619Y-87372380D01*
X150166666Y-87372380D01*
%TO.C,FB2*%
X126166666Y-91838571D02*
X125833333Y-91838571D01*
X125833333Y-92362380D02*
X125833333Y-91362380D01*
X126309523Y-91362380D01*
X127023809Y-91838571D02*
X127166666Y-91886190D01*
X127214285Y-91933809D01*
X127261904Y-92029047D01*
X127261904Y-92171904D01*
X127214285Y-92267142D01*
X127166666Y-92314761D01*
X127071428Y-92362380D01*
X126690476Y-92362380D01*
X126690476Y-91362380D01*
X127023809Y-91362380D01*
X127119047Y-91410000D01*
X127166666Y-91457619D01*
X127214285Y-91552857D01*
X127214285Y-91648095D01*
X127166666Y-91743333D01*
X127119047Y-91790952D01*
X127023809Y-91838571D01*
X126690476Y-91838571D01*
X127642857Y-91457619D02*
X127690476Y-91410000D01*
X127785714Y-91362380D01*
X128023809Y-91362380D01*
X128119047Y-91410000D01*
X128166666Y-91457619D01*
X128214285Y-91552857D01*
X128214285Y-91648095D01*
X128166666Y-91790952D01*
X127595238Y-92362380D01*
X128214285Y-92362380D01*
%TO.C,FB1*%
X113666666Y-101338571D02*
X113333333Y-101338571D01*
X113333333Y-101862380D02*
X113333333Y-100862380D01*
X113809523Y-100862380D01*
X114523809Y-101338571D02*
X114666666Y-101386190D01*
X114714285Y-101433809D01*
X114761904Y-101529047D01*
X114761904Y-101671904D01*
X114714285Y-101767142D01*
X114666666Y-101814761D01*
X114571428Y-101862380D01*
X114190476Y-101862380D01*
X114190476Y-100862380D01*
X114523809Y-100862380D01*
X114619047Y-100910000D01*
X114666666Y-100957619D01*
X114714285Y-101052857D01*
X114714285Y-101148095D01*
X114666666Y-101243333D01*
X114619047Y-101290952D01*
X114523809Y-101338571D01*
X114190476Y-101338571D01*
X115714285Y-101862380D02*
X115142857Y-101862380D01*
X115428571Y-101862380D02*
X115428571Y-100862380D01*
X115333333Y-101005238D01*
X115238095Y-101100476D01*
X115142857Y-101148095D01*
%TO.C,C9*%
X150007142Y-101654166D02*
X150054761Y-101701785D01*
X150102380Y-101844642D01*
X150102380Y-101939880D01*
X150054761Y-102082738D01*
X149959523Y-102177976D01*
X149864285Y-102225595D01*
X149673809Y-102273214D01*
X149530952Y-102273214D01*
X149340476Y-102225595D01*
X149245238Y-102177976D01*
X149150000Y-102082738D01*
X149102380Y-101939880D01*
X149102380Y-101844642D01*
X149150000Y-101701785D01*
X149197619Y-101654166D01*
X150102380Y-101177976D02*
X150102380Y-100987500D01*
X150054761Y-100892261D01*
X150007142Y-100844642D01*
X149864285Y-100749404D01*
X149673809Y-100701785D01*
X149292857Y-100701785D01*
X149197619Y-100749404D01*
X149150000Y-100797023D01*
X149102380Y-100892261D01*
X149102380Y-101082738D01*
X149150000Y-101177976D01*
X149197619Y-101225595D01*
X149292857Y-101273214D01*
X149530952Y-101273214D01*
X149626190Y-101225595D01*
X149673809Y-101177976D01*
X149721428Y-101082738D01*
X149721428Y-100892261D01*
X149673809Y-100797023D01*
X149626190Y-100749404D01*
X149530952Y-100701785D01*
%TO.C,C8*%
X141207142Y-104779166D02*
X141254761Y-104826785D01*
X141302380Y-104969642D01*
X141302380Y-105064880D01*
X141254761Y-105207738D01*
X141159523Y-105302976D01*
X141064285Y-105350595D01*
X140873809Y-105398214D01*
X140730952Y-105398214D01*
X140540476Y-105350595D01*
X140445238Y-105302976D01*
X140350000Y-105207738D01*
X140302380Y-105064880D01*
X140302380Y-104969642D01*
X140350000Y-104826785D01*
X140397619Y-104779166D01*
X140730952Y-104207738D02*
X140683333Y-104302976D01*
X140635714Y-104350595D01*
X140540476Y-104398214D01*
X140492857Y-104398214D01*
X140397619Y-104350595D01*
X140350000Y-104302976D01*
X140302380Y-104207738D01*
X140302380Y-104017261D01*
X140350000Y-103922023D01*
X140397619Y-103874404D01*
X140492857Y-103826785D01*
X140540476Y-103826785D01*
X140635714Y-103874404D01*
X140683333Y-103922023D01*
X140730952Y-104017261D01*
X140730952Y-104207738D01*
X140778571Y-104302976D01*
X140826190Y-104350595D01*
X140921428Y-104398214D01*
X141111904Y-104398214D01*
X141207142Y-104350595D01*
X141254761Y-104302976D01*
X141302380Y-104207738D01*
X141302380Y-104017261D01*
X141254761Y-103922023D01*
X141207142Y-103874404D01*
X141111904Y-103826785D01*
X140921428Y-103826785D01*
X140826190Y-103874404D01*
X140778571Y-103922023D01*
X140730952Y-104017261D01*
%TO.C,C7*%
X130333333Y-107607142D02*
X130285714Y-107654761D01*
X130142857Y-107702380D01*
X130047619Y-107702380D01*
X129904761Y-107654761D01*
X129809523Y-107559523D01*
X129761904Y-107464285D01*
X129714285Y-107273809D01*
X129714285Y-107130952D01*
X129761904Y-106940476D01*
X129809523Y-106845238D01*
X129904761Y-106750000D01*
X130047619Y-106702380D01*
X130142857Y-106702380D01*
X130285714Y-106750000D01*
X130333333Y-106797619D01*
X130666666Y-106702380D02*
X131333333Y-106702380D01*
X130904761Y-107702380D01*
%TD*%
%LPC*%
D16*
%TO.C,L1*%
X145875000Y-103050000D03*
X142625000Y-103050000D03*
%TD*%
%TO.C,R9*%
G36*
G01*
X154565001Y-126200001D02*
X154565001Y-125299999D01*
G75*
G02*
X154815000Y-125050000I249999J0D01*
G01*
X155515002Y-125050000D01*
G75*
G02*
X155765001Y-125299999I0J-249999D01*
G01*
X155765001Y-126200001D01*
G75*
G02*
X155515002Y-126450000I-249999J0D01*
G01*
X154815000Y-126450000D01*
G75*
G02*
X154565001Y-126200001I0J249999D01*
G01*
G37*
G36*
G01*
X152565001Y-126200001D02*
X152565001Y-125299999D01*
G75*
G02*
X152815000Y-125050000I249999J0D01*
G01*
X153515002Y-125050000D01*
G75*
G02*
X153765001Y-125299999I0J-249999D01*
G01*
X153765001Y-126200001D01*
G75*
G02*
X153515002Y-126450000I-249999J0D01*
G01*
X152815000Y-126450000D01*
G75*
G02*
X152565001Y-126200001I0J249999D01*
G01*
G37*
%TD*%
%TO.C,D2*%
G36*
G01*
X148970001Y-125299999D02*
X148970001Y-126200001D01*
G75*
G02*
X148720002Y-126450000I-249999J0D01*
G01*
X148070000Y-126450000D01*
G75*
G02*
X147820001Y-126200001I0J249999D01*
G01*
X147820001Y-125299999D01*
G75*
G02*
X148070000Y-125050000I249999J0D01*
G01*
X148720002Y-125050000D01*
G75*
G02*
X148970001Y-125299999I0J-249999D01*
G01*
G37*
G36*
G01*
X151020001Y-125299999D02*
X151020001Y-126200001D01*
G75*
G02*
X150770002Y-126450000I-249999J0D01*
G01*
X150120000Y-126450000D01*
G75*
G02*
X149870001Y-126200001I0J249999D01*
G01*
X149870001Y-125299999D01*
G75*
G02*
X150120000Y-125050000I249999J0D01*
G01*
X150770002Y-125050000D01*
G75*
G02*
X151020001Y-125299999I0J-249999D01*
G01*
G37*
%TD*%
%TO.C,R8*%
G36*
G01*
X123600000Y-117299999D02*
X123600000Y-118200001D01*
G75*
G02*
X123350001Y-118450000I-249999J0D01*
G01*
X122649999Y-118450000D01*
G75*
G02*
X122400000Y-118200001I0J249999D01*
G01*
X122400000Y-117299999D01*
G75*
G02*
X122649999Y-117050000I249999J0D01*
G01*
X123350001Y-117050000D01*
G75*
G02*
X123600000Y-117299999I0J-249999D01*
G01*
G37*
G36*
G01*
X125600000Y-117299999D02*
X125600000Y-118200001D01*
G75*
G02*
X125350001Y-118450000I-249999J0D01*
G01*
X124649999Y-118450000D01*
G75*
G02*
X124400000Y-118200001I0J249999D01*
G01*
X124400000Y-117299999D01*
G75*
G02*
X124649999Y-117050000I249999J0D01*
G01*
X125350001Y-117050000D01*
G75*
G02*
X125600000Y-117299999I0J-249999D01*
G01*
G37*
%TD*%
%TO.C,R7*%
G36*
G01*
X140600000Y-120799999D02*
X140600000Y-121700001D01*
G75*
G02*
X140350001Y-121950000I-249999J0D01*
G01*
X139649999Y-121950000D01*
G75*
G02*
X139400000Y-121700001I0J249999D01*
G01*
X139400000Y-120799999D01*
G75*
G02*
X139649999Y-120550000I249999J0D01*
G01*
X140350001Y-120550000D01*
G75*
G02*
X140600000Y-120799999I0J-249999D01*
G01*
G37*
G36*
G01*
X142600000Y-120799999D02*
X142600000Y-121700001D01*
G75*
G02*
X142350001Y-121950000I-249999J0D01*
G01*
X141649999Y-121950000D01*
G75*
G02*
X141400000Y-121700001I0J249999D01*
G01*
X141400000Y-120799999D01*
G75*
G02*
X141649999Y-120550000I249999J0D01*
G01*
X142350001Y-120550000D01*
G75*
G02*
X142600000Y-120799999I0J-249999D01*
G01*
G37*
%TD*%
%TO.C,R6*%
G36*
G01*
X123600000Y-119799999D02*
X123600000Y-120700001D01*
G75*
G02*
X123350001Y-120950000I-249999J0D01*
G01*
X122649999Y-120950000D01*
G75*
G02*
X122400000Y-120700001I0J249999D01*
G01*
X122400000Y-119799999D01*
G75*
G02*
X122649999Y-119550000I249999J0D01*
G01*
X123350001Y-119550000D01*
G75*
G02*
X123600000Y-119799999I0J-249999D01*
G01*
G37*
G36*
G01*
X125600000Y-119799999D02*
X125600000Y-120700001D01*
G75*
G02*
X125350001Y-120950000I-249999J0D01*
G01*
X124649999Y-120950000D01*
G75*
G02*
X124400000Y-120700001I0J249999D01*
G01*
X124400000Y-119799999D01*
G75*
G02*
X124649999Y-119550000I249999J0D01*
G01*
X125350001Y-119550000D01*
G75*
G02*
X125600000Y-119799999I0J-249999D01*
G01*
G37*
%TD*%
%TO.C,R4*%
G36*
G01*
X140600000Y-124299999D02*
X140600000Y-125200001D01*
G75*
G02*
X140350001Y-125450000I-249999J0D01*
G01*
X139649999Y-125450000D01*
G75*
G02*
X139400000Y-125200001I0J249999D01*
G01*
X139400000Y-124299999D01*
G75*
G02*
X139649999Y-124050000I249999J0D01*
G01*
X140350001Y-124050000D01*
G75*
G02*
X140600000Y-124299999I0J-249999D01*
G01*
G37*
G36*
G01*
X142600000Y-124299999D02*
X142600000Y-125200001D01*
G75*
G02*
X142350001Y-125450000I-249999J0D01*
G01*
X141649999Y-125450000D01*
G75*
G02*
X141400000Y-125200001I0J249999D01*
G01*
X141400000Y-124299999D01*
G75*
G02*
X141649999Y-124050000I249999J0D01*
G01*
X142350001Y-124050000D01*
G75*
G02*
X142600000Y-124299999I0J-249999D01*
G01*
G37*
%TD*%
D17*
%TO.C,J8*%
X147200000Y-134250000D03*
X144660000Y-134250000D03*
X142120000Y-134250000D03*
X139580000Y-134250000D03*
X137040000Y-134250000D03*
D18*
X134500000Y-134250000D03*
%TD*%
D19*
%TO.C,J3*%
X115350000Y-118550000D03*
X115350000Y-117900000D03*
X115350000Y-117250000D03*
X115350000Y-116600000D03*
X115350000Y-115950000D03*
D20*
X115700000Y-120850000D03*
X112150000Y-120850000D03*
X115700000Y-113650000D03*
X112150000Y-113650000D03*
D21*
X111150000Y-118400000D03*
X111150000Y-116100000D03*
%TD*%
D17*
%TO.C,J1*%
X147200000Y-113750000D03*
X144660000Y-113750000D03*
X142120000Y-113750000D03*
X139580000Y-113750000D03*
X137040000Y-113750000D03*
D18*
X134500000Y-113750000D03*
%TD*%
D22*
%TO.C,FB4*%
X125950000Y-113750000D03*
X128050000Y-113750000D03*
%TD*%
%TO.C,FB3*%
X113450000Y-123250000D03*
X115550000Y-123250000D03*
%TD*%
%TO.C,F4*%
G36*
G01*
X119925000Y-112300000D02*
X119925000Y-115200000D01*
G75*
G02*
X119675000Y-115450000I-250000J0D01*
G01*
X118875000Y-115450000D01*
G75*
G02*
X118625000Y-115200000I0J250000D01*
G01*
X118625000Y-112300000D01*
G75*
G02*
X118875000Y-112050000I250000J0D01*
G01*
X119675000Y-112050000D01*
G75*
G02*
X119925000Y-112300000I0J-250000D01*
G01*
G37*
G36*
G01*
X124375000Y-112300000D02*
X124375000Y-115200000D01*
G75*
G02*
X124125000Y-115450000I-250000J0D01*
G01*
X123325000Y-115450000D01*
G75*
G02*
X123075000Y-115200000I0J250000D01*
G01*
X123075000Y-112300000D01*
G75*
G02*
X123325000Y-112050000I250000J0D01*
G01*
X124125000Y-112050000D01*
G75*
G02*
X124375000Y-112300000I0J-250000D01*
G01*
G37*
%TD*%
%TO.C,D6*%
G36*
G01*
X136425000Y-121700001D02*
X136425000Y-120799999D01*
G75*
G02*
X136674999Y-120550000I249999J0D01*
G01*
X137325001Y-120550000D01*
G75*
G02*
X137575000Y-120799999I0J-249999D01*
G01*
X137575000Y-121700001D01*
G75*
G02*
X137325001Y-121950000I-249999J0D01*
G01*
X136674999Y-121950000D01*
G75*
G02*
X136425000Y-121700001I0J249999D01*
G01*
G37*
G36*
G01*
X134375000Y-121700001D02*
X134375000Y-120799999D01*
G75*
G02*
X134624999Y-120550000I249999J0D01*
G01*
X135275001Y-120550000D01*
G75*
G02*
X135525000Y-120799999I0J-249999D01*
G01*
X135525000Y-121700001D01*
G75*
G02*
X135275001Y-121950000I-249999J0D01*
G01*
X134624999Y-121950000D01*
G75*
G02*
X134375000Y-121700001I0J249999D01*
G01*
G37*
%TD*%
%TO.C,D1*%
G36*
G01*
X136450000Y-125200001D02*
X136450000Y-124299999D01*
G75*
G02*
X136699999Y-124050000I249999J0D01*
G01*
X137350001Y-124050000D01*
G75*
G02*
X137600000Y-124299999I0J-249999D01*
G01*
X137600000Y-125200001D01*
G75*
G02*
X137350001Y-125450000I-249999J0D01*
G01*
X136699999Y-125450000D01*
G75*
G02*
X136450000Y-125200001I0J249999D01*
G01*
G37*
G36*
G01*
X134400000Y-125200001D02*
X134400000Y-124299999D01*
G75*
G02*
X134649999Y-124050000I249999J0D01*
G01*
X135300001Y-124050000D01*
G75*
G02*
X135550000Y-124299999I0J-249999D01*
G01*
X135550000Y-125200001D01*
G75*
G02*
X135300001Y-125450000I-249999J0D01*
G01*
X134649999Y-125450000D01*
G75*
G02*
X134400000Y-125200001I0J249999D01*
G01*
G37*
%TD*%
%TO.C,C10*%
G36*
G01*
X133787500Y-130324999D02*
X133787500Y-131175001D01*
G75*
G02*
X133537501Y-131425000I-249999J0D01*
G01*
X132462499Y-131425000D01*
G75*
G02*
X132212500Y-131175001I0J249999D01*
G01*
X132212500Y-130324999D01*
G75*
G02*
X132462499Y-130075000I249999J0D01*
G01*
X133537501Y-130075000D01*
G75*
G02*
X133787500Y-130324999I0J-249999D01*
G01*
G37*
G36*
G01*
X136662500Y-130324999D02*
X136662500Y-131175001D01*
G75*
G02*
X136412501Y-131425000I-249999J0D01*
G01*
X135337499Y-131425000D01*
G75*
G02*
X135087500Y-131175001I0J249999D01*
G01*
X135087500Y-130324999D01*
G75*
G02*
X135337499Y-130075000I249999J0D01*
G01*
X136412501Y-130075000D01*
G75*
G02*
X136662500Y-130324999I0J-249999D01*
G01*
G37*
%TD*%
%TO.C,C2*%
G36*
G01*
X130525000Y-125737500D02*
X131475000Y-125737500D01*
G75*
G02*
X131725000Y-125987500I0J-250000D01*
G01*
X131725000Y-126662500D01*
G75*
G02*
X131475000Y-126912500I-250000J0D01*
G01*
X130525000Y-126912500D01*
G75*
G02*
X130275000Y-126662500I0J250000D01*
G01*
X130275000Y-125987500D01*
G75*
G02*
X130525000Y-125737500I250000J0D01*
G01*
G37*
G36*
G01*
X130525000Y-123662500D02*
X131475000Y-123662500D01*
G75*
G02*
X131725000Y-123912500I0J-250000D01*
G01*
X131725000Y-124587500D01*
G75*
G02*
X131475000Y-124837500I-250000J0D01*
G01*
X130525000Y-124837500D01*
G75*
G02*
X130275000Y-124587500I0J250000D01*
G01*
X130275000Y-123912500D01*
G75*
G02*
X130525000Y-123662500I250000J0D01*
G01*
G37*
%TD*%
%TO.C,C1*%
G36*
G01*
X131087500Y-117275000D02*
X131087500Y-118225000D01*
G75*
G02*
X130837500Y-118475000I-250000J0D01*
G01*
X130162500Y-118475000D01*
G75*
G02*
X129912500Y-118225000I0J250000D01*
G01*
X129912500Y-117275000D01*
G75*
G02*
X130162500Y-117025000I250000J0D01*
G01*
X130837500Y-117025000D01*
G75*
G02*
X131087500Y-117275000I0J-250000D01*
G01*
G37*
G36*
G01*
X133162500Y-117275000D02*
X133162500Y-118225000D01*
G75*
G02*
X132912500Y-118475000I-250000J0D01*
G01*
X132237500Y-118475000D01*
G75*
G02*
X131987500Y-118225000I0J250000D01*
G01*
X131987500Y-117275000D01*
G75*
G02*
X132237500Y-117025000I250000J0D01*
G01*
X132912500Y-117025000D01*
G75*
G02*
X133162500Y-117275000I0J-250000D01*
G01*
G37*
%TD*%
D23*
%TO.C,E1*%
X115000000Y-79250000D03*
%TD*%
%TO.C,E4*%
X180000000Y-79250000D03*
%TD*%
%TO.C,E3*%
X160950000Y-79250000D03*
%TD*%
%TO.C,E2*%
X134050000Y-79250000D03*
%TD*%
D19*
%TO.C,J4*%
X115385000Y-98400000D03*
X115385000Y-97750000D03*
X115385000Y-97100000D03*
X115385000Y-96450000D03*
X115385000Y-95800000D03*
D20*
X115735000Y-100700000D03*
X112185000Y-100700000D03*
X115735000Y-93500000D03*
X112185000Y-93500000D03*
D21*
X111185000Y-98250000D03*
X111185000Y-95950000D03*
%TD*%
%TO.C,F3*%
G36*
G01*
X119925000Y-92300000D02*
X119925000Y-95200000D01*
G75*
G02*
X119675000Y-95450000I-250000J0D01*
G01*
X118875000Y-95450000D01*
G75*
G02*
X118625000Y-95200000I0J250000D01*
G01*
X118625000Y-92300000D01*
G75*
G02*
X118875000Y-92050000I250000J0D01*
G01*
X119675000Y-92050000D01*
G75*
G02*
X119925000Y-92300000I0J-250000D01*
G01*
G37*
G36*
G01*
X124375000Y-92300000D02*
X124375000Y-95200000D01*
G75*
G02*
X124125000Y-95450000I-250000J0D01*
G01*
X123325000Y-95450000D01*
G75*
G02*
X123075000Y-95200000I0J250000D01*
G01*
X123075000Y-92300000D01*
G75*
G02*
X123325000Y-92050000I250000J0D01*
G01*
X124125000Y-92050000D01*
G75*
G02*
X124375000Y-92300000I0J-250000D01*
G01*
G37*
%TD*%
%TO.C,R5*%
G36*
G01*
X139100000Y-92299999D02*
X139100000Y-93200001D01*
G75*
G02*
X138850001Y-93450000I-249999J0D01*
G01*
X138149999Y-93450000D01*
G75*
G02*
X137900000Y-93200001I0J249999D01*
G01*
X137900000Y-92299999D01*
G75*
G02*
X138149999Y-92050000I249999J0D01*
G01*
X138850001Y-92050000D01*
G75*
G02*
X139100000Y-92299999I0J-249999D01*
G01*
G37*
G36*
G01*
X141100000Y-92299999D02*
X141100000Y-93200001D01*
G75*
G02*
X140850001Y-93450000I-249999J0D01*
G01*
X140149999Y-93450000D01*
G75*
G02*
X139900000Y-93200001I0J249999D01*
G01*
X139900000Y-92299999D01*
G75*
G02*
X140149999Y-92050000I249999J0D01*
G01*
X140850001Y-92050000D01*
G75*
G02*
X141100000Y-92299999I0J-249999D01*
G01*
G37*
%TD*%
%TO.C,R3*%
G36*
G01*
X139100000Y-95799999D02*
X139100000Y-96700001D01*
G75*
G02*
X138850001Y-96950000I-249999J0D01*
G01*
X138149999Y-96950000D01*
G75*
G02*
X137900000Y-96700001I0J249999D01*
G01*
X137900000Y-95799999D01*
G75*
G02*
X138149999Y-95550000I249999J0D01*
G01*
X138850001Y-95550000D01*
G75*
G02*
X139100000Y-95799999I0J-249999D01*
G01*
G37*
G36*
G01*
X141100000Y-95799999D02*
X141100000Y-96700001D01*
G75*
G02*
X140850001Y-96950000I-249999J0D01*
G01*
X140149999Y-96950000D01*
G75*
G02*
X139900000Y-96700001I0J249999D01*
G01*
X139900000Y-95799999D01*
G75*
G02*
X140149999Y-95550000I249999J0D01*
G01*
X140850001Y-95550000D01*
G75*
G02*
X141100000Y-95799999I0J-249999D01*
G01*
G37*
%TD*%
%TO.C,D5*%
G36*
G01*
X134925000Y-93200001D02*
X134925000Y-92299999D01*
G75*
G02*
X135174999Y-92050000I249999J0D01*
G01*
X135825001Y-92050000D01*
G75*
G02*
X136075000Y-92299999I0J-249999D01*
G01*
X136075000Y-93200001D01*
G75*
G02*
X135825001Y-93450000I-249999J0D01*
G01*
X135174999Y-93450000D01*
G75*
G02*
X134925000Y-93200001I0J249999D01*
G01*
G37*
G36*
G01*
X132875000Y-93200001D02*
X132875000Y-92299999D01*
G75*
G02*
X133124999Y-92050000I249999J0D01*
G01*
X133775001Y-92050000D01*
G75*
G02*
X134025000Y-92299999I0J-249999D01*
G01*
X134025000Y-93200001D01*
G75*
G02*
X133775001Y-93450000I-249999J0D01*
G01*
X133124999Y-93450000D01*
G75*
G02*
X132875000Y-93200001I0J249999D01*
G01*
G37*
%TD*%
%TO.C,D4*%
G36*
G01*
X134925000Y-96700001D02*
X134925000Y-95799999D01*
G75*
G02*
X135174999Y-95550000I249999J0D01*
G01*
X135825001Y-95550000D01*
G75*
G02*
X136075000Y-95799999I0J-249999D01*
G01*
X136075000Y-96700001D01*
G75*
G02*
X135825001Y-96950000I-249999J0D01*
G01*
X135174999Y-96950000D01*
G75*
G02*
X134925000Y-96700001I0J249999D01*
G01*
G37*
G36*
G01*
X132875000Y-96700001D02*
X132875000Y-95799999D01*
G75*
G02*
X133124999Y-95550000I249999J0D01*
G01*
X133775001Y-95550000D01*
G75*
G02*
X134025000Y-95799999I0J-249999D01*
G01*
X134025000Y-96700001D01*
G75*
G02*
X133775001Y-96950000I-249999J0D01*
G01*
X133124999Y-96950000D01*
G75*
G02*
X132875000Y-96700001I0J249999D01*
G01*
G37*
%TD*%
%TO.C,C6*%
G36*
G01*
X129025000Y-104700000D02*
X129975000Y-104700000D01*
G75*
G02*
X130225000Y-104950000I0J-250000D01*
G01*
X130225000Y-105625000D01*
G75*
G02*
X129975000Y-105875000I-250000J0D01*
G01*
X129025000Y-105875000D01*
G75*
G02*
X128775000Y-105625000I0J250000D01*
G01*
X128775000Y-104950000D01*
G75*
G02*
X129025000Y-104700000I250000J0D01*
G01*
G37*
G36*
G01*
X129025000Y-102625000D02*
X129975000Y-102625000D01*
G75*
G02*
X130225000Y-102875000I0J-250000D01*
G01*
X130225000Y-103550000D01*
G75*
G02*
X129975000Y-103800000I-250000J0D01*
G01*
X129025000Y-103800000D01*
G75*
G02*
X128775000Y-103550000I0J250000D01*
G01*
X128775000Y-102875000D01*
G75*
G02*
X129025000Y-102625000I250000J0D01*
G01*
G37*
%TD*%
%TO.C,C3*%
G36*
G01*
X141450000Y-131225000D02*
X141450000Y-130275000D01*
G75*
G02*
X141700000Y-130025000I250000J0D01*
G01*
X142375000Y-130025000D01*
G75*
G02*
X142625000Y-130275000I0J-250000D01*
G01*
X142625000Y-131225000D01*
G75*
G02*
X142375000Y-131475000I-250000J0D01*
G01*
X141700000Y-131475000D01*
G75*
G02*
X141450000Y-131225000I0J250000D01*
G01*
G37*
G36*
G01*
X139375000Y-131225000D02*
X139375000Y-130275000D01*
G75*
G02*
X139625000Y-130025000I250000J0D01*
G01*
X140300000Y-130025000D01*
G75*
G02*
X140550000Y-130275000I0J-250000D01*
G01*
X140550000Y-131225000D01*
G75*
G02*
X140300000Y-131475000I-250000J0D01*
G01*
X139625000Y-131475000D01*
G75*
G02*
X139375000Y-131225000I0J250000D01*
G01*
G37*
%TD*%
D24*
%TO.C,J7*%
X114960000Y-139710000D03*
X117500000Y-139710000D03*
X114960000Y-137170000D03*
X117500000Y-137170000D03*
X114960000Y-134630000D03*
X117500000Y-134630000D03*
X114960000Y-132090000D03*
X117500000Y-132090000D03*
D25*
X114960000Y-129550000D03*
D24*
X117500000Y-129550000D03*
%TD*%
%TO.C,D3*%
G36*
G01*
X161750000Y-134299999D02*
X161750000Y-135200001D01*
G75*
G02*
X161500001Y-135450000I-249999J0D01*
G01*
X160849999Y-135450000D01*
G75*
G02*
X160600000Y-135200001I0J249999D01*
G01*
X160600000Y-134299999D01*
G75*
G02*
X160849999Y-134050000I249999J0D01*
G01*
X161500001Y-134050000D01*
G75*
G02*
X161750000Y-134299999I0J-249999D01*
G01*
G37*
G36*
G01*
X163800000Y-134299999D02*
X163800000Y-135200001D01*
G75*
G02*
X163550001Y-135450000I-249999J0D01*
G01*
X162899999Y-135450000D01*
G75*
G02*
X162650000Y-135200001I0J249999D01*
G01*
X162650000Y-134299999D01*
G75*
G02*
X162899999Y-134050000I249999J0D01*
G01*
X163550001Y-134050000D01*
G75*
G02*
X163800000Y-134299999I0J-249999D01*
G01*
G37*
%TD*%
D26*
%TO.C,J5*%
X114795000Y-164920000D03*
X180205000Y-164920000D03*
D27*
X151310000Y-156270000D03*
X156390000Y-160230000D03*
X148770000Y-156270000D03*
X148770000Y-160230000D03*
X151310000Y-160230000D03*
X158930000Y-156270000D03*
X164010000Y-160230000D03*
X156390000Y-156270000D03*
X161470000Y-156270000D03*
X164010000Y-156270000D03*
X169090000Y-156270000D03*
X171630000Y-156270000D03*
X153850000Y-160230000D03*
X158930000Y-160230000D03*
X153850000Y-156270000D03*
X166550000Y-156270000D03*
X161470000Y-160230000D03*
X166550000Y-160230000D03*
X171630000Y-160230000D03*
X169090000Y-160230000D03*
X146230000Y-156270000D03*
X143690000Y-156270000D03*
X143690000Y-160230000D03*
X146230000Y-160230000D03*
X136070000Y-156270000D03*
X141150000Y-160230000D03*
X133530000Y-156270000D03*
X133530000Y-160230000D03*
X136070000Y-160230000D03*
X141150000Y-156270000D03*
X138610000Y-160230000D03*
X138610000Y-156270000D03*
X130990000Y-156270000D03*
X128450000Y-156270000D03*
X128450000Y-160230000D03*
X130990000Y-160230000D03*
X125910000Y-156270000D03*
X125910000Y-160230000D03*
X123370000Y-156270000D03*
D28*
X123370000Y-160230000D03*
%TD*%
%TO.C,JP2*%
G36*
G01*
X140970000Y-143167100D02*
X139700000Y-143167100D01*
G75*
G02*
X139598400Y-143065500I0J101600D01*
G01*
X139598400Y-142430500D01*
G75*
G02*
X139700000Y-142328900I101600J0D01*
G01*
X140970000Y-142328900D01*
G75*
G02*
X141071600Y-142430500I0J-101600D01*
G01*
X141071600Y-143065500D01*
G75*
G02*
X140970000Y-143167100I-101600J0D01*
G01*
G37*
G36*
G01*
X140970000Y-144183100D02*
X139700000Y-144183100D01*
G75*
G02*
X139598400Y-144081500I0J101600D01*
G01*
X139598400Y-143446500D01*
G75*
G02*
X139700000Y-143344900I101600J0D01*
G01*
X140970000Y-143344900D01*
G75*
G02*
X141071600Y-143446500I0J-101600D01*
G01*
X141071600Y-144081500D01*
G75*
G02*
X140970000Y-144183100I-101600J0D01*
G01*
G37*
G36*
G01*
X140970000Y-145199100D02*
X139700000Y-145199100D01*
G75*
G02*
X139598400Y-145097500I0J101600D01*
G01*
X139598400Y-144462500D01*
G75*
G02*
X139700000Y-144360900I101600J0D01*
G01*
X140970000Y-144360900D01*
G75*
G02*
X141071600Y-144462500I0J-101600D01*
G01*
X141071600Y-145097500D01*
G75*
G02*
X140970000Y-145199100I-101600J0D01*
G01*
G37*
%TD*%
%TO.C,JP1*%
G36*
G01*
X144780000Y-144360900D02*
X146050000Y-144360900D01*
G75*
G02*
X146151600Y-144462500I0J-101600D01*
G01*
X146151600Y-145097500D01*
G75*
G02*
X146050000Y-145199100I-101600J0D01*
G01*
X144780000Y-145199100D01*
G75*
G02*
X144678400Y-145097500I0J101600D01*
G01*
X144678400Y-144462500D01*
G75*
G02*
X144780000Y-144360900I101600J0D01*
G01*
G37*
G36*
G01*
X144780000Y-143344900D02*
X146050000Y-143344900D01*
G75*
G02*
X146151600Y-143446500I0J-101600D01*
G01*
X146151600Y-144081500D01*
G75*
G02*
X146050000Y-144183100I-101600J0D01*
G01*
X144780000Y-144183100D01*
G75*
G02*
X144678400Y-144081500I0J101600D01*
G01*
X144678400Y-143446500D01*
G75*
G02*
X144780000Y-143344900I101600J0D01*
G01*
G37*
G36*
G01*
X144780000Y-142328900D02*
X146050000Y-142328900D01*
G75*
G02*
X146151600Y-142430500I0J-101600D01*
G01*
X146151600Y-143065500D01*
G75*
G02*
X146050000Y-143167100I-101600J0D01*
G01*
X144780000Y-143167100D01*
G75*
G02*
X144678400Y-143065500I0J101600D01*
G01*
X144678400Y-142430500D01*
G75*
G02*
X144780000Y-142328900I101600J0D01*
G01*
G37*
%TD*%
D29*
%TO.C,U2*%
X161250000Y-118280000D03*
X161250000Y-115740000D03*
X161250000Y-105580000D03*
X161250000Y-113200000D03*
X161250000Y-110660000D03*
X161250000Y-103040000D03*
D30*
X161250000Y-100500000D03*
%TD*%
%TO.C,R12*%
G36*
G01*
X166650000Y-135200001D02*
X166650000Y-134299999D01*
G75*
G02*
X166899999Y-134050000I249999J0D01*
G01*
X167600001Y-134050000D01*
G75*
G02*
X167850000Y-134299999I0J-249999D01*
G01*
X167850000Y-135200001D01*
G75*
G02*
X167600001Y-135450000I-249999J0D01*
G01*
X166899999Y-135450000D01*
G75*
G02*
X166650000Y-135200001I0J249999D01*
G01*
G37*
G36*
G01*
X164650000Y-135200001D02*
X164650000Y-134299999D01*
G75*
G02*
X164899999Y-134050000I249999J0D01*
G01*
X165600001Y-134050000D01*
G75*
G02*
X165850000Y-134299999I0J-249999D01*
G01*
X165850000Y-135200001D01*
G75*
G02*
X165600001Y-135450000I-249999J0D01*
G01*
X164899999Y-135450000D01*
G75*
G02*
X164650000Y-135200001I0J249999D01*
G01*
G37*
%TD*%
%TO.C,R2*%
G36*
G01*
X123600000Y-97299999D02*
X123600000Y-98200001D01*
G75*
G02*
X123350001Y-98450000I-249999J0D01*
G01*
X122649999Y-98450000D01*
G75*
G02*
X122400000Y-98200001I0J249999D01*
G01*
X122400000Y-97299999D01*
G75*
G02*
X122649999Y-97050000I249999J0D01*
G01*
X123350001Y-97050000D01*
G75*
G02*
X123600000Y-97299999I0J-249999D01*
G01*
G37*
G36*
G01*
X125600000Y-97299999D02*
X125600000Y-98200001D01*
G75*
G02*
X125350001Y-98450000I-249999J0D01*
G01*
X124649999Y-98450000D01*
G75*
G02*
X124400000Y-98200001I0J249999D01*
G01*
X124400000Y-97299999D01*
G75*
G02*
X124649999Y-97050000I249999J0D01*
G01*
X125350001Y-97050000D01*
G75*
G02*
X125600000Y-97299999I0J-249999D01*
G01*
G37*
%TD*%
%TO.C,R1*%
G36*
G01*
X123600000Y-99799600D02*
X123600000Y-100700400D01*
G75*
G02*
X123350400Y-100950000I-249600J0D01*
G01*
X122649600Y-100950000D01*
G75*
G02*
X122400000Y-100700400I0J249600D01*
G01*
X122400000Y-99799600D01*
G75*
G02*
X122649600Y-99550000I249600J0D01*
G01*
X123350400Y-99550000D01*
G75*
G02*
X123600000Y-99799600I0J-249600D01*
G01*
G37*
G36*
G01*
X125600000Y-99799999D02*
X125600000Y-100700001D01*
G75*
G02*
X125350001Y-100950000I-249999J0D01*
G01*
X124649999Y-100950000D01*
G75*
G02*
X124400000Y-100700001I0J249999D01*
G01*
X124400000Y-99799999D01*
G75*
G02*
X124649999Y-99550000I249999J0D01*
G01*
X125350001Y-99550000D01*
G75*
G02*
X125600000Y-99799999I0J-249999D01*
G01*
G37*
%TD*%
D17*
%TO.C,J13*%
X161000000Y-140460000D03*
D18*
X161000000Y-143000000D03*
%TD*%
D17*
%TO.C,J10*%
X162460000Y-128000000D03*
X165000000Y-128000000D03*
D18*
X167540000Y-128000000D03*
%TD*%
D17*
%TO.C,J9*%
X180040000Y-135930000D03*
X177500000Y-135930000D03*
X180040000Y-133390000D03*
X177500000Y-133390000D03*
X180040000Y-130850000D03*
X177500000Y-130850000D03*
X180040000Y-128310000D03*
X177500000Y-128310000D03*
X180040000Y-125770000D03*
X177500000Y-125770000D03*
X180040000Y-123230000D03*
X177500000Y-123230000D03*
X180040000Y-120690000D03*
X177500000Y-120690000D03*
X180040000Y-118150000D03*
X177500000Y-118150000D03*
X180040000Y-115610000D03*
X177500000Y-115610000D03*
X180040000Y-113070000D03*
X177500000Y-113070000D03*
X180040000Y-110530000D03*
X177500000Y-110530000D03*
X180040000Y-107990000D03*
X177500000Y-107990000D03*
X180040000Y-105450000D03*
X177500000Y-105450000D03*
X180040000Y-102910000D03*
X177500000Y-102910000D03*
X180040000Y-100370000D03*
X177500000Y-100370000D03*
X180040000Y-97830000D03*
X177500000Y-97830000D03*
X180040000Y-95290000D03*
X177500000Y-95290000D03*
X180040000Y-92750000D03*
D18*
X177500000Y-92750000D03*
%TD*%
D17*
%TO.C,J6*%
X167000000Y-140470000D03*
X167000000Y-143010000D03*
D18*
X167000000Y-145550000D03*
%TD*%
D17*
%TO.C,J2*%
X149500000Y-94330000D03*
X149500000Y-91790000D03*
D18*
X149500000Y-89250000D03*
%TD*%
D22*
%TO.C,FB2*%
X125950000Y-93750000D03*
X128050000Y-93750000D03*
%TD*%
%TO.C,FB1*%
X113450000Y-103250000D03*
X115550000Y-103250000D03*
%TD*%
%TO.C,C9*%
G36*
G01*
X152150003Y-100587500D02*
X150849997Y-100587500D01*
G75*
G02*
X150600000Y-100337503I0J249997D01*
G01*
X150600000Y-99512497D01*
G75*
G02*
X150849997Y-99262500I249997J0D01*
G01*
X152150003Y-99262500D01*
G75*
G02*
X152400000Y-99512497I0J-249997D01*
G01*
X152400000Y-100337503D01*
G75*
G02*
X152150003Y-100587500I-249997J0D01*
G01*
G37*
G36*
G01*
X152150003Y-103712500D02*
X150849997Y-103712500D01*
G75*
G02*
X150600000Y-103462503I0J249997D01*
G01*
X150600000Y-102637497D01*
G75*
G02*
X150849997Y-102387500I249997J0D01*
G01*
X152150003Y-102387500D01*
G75*
G02*
X152400000Y-102637497I0J-249997D01*
G01*
X152400000Y-103462503D01*
G75*
G02*
X152150003Y-103712500I-249997J0D01*
G01*
G37*
%TD*%
%TO.C,C8*%
G36*
G01*
X138349997Y-105512500D02*
X139650003Y-105512500D01*
G75*
G02*
X139900000Y-105762497I0J-249997D01*
G01*
X139900000Y-106587503D01*
G75*
G02*
X139650003Y-106837500I-249997J0D01*
G01*
X138349997Y-106837500D01*
G75*
G02*
X138100000Y-106587503I0J249997D01*
G01*
X138100000Y-105762497D01*
G75*
G02*
X138349997Y-105512500I249997J0D01*
G01*
G37*
G36*
G01*
X138349997Y-102387500D02*
X139650003Y-102387500D01*
G75*
G02*
X139900000Y-102637497I0J-249997D01*
G01*
X139900000Y-103462503D01*
G75*
G02*
X139650003Y-103712500I-249997J0D01*
G01*
X138349997Y-103712500D01*
G75*
G02*
X138100000Y-103462503I0J249997D01*
G01*
X138100000Y-102637497D01*
G75*
G02*
X138349997Y-102387500I249997J0D01*
G01*
G37*
%TD*%
%TO.C,C7*%
G36*
G01*
X129350000Y-108824999D02*
X129350000Y-109675001D01*
G75*
G02*
X129100001Y-109925000I-249999J0D01*
G01*
X128024999Y-109925000D01*
G75*
G02*
X127775000Y-109675001I0J249999D01*
G01*
X127775000Y-108824999D01*
G75*
G02*
X128024999Y-108575000I249999J0D01*
G01*
X129100001Y-108575000D01*
G75*
G02*
X129350000Y-108824999I0J-249999D01*
G01*
G37*
G36*
G01*
X132225000Y-108824999D02*
X132225000Y-109675001D01*
G75*
G02*
X131975001Y-109925000I-249999J0D01*
G01*
X130899999Y-109925000D01*
G75*
G02*
X130650000Y-109675001I0J249999D01*
G01*
X130650000Y-108824999D01*
G75*
G02*
X130899999Y-108575000I249999J0D01*
G01*
X131975001Y-108575000D01*
G75*
G02*
X132225000Y-108824999I0J-249999D01*
G01*
G37*
%TD*%
M02*
