M48
; DRILL file {KiCad (5.1.7)-1} date 11/29/20 11:49:16
; FORMAT={-:-/ absolute / inch / decimal}
; #@! TF.CreationDate,2020-11-29T11:49:16-06:00
; #@! TF.GenerationSoftware,Kicad,Pcbnew,(5.1.7)-1
FMAT,2
INCH
T1C0.0157
T2C0.0236
T3C0.0394
T4C0.0402
T5C0.0433
T6C0.2047
T7C0.1252
%
G90
G05
T1
X4.626Y-4.065
X4.626Y-4.8524
X4.6457Y-3.9075
X4.6457Y-4.6949
X4.9803Y-3.9469
X5.0Y-4.3012
X5.0Y-4.7539
X5.0197Y-3.8484
X5.0197Y-4.6555
X5.0394Y-4.1437
X5.0984Y-4.0059
X5.0984Y-4.9705
X5.1378Y-4.5768
X5.1575Y-4.8327
X5.1575Y-5.1476
X5.1772Y-3.8484
X5.1969Y-3.6516
X5.2362Y-4.6949
X5.2559Y-3.8484
X5.2953Y-4.6949
X5.315Y-4.3209
X5.315Y-4.8524
X5.4331Y-5.1476
X5.5118Y-4.2618
X5.5953Y-5.2114
X5.9449Y-5.5906
X6.1614Y-4.9508
X6.5846Y-5.2323
X6.9488Y-6.0433
T3
X6.3386Y-5.5299
X6.3386Y-5.6299
X6.5748Y-5.5303
X6.5748Y-5.6303
X6.5748Y-5.7303
X6.9882Y-3.6516
X6.9882Y-3.7516
X6.9882Y-3.8516
X6.9882Y-3.9516
X6.9882Y-4.0516
X6.9882Y-4.1516
X6.9882Y-4.2516
X6.9882Y-4.3516
X6.9882Y-4.4516
X6.9882Y-4.5516
X6.9882Y-4.6516
X6.9882Y-4.7516
X6.9882Y-4.8516
X6.9882Y-4.9516
X6.9882Y-5.0516
X6.9882Y-5.1516
X6.9882Y-5.2516
X6.9882Y-5.3516
X7.0882Y-3.6516
X7.0882Y-3.7516
X7.0882Y-3.8516
X7.0882Y-3.9516
X7.0882Y-4.0516
X7.0882Y-4.1516
X7.0882Y-4.2516
X7.0882Y-4.3516
X7.0882Y-4.4516
X7.0882Y-4.5516
X7.0882Y-4.6516
X7.0882Y-4.7516
X7.0882Y-4.8516
X7.0882Y-4.9516
X7.0882Y-5.0516
X7.0882Y-5.1516
X7.0882Y-5.2516
X7.0882Y-5.3516
X5.2953Y-5.2854
X5.3953Y-5.2854
X5.4953Y-5.2854
X5.5953Y-5.2854
X5.6953Y-5.2854
X5.7953Y-5.2854
X6.3961Y-5.0394
X6.4961Y-5.0394
X6.5961Y-5.0394
X5.8858Y-3.5138
X5.8858Y-3.6138
X5.8858Y-3.7138
X5.2953Y-4.4783
X5.3953Y-4.4783
X5.4953Y-4.4783
X5.5953Y-4.4783
X5.6953Y-4.4783
X5.7953Y-4.4783
X6.3484Y-3.9567
X6.3484Y-4.0567
X6.3484Y-4.1567
X6.3484Y-4.3567
X6.3484Y-4.4567
X6.3484Y-4.5567
X6.3484Y-4.6567
T4
X4.526Y-5.1004
X4.526Y-5.2004
X4.526Y-5.3004
X4.526Y-5.4004
X4.526Y-5.5004
X4.626Y-5.1004
X4.626Y-5.2004
X4.626Y-5.3004
X4.626Y-5.4004
X4.626Y-5.5004
T5
X4.8571Y-6.1524
X4.8571Y-6.3083
X4.9571Y-6.1524
X4.9571Y-6.3083
X5.0571Y-6.1524
X5.0571Y-6.3083
X5.1571Y-6.1524
X5.1571Y-6.3083
X5.2571Y-6.1524
X5.2571Y-6.3083
X5.3571Y-6.1524
X5.3571Y-6.3083
X5.4571Y-6.1524
X5.4571Y-6.3083
X5.5571Y-6.1524
X5.5571Y-6.3083
X5.6571Y-6.1524
X5.6571Y-6.3083
X5.7571Y-6.1524
X5.7571Y-6.3083
X5.8571Y-6.1524
X5.8571Y-6.3083
X5.9571Y-6.1524
X5.9571Y-6.3083
X6.0571Y-6.1524
X6.0571Y-6.3083
X6.1571Y-6.1524
X6.1571Y-6.3083
X6.2571Y-6.1524
X6.2571Y-6.3083
X6.3571Y-6.1524
X6.3571Y-6.3083
X6.4571Y-6.1524
X6.4571Y-6.3083
X6.5571Y-6.1524
X6.5571Y-6.3083
X6.6571Y-6.1524
X6.6571Y-6.3083
X6.7571Y-6.1524
X6.7571Y-6.3083
T6
X4.5276Y-3.1201
X6.3366Y-3.1201
X5.2776Y-3.1201
X7.0866Y-3.1201
T7
X4.5195Y-6.4929
X7.0947Y-6.4929
T2
G00X4.3951Y-3.6811
M15
G01X4.4384Y-3.6811
M16
G05
G00X4.3951Y-3.9646
M15
G01X4.4384Y-3.9646
M16
G05
G00X4.5348Y-3.6811
M15
G01X4.5781Y-3.6811
M16
G05
G00X4.5348Y-3.9646
M15
G01X4.5781Y-3.9646
M16
G05
G00X4.3937Y-4.4744
M15
G01X4.437Y-4.4744
M16
G05
G00X4.3937Y-4.7579
M15
G01X4.437Y-4.7579
M16
G05
G00X4.5335Y-4.4744
M15
G01X4.5768Y-4.4744
M16
G05
G00X4.5335Y-4.7579
M15
G01X4.5768Y-4.7579
M16
G05
T0
M30
